<?xml version="1.0" encoding="utf-8"?>
<!-- Generator: Adobe Illustrator 25.2.0, SVG Export Plug-In . SVG Version: 6.00 Build 0)  -->
<svg version="1.1" id="Layer_1" xmlns="http://www.w3.org/2000/svg" xmlns:xlink="http://www.w3.org/1999/xlink" x="0px" y="0px"
	 viewBox="0 0 607 371" style="enable-background:new 0 0 607 371;" xml:space="preserve">
<style type="text/css">
	.st0{fill:none;stroke:#DDDDDD;stroke-miterlimit:10;}
	.st1{fill:none;}
	.st2{display:none;fill:none;stroke:#DDDDDD;stroke-miterlimit:10;}
	.st3{fill:none;stroke:#888888;stroke-miterlimit:10;}
	.st4{font-family:'Helvetica';}
	.st5{font-size:10px;}
	.st6{opacity:0;enable-background:new    ;}
	.st7{font-family:'Helvetica-Bold';}
	.st8{font-size:11px;}
	.st9{display:none;}
	.st10{fill:none;stroke:#4C78A8;stroke-width:2;stroke-miterlimit:10;}
	.st11{display:none;fill:none;stroke:#4C78A8;stroke-width:2;stroke-miterlimit:10;}
	.st12{fill:none;stroke:#F58518;stroke-width:2;stroke-miterlimit:10;}
	.st13{display:none;fill:none;stroke:#F58518;stroke-width:2;stroke-miterlimit:10;}
	.st14{fill:none;stroke:#E45756;stroke-width:2;stroke-miterlimit:10;}
	.st15{display:none;fill:none;stroke:#E45756;stroke-width:2;stroke-miterlimit:10;}
	.st16{fill:none;stroke:#4C78A8;stroke-width:1.5;stroke-miterlimit:10;}
	.st17{fill:none;stroke:#F58518;stroke-width:1.5;stroke-miterlimit:10;}
	.st18{fill:none;stroke:#E45756;stroke-width:1.5;stroke-miterlimit:10;}
	.st19{font-size:20px;}
</style>
<g transform="translate(59,34)">
	<g>
		<g transform="translate(0,0)">
			<path class="st0" d="M0.5,0.5h400v300H0.5V0.5z"/>
			<g>
				<g>
					<g transform="translate(0.5,300.5)">
						<path pointer-events="none" class="st1" d="M0,0L0,0L0,0L0,0z"/>
						<g>
							<g pointer-events="none">
								<line class="st0" x1="5" y1="-300" x2="5" y2="0"/>
								<line class="st0" x1="30" y1="-300" x2="30" y2="0"/>
								<line class="st0" x1="56" y1="-300" x2="56" y2="0"/>
								<line class="st0" x1="81" y1="-300" x2="81" y2="0"/>
								<line class="st0" x1="107" y1="-300" x2="107" y2="0"/>
								<line class="st0" x1="132" y1="-300" x2="132" y2="0"/>
								<line class="st0" x1="158" y1="-300" x2="158" y2="0"/>
								<line class="st0" x1="184" y1="-300" x2="184" y2="0"/>
								<line class="st0" x1="209" y1="-300" x2="209" y2="0"/>
								<line class="st0" x1="235" y1="-300" x2="235" y2="0"/>
								<line class="st0" x1="261" y1="-300" x2="261" y2="0"/>
								<line class="st0" x1="287" y1="-300" x2="287" y2="0"/>
								<line class="st0" x1="313" y1="-300" x2="313" y2="0"/>
								<line class="st0" x1="336" y1="-300" x2="336" y2="0"/>
								<line class="st0" x1="362" y1="-300" x2="362" y2="0"/>
								<line class="st0" x1="388" y1="-300" x2="388" y2="0"/>
							</g>
						</g>
						<path pointer-events="none" class="st2" d="M0,0"/>
					</g>
				</g>
				<g>
					<g transform="translate(0.5,0.5)">
						<path pointer-events="none" class="st1" d="M0,0L0,0L0,0L0,0z"/>
						<g>
							<g pointer-events="none">
								<line class="st0" x1="0" y1="300" x2="400" y2="300"/>
								<line class="st0" x1="0" y1="270" x2="400" y2="270"/>
								<line class="st0" x1="0" y1="240" x2="400" y2="240"/>
								<line class="st0" x1="0" y1="210" x2="400" y2="210"/>
								<line class="st0" x1="0" y1="180" x2="400" y2="180"/>
								<line class="st0" x1="0" y1="150" x2="400" y2="150"/>
								<line class="st0" x1="0" y1="120" x2="400" y2="120"/>
								<line class="st0" x1="0" y1="90" x2="400" y2="90"/>
								<line class="st0" x1="0" y1="60" x2="400" y2="60"/>
								<line class="st0" x1="0" y1="30" x2="400" y2="30"/>
								<line class="st0" x1="0" y1="0" x2="400" y2="0"/>
							</g>
						</g>
						<path pointer-events="none" class="st2" d="M0,0"/>
					</g>
				</g>
				<g>
					<g transform="translate(0.5,300.5)">
						<path pointer-events="none" class="st1" d="M0,0L0,0L0,0L0,0z"/>
						<g>
							<g pointer-events="none">
								<line class="st3" x1="5" y1="0" x2="5" y2="5"/>
								<line class="st3" x1="30" y1="0" x2="30" y2="5"/>
								<line class="st3" x1="56" y1="0" x2="56" y2="5"/>
								<line class="st3" x1="81" y1="0" x2="81" y2="5"/>
								<line class="st3" x1="107" y1="0" x2="107" y2="5"/>
								<line class="st3" x1="132" y1="0" x2="132" y2="5"/>
								<line class="st3" x1="158" y1="0" x2="158" y2="5"/>
								<line class="st3" x1="184" y1="0" x2="184" y2="5"/>
								<line class="st3" x1="209" y1="0" x2="209" y2="5"/>
								<line class="st3" x1="235" y1="0" x2="235" y2="5"/>
								<line class="st3" x1="261" y1="0" x2="261" y2="5"/>
								<line class="st3" x1="287" y1="0" x2="287" y2="5"/>
								<line class="st3" x1="313" y1="0" x2="313" y2="5"/>
								<line class="st3" x1="336" y1="0" x2="336" y2="5"/>
								<line class="st3" x1="362" y1="0" x2="362" y2="5"/>
								<line class="st3" x1="388" y1="0" x2="388" y2="5"/>
							</g>
							<g pointer-events="none">
								<text transform="matrix(1 0 0 1 -14.7902 15)" class="st4 st5">February</text>
								<text transform="matrix(1 0 0 1 15.6953 15)" class="st6 st4 st5">March</text>
								<text transform="matrix(1 0 0 1 45.5998 15)" class="st4 st5">April</text>
								<text transform="matrix(1 0 0 1 71.3665 15)" class="st6 st4 st5">May</text>
								<text transform="matrix(1 0 0 1 96.0204 15)" class="st4 st5">June</text>
								<text transform="matrix(1 0 0 1 123.1812 15)" class="st6 st4 st5">July</text>
								<text transform="matrix(1 0 0 1 142.5568 15)" class="st4 st5">August</text>
								<text transform="matrix(1 0 0 1 159.7157 15)" class="st6 st4 st5">September</text>
								<text transform="matrix(1 0 0 1 191.5981 15)" class="st4 st5">October</text>
								<text transform="matrix(1 0 0 1 212.3702 15)" class="st6 st4 st5">November</text>
								<text transform="matrix(1 0 0 1 237.6153 15)" class="st4 st5">December</text>
								<text transform="matrix(1 0 0 1 275.6067 15)" class="st6 st4 st5">2021</text>
								<text transform="matrix(1 0 0 1 292.7728 15)" class="st4 st5">February</text>
								<text transform="matrix(1 0 0 1 322.418 15)" class="st6 st4 st5">March</text>
								<text transform="matrix(1 0 0 1 352.3225 15)" class="st4 st5">April</text>
								<text transform="matrix(1 0 0 1 378.0892 15)" class="st6 st4 st5">May</text>
							</g>
							<g pointer-events="none">
								<line class="st3" x1="0" y1="0" x2="400" y2="0"/>
							</g>
							<g pointer-events="none">
								<text transform="matrix(1 0 0 1 183.5081 30)" class="st7 st8">Month</text>
							</g>
						</g>
						<path pointer-events="none" class="st9" d="M0,0"/>
					</g>
				</g>
				<g>
					<g transform="translate(0.5,0.5)">
						<path pointer-events="none" class="st1" d="M0,0L0,0L0,0L0,0z"/>
						<g>
							<g pointer-events="none">
								<line class="st3" x1="0" y1="300" x2="-5" y2="300"/>
								<line class="st3" x1="0" y1="270" x2="-5" y2="270"/>
								<line class="st3" x1="0" y1="240" x2="-5" y2="240"/>
								<line class="st3" x1="0" y1="210" x2="-5" y2="210"/>
								<line class="st3" x1="0" y1="180" x2="-5" y2="180"/>
								<line class="st3" x1="0" y1="150" x2="-5" y2="150"/>
								<line class="st3" x1="0" y1="120" x2="-5" y2="120"/>
								<line class="st3" x1="0" y1="90" x2="-5" y2="90"/>
								<line class="st3" x1="0" y1="60" x2="-5" y2="60"/>
								<line class="st3" x1="0" y1="30" x2="-5" y2="30"/>
								<line class="st3" x1="0" y1="0" x2="-5" y2="0"/>
							</g>
							<g pointer-events="none">
								<text transform="matrix(1 0 0 1 -38.416 303)" class="st4 st5">−100%</text>
								<text transform="matrix(1 0 0 1 -32.8545 273)" class="st4 st5">−80%</text>
								<text transform="matrix(1 0 0 1 -32.8545 243)" class="st4 st5">−60%</text>
								<text transform="matrix(1 0 0 1 -32.8545 213)" class="st4 st5">−40%</text>
								<text transform="matrix(1 0 0 1 -32.8545 183)" class="st4 st5">−20%</text>
								<text transform="matrix(1 0 0 1 -21.4531 153)" class="st4 st5">0%</text>
								<text transform="matrix(1 0 0 1 -27.0146 123)" class="st4 st5">20%</text>
								<text transform="matrix(1 0 0 1 -27.0146 93)" class="st4 st5">40%</text>
								<text transform="matrix(1 0 0 1 -27.0146 63)" class="st4 st5">60%</text>
								<text transform="matrix(1 0 0 1 -27.0146 33)" class="st4 st5">80%</text>
								<text transform="matrix(1 0 0 1 -32.5762 3)" class="st4 st5">100%</text>
							</g>
							<g pointer-events="none">
								<line class="st3" x1="0" y1="300" x2="0" y2="0"/>
							</g>
							<g pointer-events="none">
								<text transform="matrix(6.123234e-17 -1 1 6.123234e-17 -44.416 228.2412)" class="st7 st8">Change compared to baseline</text>
							</g>
						</g>
						<path pointer-events="none" class="st9" d="M0,0"/>
					</g>
				</g>
				<g>
					<g transform="translate(0,0)">
						<path class="st1" d="M0,0h400v300H0V0z"/>
						<g>
							<g>
								<path class="st10" d="M0,149.9l0.8,0.3l0.8,0l0.8,0.4l0.8,0.2l0.8,0.4l0.8-1.7l0.8,0.2l0.8-1l0.8,0.4l0.8,0.3l0.8-0.1
									l0.8,0.4l0.8-0.7l0.8-0.3l0.8-0.5l0.8-0.7l0.8-0.6l0.8-1l0.8-1.8l0.8-0.6l0.8-0.9l0.8,0.3l0.8-0.5l0.8-0.5l0.8-0.1l0.8-0.5
									l0.8-0.8l0.8-0.7l0.8-0.2l0.8-0.1l0.8-0.5l0.8-0.1l0.8,0.3l0.8-1l0.8-0.3l0.8-1.5l0.8-0.6l0.8-0.6l0.8-0.9l0.8-0.9l0.8-0.3
									l0.8-0.1l0.8-0.6l0.8,0.1l0.8,0.9l0.8,1.5l0.8,2.5l0.8,3.1l0.8,2.4l0.8,3.5l0.8,3.7l0.8,4l0.8,5l0.8,6.2l0.8,6.9l0.8,5.7
									l0.8,6.8l0.8,5.8l0.8,5.6l0.8,4.8l0.8,5.3l0.8,5.4l0.8,3.7l0.8,3.2l0.8,2.5l0.8,2.3l0.8,1.9l0.8,1.9l0.8,1l0.8,0l0.8-0.6
									l0.8,0l0.8-0.1l0.8,0.3l0.8,0.3l0.8-0.6l0.8-0.2l0.8,0.2l0.8-0.5l0.8-0.8l0.8-0.8l0.8-1l0.8-0.7l0.8-1.1l0.8-0.9l0.8-0.6
									l0.8-1.3l0.8-1.3l0.8-1.1l0.8-1.6l0.8-0.9l0.8-1.6l0.8-1.4l0.8-0.6l0.8-0.8l0.8-1.7l0.8-2.7l0.8-1.7l0.8-2.2l0.8-2.2
									l0.8-1.2l0.8-1.7l0.8-1.3l0.8-1.2l0.8-2.2l0.8,6.6l0.8,7.2l0.8-1.8l0.8-2l0.8-2.1l0.8-1.4l0.8-0.8l0.8-0.1l0.8-1.1l0.8-1.6
									l0.8-1.7l0.8-2.7l0.8-0.9l0.8-1.9l0.8-8.8l0.8-10l0.8-1.9l0.8-1.2l0.8-0.8l0.8-1.8l0.8-1.2l0.8-1.1l0.8,0.2l0.8,0.1l0.8-0.4
									l0.8-0.1l0.8-2.6l0.8-1l0.8-2.3l0.8-1.9l0.8-1.2l0.8-1.1l0.8-3.1l0.8-1.8l0.8-1.7l0.8-1.8l0.8-3.3l0.8-3l0.8-2.3l0.8-4.1
									l0.8-2.5l0.8-1.4l0.8-1.6l0.8-1.6l0.8-1.7l0.8-2.7l0.8-2.1l0.8-0.4l0.8-1.2l0.8-2l0.8-1.3l0.8-1.6l0.8-3.3l0.8,0.3l0.8,0.1
									l0.8-0.3l0.8-0.3l0.8,0.1l0.8,0.1l0.8-1.1l0.8,2.3l0.8-0.1l0.8-1.5l0.8-0.1l0.8-0.4l0.8-0.6l0.8,1l0.8-1.3l0.8-1.9l0.8-1.1
									l0.8-1.2l0.8-0.8l0.8-0.4l0.8,0.7l0.8-2.5l0.8-3.3l0.8-0.5l0.8-0.8l0.8-0.5l0.8-0.5l0.8-0.3l0.8-0.8l0.8-0.7l0.8,0.5
									l0.8-0.4l0.8,1.6l0.8-2l0.8-0.8l0.8-0.3l0.8,0.7l0.8-0.2l0.8-0.5l0.8-0.3l0.8,0.6l0.8,0.4l0.8-0.8l0.8,0l0.8,0.9l0.8,0.1
									l0.8-2.3l0.8,1.4l0.8-0.6l0.8-0.8l0.8-1.2l0.8,0.7l0.8,0.6l0.8,0.4l0.8-0.1l0.8-0.2l0.8,1.1l0.8,2.3l0.8-2.4l0.8,1.1
									l0.8,1.1l0.8-0.1l0.8,0.9l0.8-0.4l0.8,1l0.8-0.5l0.8,1.7l0.8,0.4l0.8,0.3l0.8,0.8l0.8-0.6l0.8-1.8l0.8,1.8l0.8-0.2l0.8-0.1
									l0.8,0.7l0.8,0.5l0.8,1.2l0.8,0.4l0.8,1.6l0.8-0.4l0.8,0.8l0.8,0.5l0.8-0.2l0.8-0.1l0.8,0.3l0.8-0.1l0.8,0.7l0.8,1l0.8,0.4
									l0.8,0.2l0.8,1l0.8,1.3l0.8,0.5l0.8,0.4l0.8,0.2l0.8,0.9l0.8,0.8l0.8,1.3l0.8,0.3l0.8,0.9l0.8,1.8l0.8,0.8l0.8,0.3l0.8,0.2
									l0.8,1.5l0.8,0.2l0.8,0.3l0.8-0.1l0.8,0.4l0.8,0.1l0.8,0.2l0.8,0.4l0.8,0.8l0.8,0.1l0.8-0.9l0.8-0.3l0.8,0.7l0.8,1.5
									l0.8-0.5l0.8,0.5l0.8,1.1l0.8,0.9l0.8,1.2l0.8,1.3l0.8,1.2l0.8,1.5l0.8,1l0.8,0.4l0.8,0.2l0.8,0.2l0.8,1.4l0.8,0.9l0.8,1.2
									l0.8,1.2l0.8,0.9l0.8,0.1l0.8-0.2l0.8-0.3l0.8,0.1l0.8,0.3l0.8,0.6l0.8,1.3l0.8,0.2l0.8-0.3l0.8-1.8l0.8,2.7l0.8,2.6
									l0.8,1.6l0.8-0.1l0.8,1.6l0.8,0.5l0.8,0.7l0.8,0.9l0.8,1.3l0.8,2.1l0.8,0.5l0.8,1.2l0.8,1.9l0.8,1.8l0.8-2.5l0.8-1.9
									l0.8-0.5l0.8,0l0.8-0.5l0.8-0.4l0.8,1.6l0.8,4.6l0.8,1.3l0.8,0l0.8,0.4l0.8-1.1l0.8-2l0.8-2.4l0.8-0.5l0.8,5.7l0.8,1.6
									l0.8,0.6l0.8-0.4l0.8,0.2l0.8-2.5l0.8-5.3l0.8,3l0.8,0.3l0.8,0.7l0.8,1.4l0.8,1.9l0.8,2.6l0.8,0.3l0.8-5l0.8-0.9l0.8,0.1
									l0.8,0.5l0.8,0.2l0.8,1l0.8,0.9l0.8-4.4l0.8-0.6l0.8-1.1l0.8,0l0.8,0.1l0.8,0.1l0.8,0.4l0.8-0.3l0.8-0.1l0.8-0.2l0.8,0.1
									l0.8,1.2l0.8,0.1l0.8-0.3l0.8,0.4l0.8-0.1l0.8,0.6l0.8,5.6l0.8,3.7l0.8,0.7l0.8-0.2l0.8-0.3l0.8-0.4l0.8,2.3l0.8,0.1
									l0.8-0.8l0.8-0.8l0.8-0.1l0.8-1.1l0.8-0.7l0.8-1.4l0.8-4.4l0.8-3.7l0.8-1.8l0.8,3.6l0.8,2.7l0.8,0.3l0.8-2.4l0.8,0.3
									l0.8-0.7l0.8-0.5l0.8-0.7l0.8-0.7l0.8-0.2l0.8,0.4l0.8-2.1l0.8-0.9l0.8-0.3l0.8-4.5l0.8-3.9l0.8-1.1l0.8-0.9l0.8-1.2
									l0.8-0.8l0.8-0.1l0.8-0.9l0.8,14.1l0.8-1.3l0.8-0.9l0.8-0.5l0.8-0.3l0.8-0.5l0.8-0.4l0.8-0.7l0.8-2l0.8-1.5l0.8-1.2l0.8-0.9
									l0.8-0.6l0.8-0.8l0.8-16.2l0.8-1.8l0.8,0.2l0.8-0.9l0.8-1.7l0.8-0.6l0.8-1l0.8,0.3l0.8,0.2l0.8,0.3l0.8-0.9l0.8-0.8l0.8-1.3
									l0.8-0.3l0.8,0.2l0.8,0.2l0.8-0.4l0.8,0l0.8-0.1l0.8-0.6l0.8,0.5l0.8-2l0.8-1.3l0.8-1l0.8,0.4l0.8-0.9l0.8,1l0.8,0.4
									l0.8-0.5l0.8-0.8l0.8-0.4l0.8-0.8l0.8,0l0.8-1l0.8-0.6l0.8,0.3l0.8-0.1l0.8-0.8l0.8-0.1l0.8,0.9l0.8-0.5l0.8-0.9l0.8-0.1
									l0.8,0.9l0.8-2.1l0.8-0.1l0.8-0.3l0.8,0.5l0.8-1.8l0.8-1.7l0.8-1.3l0.8,0.6"/>
							</g>
						</g>
						<path class="st11" d="M0,0"/>
					</g>
					<g transform="translate(0,0)">
						<path class="st1" d="M0,0h400v300H0V0z"/>
						<g>
							<g>
								<path class="st12" d="M0,163.6l0.8,0.6l0.8,0.1l0.8,0.4l0.8,0.1l0.8-0.2l0.8-1.2l0.8,0.6l0.8-1.1l0.8,0.7l0.8,0.8l0.8,1.1
									l0.8,0.9l0.8-0.7l0.8-0.1l0.8,0.2l0.8-0.2l0.8-0.6l0.8-0.6l0.8-0.2l0.8,0.3l0.8-0.6l0.8,0.4l0.8-0.8l0.8-0.7l0.8-0.8
									l0.8-0.3l0.8-0.4l0.8-0.1l0.8-0.2l0.8,0.1l0.8,0.2l0.8,0.5l0.8-0.2l0.8-0.8l0.8,0.2l0.8-0.8l0.8,0.7l0.8,0.2l0.8,0.2
									l0.8,0.3l0.8-0.1l0.8-0.2l0.8,0l0.8,0.4l0.8,0.8l0.8,1.6l0.8,2.7l0.8,3l0.8,2.3l0.8,4.3l0.8,4.9l0.8,5.5l0.8,5.5l0.8,6.2
									l0.8,7l0.8,5.3l0.8,7l0.8,6.5l0.8,6.6l0.8,5.2l0.8,5l0.8,4.7l0.8,3.1l0.8,3l0.8,2.4l0.8,2.1l0.8,2.1l0.8,1.6l0.8,1l0.8,0.5
									l0.8,0.2l0.8,0.6l0.8,0.3l0.8,0.6L63,264l0.8,0.1l0.8,0.3l0.8,0.5l0.8,0.1l0.8,0.3l0.8,0.1l0.8,0.1l0.8,0.2l0.8-0.1l0.8,0
									l0.8-0.1l0.8-0.2l0.8-0.2l0.8,0l0.8-0.2l0.8-0.1l0.8-0.5l0.8-0.3l0.8-0.3l0.8-0.3l0.8-0.5l0.8-0.7l0.8-0.5l0.8-0.8l0.8-0.8
									l0.8-0.6l0.8-0.7l0.8-0.4l0.8-0.4l0.8-0.3l0.8,0l0.8,0.5l0.8-0.6l0.8-0.8l0.8-0.7l0.8-0.6l0.8-0.4l0.8-0.1l0.8-0.4l0.8-0.5
									l0.8-0.6l0.8-1l0.8-0.5l0.8-0.9l0.8-0.9l0.8-1.9l0.8-0.9l0.8-0.6l0.8-0.6l0.8-0.8l0.8-0.4l0.8-0.6l0.8-0.1l0.8-0.1l0.8-0.4
									l0.8-0.4l0.8-1l0.8-0.8l0.8-1.4l0.8-1l0.8-0.8l0.8-0.8l0.8-1.3l0.8-1l0.8-1l0.8-1.2l0.8-1.7l0.8-1.6l0.8-1.4l0.8-1.9
									l0.8-1.1l0.8-0.7l0.8-1.1l0.8-1l0.8-1.3l0.8-1.5l0.8-1.2l0.8-0.6l0.8-0.8l0.8-1.2l0.8-1l0.8-1.1l0.8-1.3l0.8-0.1l0.8-0.8
									l0.8-0.8l0.8-0.1l0.8-0.4l0.8-0.3l0.8-0.8l0.8,1.2l0.8-0.6l0.8-1.1l0.8-0.3l0.8-0.5l0.8-0.5l0.8,0l0.8-0.9l0.8-1.2l0.8-0.5
									l0.8-0.7l0.8-0.3l0.8,0.1l0.8,0.4l0.8-1.8l0.8-1.2l0.8-0.1l0.8-0.3l0.8-0.3l0.8-0.6l0.8-0.4l0.8-0.5l0.8,0l0.8,0.2l0.8-0.4
									l0.8,0.6l0.8-1.8l0.8-0.6l0.8,0l0.8,0.1l0.8-0.1l0.8-0.4l0.8-0.1l0.8,0.3l0.8,0.2l0.8-0.7l0.8-0.5l0.8,0.1l0.8-0.4l0.8-1.6
									l0.8,0.7l0.8-0.6l0.8-1l0.8-0.1l0.8,0l0.8-0.2l0.8-0.2l0.8-0.4l0.8-0.2l0.8,0.4l0.8,1.1l0.8-1l0.8,0.7l0.8,1l0.8,0.5
									l0.8,0.5l0.8,0.5l0.8,0.3l0.8,0.3l0.8,1.3l0.8,0.1l0.8,0.3l0.8,0.3l0.8,0.1l0.8-0.6l0.8,0.7l0.8-0.2l0.8-0.1l0.8-0.1
									l0.8,0.2l0.8,0.4l0.8,0l0.8,0.3l0.8-0.4l0.8,0.6l0.8,0.5l0.8,0l0.8-0.1l0.8,0l0.8,0l0.8,0.3l0.8,0.4l0.8-0.1l0.8-0.1
									l0.8-0.1l0.8,0l0.8-0.1l0.8-0.3l0.8-0.3l0.8-0.1l0.8-0.2l0.8-0.3l0.8-0.3l0.8,0.1l0.8,1.2l0.8,0l0.8-0.3l0.8,0l0.8,0.9
									l0.8-0.1l0.8,0l0.8-0.1l0.8-0.1l0.8-0.3l0.8-0.2l0.8,0.1l0.8,0.2l0.8,0l0.8-1.1l0.8-0.4l0.8,0.6l0.8,0.9l0.8-0.6l0.8-0.4
									l0.8,0.4l0.8,0.5l0.8,0.9l0.8,0.6l0.8,0.2l0.8,0.2l0.8,0l0.8-0.4l0.8-0.3l0.8-0.4l0.8,0.3l0.8-0.2l0.8,0.1l0.8,0.5l0.8-0.1
									l0.8-0.4l0.8-0.5l0.8-0.1l0.8,0.3l0.8,0.1l0.8-0.2l0.8,0.4l0.8,0.3l0.8,0.5l0.8,0l0.8,2l0.8,1l0.8,0.8l0.8,0l0.8,1l0.8,0.2
									l0.8,0.1l0.8,0.1l0.8,0.6l0.8,1.5l0.8,0.3l0.8,0.2l0.8,0.5l0.8,0l0.8-2.1l0.8-1l0.8-0.3l0.8-0.2l0.8-0.3l0.8,0.2l0.8,1
									l0.8,1l0.8,0l0.8-0.5l0.8-0.1l0.8-0.5l0.8-0.8l0.8-0.5l0.8,1.5l0.8,3.6l0.8,1l0.8,0.4l0.8-0.6l0.8-0.2l0.8-1l0.8,0.3
									l0.8,2.9l0.8,0.9l0.8,0.8l0.8,0.7l0.8,1l0.8,0.8l0.8-1.3l0.8-3l0.8-0.4l0.8,0.2l0.8,0.6l0.8,0.2l0.8,0l0.8-1.2l0.8-2.6
									l0.8-0.7l0.8-0.6l0.8,0.4l0.8-0.4l0.8-0.2l0.8-0.1l0.8-0.3l0.8,0l0.8,0l0.8-0.1l0.8,0.5l0.8,0l0.8,0.1l0.8,0.4l0.8,0.4
									l0.8,0.8l0.8,0.8l0.8,0.7l0.8-0.5l0.8-0.4l0.8-0.3l0.8-0.3l0.8,0.4l0.8-0.3l0.8-0.5l0.8-0.3l0.8-0.8l0.8-1.4l0.8-1l0.8-1.4
									l0.8-0.6l0.8-0.9l0.8-0.1l0.8,1.5l0.8,0.6l0.8-0.2l0.8-0.8l0.8,0.2l0.8-0.6l0.8-0.7l0.8-0.2l0.8,0l0.8,0.3l0.8,0.3l0.8-1.2
									l0.8-0.1l0.8-0.4l0.8-1.8l0.8-1.1l0.8-0.4l0.8-0.3l0.8-0.4l0.8-0.3l0.8-0.1l0.8-0.4l0.8,7.9l0.8-0.8l0.8-0.1l0.8,0l0.8-0.2
									l0.8,0.1l0.8,0.2l0.8-0.2l0.8-0.6l0.8-0.6l0.8-1l0.8-0.5l0.8,0.1l0.8-0.5l0.8-9.1l0.8-0.8l0.8-0.1l0.8-0.8l0.8-1.2l0.8-0.5
									l0.8-0.8l0.8,0.1l0.8-0.3l0.8-0.1l0.8-0.2l0.8-0.5l0.8-1.1l0.8-0.3l0.8-0.1l0.8,0l0.8-0.1l0.8,0l0.8-0.4l0.8-0.5l0.8,0.3
									l0.8-1l0.8-0.9l0.8-0.9l0.8-0.2l0.8-0.7l0.8,0.5l0.8,0.4l0.8-0.5l0.8-1l0.8-0.7l0.8-0.5l0.8,0.2l0.8-0.8l0.8-0.6l0.8-0.6
									l0.8-0.1l0.8-0.1l0.8,0l0.8,0.5l0.8-0.2l0.8-0.7l0.8-0.1l0.8,0.9l0.8,0l0.8-0.1l0.8-0.4l0.8,0.1l0.8-1.5l0.8-0.5l0.8-0.4
									l0.8,0.1"/>
							</g>
						</g>
						<path class="st13" d="M0,0"/>
					</g>
					<g transform="translate(0,0)">
						<path class="st1" d="M0,0h400v300H0V0z"/>
						<g>
							<g>
								<path class="st14" d="M0,156l0.8,0.4l0.8,0.3l0.8,0.8l0.8,0.4l0.8-0.6l0.8-2.5l0.8,0.1l0.8-2l0.8-0.2l0.8,0.4l0.8,0.7
									l0.8,1.6l0.8-0.8l0.8-0.5l0.8,0.4l0.8-0.2l0.8-0.8l0.8-0.6l0.8-0.7l0.8,0.7l0.8-0.4l0.8,0.6l0.8-0.3l0.8-1l0.8-0.5l0.8-0.7
									l0.8-1.2l0.8-0.5l0.8-1l0.8,0l0.8-0.2l0.8,0.2l0.8,0l0.8-1.1l0.8-0.2l0.8-1.4l0.8-0.1l0.8-0.5l0.8-1.1l0.8-0.4l0.8,0
									l0.8-0.5l0.8-1.1L37,141l0.8-0.1l0.8,0.4l0.8,1.2l0.8,1.8l0.8,1.3L42,149l0.8,3.3l0.8,4.1l0.8,4.2l0.8,4.4l0.8,6.3l0.8,5.1
									l0.8,7.5l0.8,5.7l0.8,6.4l0.8,4.5l0.8,5.1l0.8,5.8l0.8,3.7l0.8,3.1l0.8,2.5l0.8,2.3l0.8,1.9l0.8,2.4l0.8,1l0.8,0l0.8-1
									l0.8,0l0.8-0.2l0.8,0.8l0.8,0.9l0.8-0.7l0.8-0.2l0.8,0.6l0.8-0.4l0.8-0.1l0.8-0.2l0.8-0.7l0.8,0l0.8-0.8l0.8-0.5l0.8,0.1
									l0.8-0.9l0.8-1.2l0.8-0.7l0.8-1.3l0.8-0.3l0.8-1.5l0.8-1.3L79,218l0.8-0.3l0.8-1.2l0.8-2.7l0.8-1.4l0.8-1.5l0.8-2.3l0.8-0.7
									l0.8-1.6l0.8-1.1l0.8-0.8l0.8-2l0.8-0.1l0.8,1.4l0.8-1.2l0.8-2.2l0.8-2.4l0.8-1.4l0.8-0.8l0.8-0.6l0.8-1.3l0.8-2.2l0.8-1.7
									l0.8-3.3l0.8-0.9l0.8-2.1l0.8-2.6l0.8-4.4l0.8-2.3l0.8-1.2l0.8-0.5l0.8-1.6l0.8-0.9l0.8-1.2l0.8,0.4l0.8,0.5l0.8-0.2
									l0.8,0.7l0.8-2.3l0.8-1l0.8-2l0.8-1.6l0.8-1.3l0.8-0.7l0.8-2.8l0.8-1.5l0.8-1.5l0.8-1.6l0.8-3.2l0.8-3l0.8-2.3l0.8-4.7
									l0.8-3l0.8-1.1l0.8-1.3l0.8-1.7l0.8-1.4l0.8-2.6l0.8-1.8l0.8-0.1l0.8-0.7l0.8-1.5l0.8-0.7l0.8-1l0.8-2l0.8,1.3l0.8-0.9
									l0.8,0.1l0.8,0.5l0.8,0.8l0.8,0.2l0.8-1l0.8,3.6l0.8,0.2l0.8-1.3l0.8,0.2l0.8-0.5l0.8-0.4l0.8,0.7l0.8-0.9l0.8-0.2l0.8-0.3
									l0.8-0.9l0.8-0.1l0.8,0.7l0.8,0.9l0.8-3.1l0.8-3.1l0.8,0.4l0.8,0l0.8,0.1l0.8-0.5l0.8,0l0.8-0.5l0.8-0.4l0.8,0.3l0.8-0.4
									l0.8,1.7l0.8-2.4l0.8-0.3l0.8,0.4l0.8,0.4l0.8-0.2l0.8-0.7l0.8-0.4l0.8,0.6l0.8,0.3l0.8-0.7l0.8-0.1l0.8,1.1l0.8-0.3
									l0.8-2.9l0.8,1.5l0.8-0.5l0.8-1.6l0.8-0.2l0.8-0.1l0.8-0.2l0.8,0.3l0.8-0.7l0.8,0l0.8,0.6l0.8,2l0.8-3.1l0.8,0.2l0.8,0.6
									l0.8-0.4l0.8,0.7l0.8-0.3l0.8,0.1l0.8-0.7l0.8,2l0.8,0l0.8,0.2l0.8,0.5l0.8-0.9l0.8-2.1l0.8,1.7l0.8,0.1l0.8,0.2l0.8,0.4
									l0.8-0.1l0.8,1l0.8,0.6l0.8,1.5l0.8-0.7l0.8,0.5l0.8,0.4l0.8-0.8l0.8,0.1l0.8,0.5l0.8-0.2l0.8,0.3l0.8,0.9l0.8,0l0.8,0.3
									l0.8,0.7l0.8,1.2l0.8,0.2l0.8,0.3l0.8-0.2l0.8,0.9l0.8,0.9l0.8,1l0.8,0.7l0.8,0.8l0.8,3l0.8,0.9l0.8,0.1l0.8,0.2l0.8,2.2
									l0.8,0.1l0.8,0.6l0.8,0.2l0.8,0.7l0.8-0.3l0.8,0.1l0.8-0.1l0.8,0.3l0.8,0.5l0.8-2.3l0.8-1.2l0.8,0.5l0.8,1.8l0.8-1.1
									l0.8-1.5l0.8,0.5l0.8,0.3l0.8-1.3l0.8,1l0.8,0.3l0.8,1.2l0.8,0.3l0.8-0.5l0.8-0.1l0.8-0.1l0.8,1.2l0.8,0.5l0.8,1.1l0.8,2.3
									l0.8,0.8l0.8,0.3l0.8,2.4l0.8,0.7l0.8,0.9l0.8,0.1l0.8,0.7l0.8,1.2l0.8,1l0.8,0.9l0.8-1.4l0.8,1.3l0.8,1.8l0.8,1.3l0.8-0.3
									l0.8,1.4l0.8,0l0.8-0.1l0.8,0.2l0.8,1.2l0.8,1.9l0.8,0.3l0.8,0.5l0.8,1.1l0.8,2l0.8-1.8l0.8-2.1l0.8-0.5l0.8-0.2l0.8-0.4
									l0.8-0.3l0.8,1.7l0.8,3.2l0.8,0.6l0.8-0.7l0.8,0l0.8-1.3l0.8-1.7l0.8-2.6l0.8-0.3l0.8,5.2l0.8,2.1l0.8,1l0.8-1.1l0.8,0.2
									l0.8-2.2l0.8-4.3l0.8,3.3l0.8,1.1l0.8,1l0.8,1l0.8,1.3l0.8,2.1l0.8,0.2l0.8-4.2l0.8-0.9l0.8-0.5l0.8,0.5l0.8-0.1l0.8,0.5
									l0.8,0.8l0.8-3.6l0.8-0.6l0.8-0.9l0.8,1l0.8,0.4l0.8,0.3l0.8,0.3l0.8-0.5l0.8,0l0.8,0.6l0.8,0.6l0.8,1.2l0.8,0.2l0.8,0.7
									l0.8,0.7l0.8,0.3l0.8,0.8l0.8,3.7l0.8,2.3l0.8-0.3l0.8-0.5l0.8-0.6l0.8-1l0.8,0.5l0.8-0.6l0.8-0.9l0.8-0.6l0.8-0.8l0.8-1.8
									l0.8-1l0.8-2.1l0.8-2.7l0.8-2.1l0.8-0.9l0.8,3.3l0.8,2.7l0.8,0.8l0.8-0.9l0.8,0.8l0.8-0.9l0.8-1.1l0.8-0.8l0.8-0.4l0.8,0.2
									l0.8,0.8l0.8-2.5l0.8-1.2l0.8-0.8l0.8-3.7l0.8-3l0.8-0.8l0.8-0.7l0.8-1.2l0.8-1.1l0.8-0.1l0.8-1l0.8,13.1l0.8-1.6l0.8-0.3
									l0.8-0.2l0.8-0.1l0.8-0.1l0.8,0.3l0.8-1l0.8-2.9l0.8-2.1l0.8-1.9l0.8-1l0.8,0.1l0.8-0.9l0.8-15.3l0.8-1.8l0.8-0.5l0.8-1.2
									l0.8-2.1l0.8-0.4l0.8-1.8l0.8,0.5l0.8,0.3l0.8,0.8l0.8-0.2l0.8-0.4l0.8-1.7l0.8-0.2l0.8,0.5l0.8,0.1l0.8-0.2l0.8,0.4
									l0.8-0.5l0.8-0.8l0.8,1.2l0.8-2l0.8-0.8l0.8-1.2l0.8,0.2l0.8-0.8l0.8,1.6l0.8,1.6l0.8-0.4l0.8-0.2l0.8-0.2l0.8-0.7l0.8,0.3
									l0.8-1.1l0.8-0.9l0.8,0.2l0.8-0.4l0.8-0.6l0.8,0.2l0.8,0.9l0.8-0.6l0.8-2l0.8-0.3l0.8,0.7l0.8-1l0.8-0.2l0.8-0.1l0.8,0.1
									l0.8-2.6l0.8-1.4l0.8-0.9l0.8,0.4"/>
							</g>
						</g>
						<path class="st15" d="M0,0"/>
					</g>
				</g>
				<g>
					<g transform="translate(420,0)">
						<path pointer-events="none" class="st1" d="M0,0h123v53H0V0z"/>
						<g>
							<g>
								<g transform="translate(0,16)">
									<path pointer-events="none" class="st1" d="M0,0L0,0L0,0L0,0z"/>
									<g>
										<g>
											<g transform="translate(0,0)">
												<path pointer-events="none" class="st1" d="M0,0h51.2v11H0V0z"/>
												<g>
													<g pointer-events="none">
														<path class="st16" d="M1,6h10"/>
													</g>
													<g pointer-events="none">
														<text transform="matrix(1 0 0 1 16 9)" class="st4 st5">Driving</text>
													</g>
												</g>
												<path pointer-events="none" class="st9" d="M0,0"/>
											</g>
											<g transform="translate(0,13)">
												<path pointer-events="none" class="st1" d="M0,0h51.2v11H0V0z"/>
												<g>
													<g pointer-events="none">
														<path class="st17" d="M1,6h10"/>
													</g>
													<g pointer-events="none">
														<text transform="matrix(1 0 0 1 16 9)" class="st4 st5">Transit</text>
													</g>
												</g>
												<path pointer-events="none" class="st9" d="M0,0"/>
											</g>
											<g transform="translate(0,26)">
												<path pointer-events="none" class="st1" d="M0,0h51.2v11H0V0z"/>
												<g>
													<g pointer-events="none">
														<path class="st18" d="M1,6h10"/>
													</g>
													<g pointer-events="none">
														<text transform="matrix(1 0 0 1 16 9)" class="st4 st5">Walking</text>
													</g>
												</g>
												<path pointer-events="none" class="st9" d="M0,0"/>
											</g>
										</g>
									</g>
									<path pointer-events="none" class="st9" d="M0,0"/>
								</g>
							</g>
							<g pointer-events="none">
								<text transform="matrix(1 0 0 1 0 9)" class="st7 st8">Mode of Transportation</text>
							</g>
						</g>
						<path pointer-events="none" class="st9" d="M0,0"/>
					</g>
				</g>
				<g>
					<g transform="translate(200,-29)">
						<path pointer-events="none" class="st1" d="M0,0L0,0L0,0L0,0z"/>
						<g>
							<g pointer-events="none">
								<text transform="matrix(1 0 0 1 -49.4482 16)" class="st7 st19">The Bronx</text>
							</g>
						</g>
						<path pointer-events="none" class="st9" d="M0,0"/>
					</g>
				</g>
			</g>
			<path class="st9" d="M0,0"/>
		</g>
	</g>
</g>
<path pointer-events="none" class="st1" d="M499.9-296L499.9-296L499.9-296L499.9-296z"/>
<path pointer-events="none" class="st1" d="M499.9-296h51.2v11h-51.2V-296z"/>
<g>
	<g pointer-events="none">
		<path class="st16" d="M500.9-290h10"/>
	</g>
	<g pointer-events="none">
		<text transform="matrix(1 0 0 1 515.8525 -287)" class="st4 st5">Driving</text>
	</g>
</g>
<g>
	<g pointer-events="none">
		<path class="st17" d="M560.9-290h10"/>
	</g>
	<g pointer-events="none">
		<text transform="matrix(1 0 0 1 575.8525 -287)" class="st4 st5">Transit</text>
	</g>
</g>
<g>
	<g pointer-events="none">
		<path class="st18" d="M620.9-290h10"/>
	</g>
	<g pointer-events="none">
		<text transform="matrix(1 0 0 1 635.8525 -287)" class="st4 st5">Walking</text>
	</g>
</g>
<g pointer-events="none">
	<text transform="matrix(1 0 0 1 526.8525 -303)" class="st7 st8">Mode of Transportation</text>
</g>
</svg>
