<svg xmlns="http://www.w3.org/2000/svg" xmlns:xlink="http://www.w3.org/1999/xlink" version="1.1" class="marks" width="607" height="371" viewBox="0 0 607 371"><rect width="607" height="371" fill="white"/><g fill="none" stroke-miterlimit="10" transform="translate(59,34)"><g class="mark-group role-frame root" role="graphics-object" aria-roledescription="group mark container"><g transform="translate(0,0)"><path class="background" aria-hidden="true" d="M0.5,0.5h400v300h-400Z" stroke="#ddd"/><g><g class="mark-group role-axis" role="graphics-symbol" aria-roledescription="axis" aria-label="X-axis for a time scale with values from Saturday, 25 January 2020, 7:00:00 PM to Saturday, 15 May 2021, 8:00:00 PM"><g transform="translate(0.5,300.5)"><path class="background" aria-hidden="true" d="M0,0h0v0h0Z" pointer-events="none"/><g><g class="mark-rule role-axis-grid" pointer-events="none"><line transform="translate(5,-300)" x2="0" y2="300" stroke="#ddd" stroke-width="1" opacity="1"/><line transform="translate(30,-300)" x2="0" y2="300" stroke="#ddd" stroke-width="1" opacity="1"/><line transform="translate(56,-300)" x2="0" y2="300" stroke="#ddd" stroke-width="1" opacity="1"/><line transform="translate(81,-300)" x2="0" y2="300" stroke="#ddd" stroke-width="1" opacity="1"/><line transform="translate(107,-300)" x2="0" y2="300" stroke="#ddd" stroke-width="1" opacity="1"/><line transform="translate(132,-300)" x2="0" y2="300" stroke="#ddd" stroke-width="1" opacity="1"/><line transform="translate(158,-300)" x2="0" y2="300" stroke="#ddd" stroke-width="1" opacity="1"/><line transform="translate(184,-300)" x2="0" y2="300" stroke="#ddd" stroke-width="1" opacity="1"/><line transform="translate(209,-300)" x2="0" y2="300" stroke="#ddd" stroke-width="1" opacity="1"/><line transform="translate(235,-300)" x2="0" y2="300" stroke="#ddd" stroke-width="1" opacity="1"/><line transform="translate(261,-300)" x2="0" y2="300" stroke="#ddd" stroke-width="1" opacity="1"/><line transform="translate(287,-300)" x2="0" y2="300" stroke="#ddd" stroke-width="1" opacity="1"/><line transform="translate(313,-300)" x2="0" y2="300" stroke="#ddd" stroke-width="1" opacity="1"/><line transform="translate(336,-300)" x2="0" y2="300" stroke="#ddd" stroke-width="1" opacity="1"/><line transform="translate(362,-300)" x2="0" y2="300" stroke="#ddd" stroke-width="1" opacity="1"/><line transform="translate(388,-300)" x2="0" y2="300" stroke="#ddd" stroke-width="1" opacity="1"/></g></g><path class="foreground" aria-hidden="true" d="" pointer-events="none" display="none"/></g></g><g class="mark-group role-axis" role="graphics-symbol" aria-roledescription="axis" aria-label="Y-axis for a linear scale with values from −1.0 to 1.0"><g transform="translate(0.5,0.5)"><path class="background" aria-hidden="true" d="M0,0h0v0h0Z" pointer-events="none"/><g><g class="mark-rule role-axis-grid" pointer-events="none"><line transform="translate(0,300)" x2="400" y2="0" stroke="#ddd" stroke-width="1" opacity="1"/><line transform="translate(0,270)" x2="400" y2="0" stroke="#ddd" stroke-width="1" opacity="1"/><line transform="translate(0,240)" x2="400" y2="0" stroke="#ddd" stroke-width="1" opacity="1"/><line transform="translate(0,210)" x2="400" y2="0" stroke="#ddd" stroke-width="1" opacity="1"/><line transform="translate(0,180)" x2="400" y2="0" stroke="#ddd" stroke-width="1" opacity="1"/><line transform="translate(0,150)" x2="400" y2="0" stroke="#ddd" stroke-width="1" opacity="1"/><line transform="translate(0,120)" x2="400" y2="0" stroke="#ddd" stroke-width="1" opacity="1"/><line transform="translate(0,90)" x2="400" y2="0" stroke="#ddd" stroke-width="1" opacity="1"/><line transform="translate(0,60)" x2="400" y2="0" stroke="#ddd" stroke-width="1" opacity="1"/><line transform="translate(0,30)" x2="400" y2="0" stroke="#ddd" stroke-width="1" opacity="1"/><line transform="translate(0,0)" x2="400" y2="0" stroke="#ddd" stroke-width="1" opacity="1"/></g></g><path class="foreground" aria-hidden="true" d="" pointer-events="none" display="none"/></g></g><g class="mark-group role-axis" role="graphics-symbol" aria-roledescription="axis" aria-label="X-axis titled 'Month' for a time scale with values from Saturday, 25 January 2020, 7:00:00 PM to Saturday, 15 May 2021, 8:00:00 PM"><g transform="translate(0.5,300.5)"><path class="background" aria-hidden="true" d="M0,0h0v0h0Z" pointer-events="none"/><g><g class="mark-rule role-axis-tick" pointer-events="none"><line transform="translate(5,0)" x2="0" y2="5" stroke="#888" stroke-width="1" opacity="1"/><line transform="translate(30,0)" x2="0" y2="5" stroke="#888" stroke-width="1" opacity="1"/><line transform="translate(56,0)" x2="0" y2="5" stroke="#888" stroke-width="1" opacity="1"/><line transform="translate(81,0)" x2="0" y2="5" stroke="#888" stroke-width="1" opacity="1"/><line transform="translate(107,0)" x2="0" y2="5" stroke="#888" stroke-width="1" opacity="1"/><line transform="translate(132,0)" x2="0" y2="5" stroke="#888" stroke-width="1" opacity="1"/><line transform="translate(158,0)" x2="0" y2="5" stroke="#888" stroke-width="1" opacity="1"/><line transform="translate(184,0)" x2="0" y2="5" stroke="#888" stroke-width="1" opacity="1"/><line transform="translate(209,0)" x2="0" y2="5" stroke="#888" stroke-width="1" opacity="1"/><line transform="translate(235,0)" x2="0" y2="5" stroke="#888" stroke-width="1" opacity="1"/><line transform="translate(261,0)" x2="0" y2="5" stroke="#888" stroke-width="1" opacity="1"/><line transform="translate(287,0)" x2="0" y2="5" stroke="#888" stroke-width="1" opacity="1"/><line transform="translate(313,0)" x2="0" y2="5" stroke="#888" stroke-width="1" opacity="1"/><line transform="translate(336,0)" x2="0" y2="5" stroke="#888" stroke-width="1" opacity="1"/><line transform="translate(362,0)" x2="0" y2="5" stroke="#888" stroke-width="1" opacity="1"/><line transform="translate(388,0)" x2="0" y2="5" stroke="#888" stroke-width="1" opacity="1"/></g><g class="mark-text role-axis-label" pointer-events="none"><text text-anchor="middle" transform="translate(5.217086834733894,15)" font-family="sans-serif" font-size="10px" fill="#000" opacity="1">February</text><text text-anchor="middle" transform="translate(29.586834733893557,15)" font-family="sans-serif" font-size="10px" fill="#000" opacity="0">March</text><text text-anchor="middle" transform="translate(55.602240896358545,15)" font-family="sans-serif" font-size="10px" fill="#000" opacity="1">April</text><text text-anchor="middle" transform="translate(80.812324929972,15)" font-family="sans-serif" font-size="10px" fill="#000" opacity="0">May</text><text text-anchor="middle" transform="translate(106.86274509803921,15)" font-family="sans-serif" font-size="10px" fill="#000" opacity="1">June</text><text text-anchor="middle" transform="translate(132.07282913165267,15)" font-family="sans-serif" font-size="10px" fill="#000" opacity="0">July</text><text text-anchor="middle" transform="translate(158.12324929971987,15)" font-family="sans-serif" font-size="10px" fill="#000" opacity="1">August</text><text text-anchor="middle" transform="translate(184.1736694677871,15)" font-family="sans-serif" font-size="10px" fill="#000" opacity="0">September</text><text text-anchor="middle" transform="translate(209.38375350140058,15)" font-family="sans-serif" font-size="10px" fill="#000" opacity="1">October</text><text text-anchor="middle" transform="translate(235.43417366946778,15)" font-family="sans-serif" font-size="10px" fill="#000" opacity="0">November</text><text text-anchor="middle" transform="translate(260.6792717086835,15)" font-family="sans-serif" font-size="10px" fill="#000" opacity="1">December</text><text text-anchor="middle" transform="translate(286.7296918767507,15)" font-family="sans-serif" font-size="10px" fill="#000" opacity="0">2021</text><text text-anchor="middle" transform="translate(312.78011204481794,15)" font-family="sans-serif" font-size="10px" fill="#000" opacity="1">February</text><text text-anchor="middle" transform="translate(336.3095238095238,15)" font-family="sans-serif" font-size="10px" fill="#000" opacity="0">March</text><text text-anchor="middle" transform="translate(362.3249299719888,15)" font-family="sans-serif" font-size="10px" fill="#000" opacity="1">April</text><text text-anchor="middle" transform="translate(387.53501400560225,15)" font-family="sans-serif" font-size="10px" fill="#000" opacity="0">May</text></g><g class="mark-rule role-axis-domain" pointer-events="none"><line transform="translate(0,0)" x2="400" y2="0" stroke="#888" stroke-width="1" opacity="1"/></g><g class="mark-text role-axis-title" pointer-events="none"><text text-anchor="middle" transform="translate(200,30)" font-family="sans-serif" font-size="11px" font-weight="bold" fill="#000" opacity="1">Month</text></g></g><path class="foreground" aria-hidden="true" d="" pointer-events="none" display="none"/></g></g><g class="mark-group role-axis" role="graphics-symbol" aria-roledescription="axis" aria-label="Y-axis titled 'Change compared to baseline' for a linear scale with values from −100% to 100%"><g transform="translate(0.5,0.5)"><path class="background" aria-hidden="true" d="M0,0h0v0h0Z" pointer-events="none"/><g><g class="mark-rule role-axis-tick" pointer-events="none"><line transform="translate(0,300)" x2="-5" y2="0" stroke="#888" stroke-width="1" opacity="1"/><line transform="translate(0,270)" x2="-5" y2="0" stroke="#888" stroke-width="1" opacity="1"/><line transform="translate(0,240)" x2="-5" y2="0" stroke="#888" stroke-width="1" opacity="1"/><line transform="translate(0,210)" x2="-5" y2="0" stroke="#888" stroke-width="1" opacity="1"/><line transform="translate(0,180)" x2="-5" y2="0" stroke="#888" stroke-width="1" opacity="1"/><line transform="translate(0,150)" x2="-5" y2="0" stroke="#888" stroke-width="1" opacity="1"/><line transform="translate(0,120)" x2="-5" y2="0" stroke="#888" stroke-width="1" opacity="1"/><line transform="translate(0,90)" x2="-5" y2="0" stroke="#888" stroke-width="1" opacity="1"/><line transform="translate(0,60)" x2="-5" y2="0" stroke="#888" stroke-width="1" opacity="1"/><line transform="translate(0,30)" x2="-5" y2="0" stroke="#888" stroke-width="1" opacity="1"/><line transform="translate(0,0)" x2="-5" y2="0" stroke="#888" stroke-width="1" opacity="1"/></g><g class="mark-text role-axis-label" pointer-events="none"><text text-anchor="end" transform="translate(-7,303)" font-family="sans-serif" font-size="10px" fill="#000" opacity="1">−100%</text><text text-anchor="end" transform="translate(-7,273)" font-family="sans-serif" font-size="10px" fill="#000" opacity="1">−80%</text><text text-anchor="end" transform="translate(-7,243)" font-family="sans-serif" font-size="10px" fill="#000" opacity="1">−60%</text><text text-anchor="end" transform="translate(-7,213)" font-family="sans-serif" font-size="10px" fill="#000" opacity="1">−40%</text><text text-anchor="end" transform="translate(-7,183)" font-family="sans-serif" font-size="10px" fill="#000" opacity="1">−20%</text><text text-anchor="end" transform="translate(-7,153)" font-family="sans-serif" font-size="10px" fill="#000" opacity="1">0%</text><text text-anchor="end" transform="translate(-7,123)" font-family="sans-serif" font-size="10px" fill="#000" opacity="1">20%</text><text text-anchor="end" transform="translate(-7,93.00000000000001)" font-family="sans-serif" font-size="10px" fill="#000" opacity="1">40%</text><text text-anchor="end" transform="translate(-7,62.999999999999986)" font-family="sans-serif" font-size="10px" fill="#000" opacity="1">60%</text><text text-anchor="end" transform="translate(-7,32.99999999999999)" font-family="sans-serif" font-size="10px" fill="#000" opacity="1">80%</text><text text-anchor="end" transform="translate(-7,3)" font-family="sans-serif" font-size="10px" fill="#000" opacity="1">100%</text></g><g class="mark-rule role-axis-domain" pointer-events="none"><line transform="translate(0,300)" x2="0" y2="-300" stroke="#888" stroke-width="1" opacity="1"/></g><g class="mark-text role-axis-title" pointer-events="none"><text text-anchor="middle" transform="translate(-42.416015625,150) rotate(-90) translate(0,-2)" font-family="sans-serif" font-size="11px" font-weight="bold" fill="#000" opacity="1">Change compared to baseline</text></g></g><path class="foreground" aria-hidden="true" d="" pointer-events="none" display="none"/></g></g><g class="mark-group role-scope pathgroup" role="graphics-object" aria-roledescription="group mark container"><g transform="translate(0,0)"><path class="background" aria-hidden="true" d="M0,0h400v300h-400Z"/><g><g class="mark-line role-mark marks" role="graphics-symbol" aria-roledescription="line mark container"><path d="M0,140.50928564999998L0.8403361344537815,140.93142855000002L1.680672268907563,141.43178565L2.5210084033613445,141.84214289999997L3.361344537815126,142.39071435000002L4.201680672268908,142.75821435L5.042016806722689,141.19071434999998L5.88235294117647,141.73071435L6.722689075630252,141.87321435L7.563025210084033,141.9396429L8.403361344537815,142.25785710000005L9.243697478991598,142.24178565000003L10.084033613445378,142.45285710000002L10.92436974789916,140.98392855L11.76470588235294,140.16214289999996L12.605042016806722,139.49142855000002L13.445378151260504,138.85928564999998L14.285714285714285,138.23464289999995L15.126050420168067,137.05821435L15.966386554621847,134.97107144999998L16.80672268907563,134.4525L17.647058823529413,132.9728571L18.487394957983195,132.07500000000002L19.327731092436977,131.48571435L20.168067226890756,130.62642855000004L21.008403361344538,130.5075L21.84873949579832,130.17642855000003L22.689075630252102,130.00607145L23.52941176470588,129.69107144999998L24.369747899159663,129.67071435L25.210084033613445,129.63321434999997L26.05042016806723,129.54321435L26.89075630252101,129.95142855L27.73109243697479,131.11928565L28.57142857142857,130.4025L29.411764705882355,130.70678565000003L30.252100840336134,130.84178564999996L31.092436974789916,130.4775L31.932773109243694,130.06392855L32.773109243697476,129.19071434999998L33.61344537815126,128.27678565L34.45378151260504,127.54928564999999L35.294117647058826,127.42285710000004L36.134453781512605,126.76071435000001L36.97478991596639,126.75749999999998L37.81512605042017,126.99107144999999L38.655462184873954,128.00035710000003L39.49579831932773,130.06821435L40.33613445378151,134.0625L41.17647058823529,137.6025L42.016806722689076,140.61107145L42.857142857142854,144.55392855000002L43.69747899159664,149.33785709999998L44.537815126050425,154.875L45.378151260504204,161.52214285499997L46.21848739495798,170.528571435L47.05882352941176,177.78428571000003L47.89915966386555,184.95964285499997L48.739495798319325,190.95000000000002L49.57983193277311,197.24571428999997L50.42016806722689,202.854642855L51.26050420168067,209.05178571L52.10084033613446,215.05928571L52.94117647058824,219.06428571L53.78151260504202,222.5325L54.621848739495796,225.42321428999998L55.46218487394958,227.64000000000001L56.30252100840336,229.57821429L57.14285714285714,231.726428565L57.98319327731093,232.767857145L58.82352941176471,232.86749999999998L59.66386554621849,232.265357145L60.50420168067227,232.31678571L61.34453781512605,232.322142855L62.18487394957983,232.82678571L63.02521008403361,233.255357145L63.86554621848739,232.57821429L64.70588235294117,232.317857145L65.54621848739495,232.52035714500002L66.38655462184873,231.88714285499998L67.22689075630252,231.403928565L68.0672268907563,230.79428571000003L68.90756302521008,229.77321429L69.74789915966386,228.968571435L70.58823529411765,227.99035714500002L71.42857142857143,227.27357143499998L72.26890756302521,226.83964285500002L73.10924369747899,225.406071435L73.94957983193278,224.079642855L74.78991596638656,222.86249999999998L75.63025210084034,221.45785714500002L76.47058823529412,220.738928565L77.31092436974791,219.51749999999998L78.15126050420169,218.31L78.99159663865547,217.523571435L79.83193277310924,216.84L80.67226890756302,215.71285714500002L81.5126050420168,213.628928565L82.35294117647058,212.25321429000002L83.19327731092437,211.22678571000003L84.03361344537815,209.446071435L84.87394957983193,208.835357145L85.71428571428571,207.369642855L86.5546218487395,206.33571429L87.39495798319328,205.8075L88.23529411764706,203.903571435L89.07563025210085,209.74071429L89.91596638655463,216.33L90.75630252100841,214.83428571000002L91.59663865546219,213.04178571L92.43697478991596,210.837857145L93.27731092436974,209.361428565L94.11764705882352,208.629642855L94.9579831932773,207.51321429000004L95.7983193277311,206.540357145L96.63865546218487,204.70714285499997L97.47899159663865,203.08714285500002L98.31932773109243,200.52000000000004L99.15966386554622,199.44535714500003L100,197.73857143499998L100.84033613445378,189.478928565L101.68067226890756,180.25071429000002L102.52100840336134,178.46571428999997L103.36134453781514,177.19392856500002L104.20168067226892,176.47071429L105.0420168067227,174.92357143499999L105.88235294117648,173.62928570999998L106.72268907563026,172.418571435L107.56302521008404,171.860357145L108.40336134453781,171.50571429000001L109.24369747899159,170.45571429L110.08403361344538,170.045357145L110.92436974789916,167.62178570999998L111.76470588235294,166.718571435L112.60504201680672,164.49749999999997L113.4453781512605,162.64071429000003L114.28571428571428,161.120357145L115.12605042016806,159.96321429L115.96638655462186,157.037142855L116.80672268907564,155.52642856499997L117.64705882352942,153.924642855L118.4873949579832,152.263928565L119.32773109243698,149.58857145L120.16806722689076,147.015L121.00840336134453,145.26L121.84873949579831,140.63892855L122.6890756302521,138.32035710000002L123.52941176470588,137.17821435L124.36974789915966,135.435L125.21008403361344,133.80964289999997L126.05042016806722,132.04178565L126.890756302521,129.36964289999997L127.73109243697478,127.52678565000001L128.57142857142858,126.96321435000002L129.41176470588235,125.78250000000001L130.25210084033614,123.72428565000001L131.0924369747899,122.26821435L131.9327731092437,120.76821435L132.77310924369746,117.52285710000004L133.61344537815125,118.94571435L134.45378151260505,118.94892855000003L135.29411764705884,118.36928565L136.1344537815126,118.32535710000003L136.9747899159664,118.0971429L137.81512605042016,117.63214289999998L138.65546218487395,116.415L139.49579831932772,118.56964289999996L140.3361344537815,117.86142855L141.1764705882353,115.74428565L142.01680672268907,115.16785710000002L142.85714285714286,114.00964289999996L143.69747899159663,113.07964289999997L144.53781512605042,114.00857145L145.37815126050418,112.37678565000002L146.21848739495798,109.77L147.05882352941177,108.03642855000002L147.89915966386556,106.67250000000003L148.73949579831933,105.51857145000001L149.57983193277312,105.18428565000002L150.42016806722688,105.525L151.26050420168067,103.25464289999995L152.10084033613444,100.47107144999998L152.94117647058823,100.81071435000001L153.78151260504202,100.13142855L154.62184873949582,99.86785710000001L155.46218487394958,98.9828571L156.30252100840337,98.49321434999997L157.14285714285714,97.98749999999998L157.98319327731093,96.99428565L158.8235294117647,97.24392854999999L159.6638655462185,96.57857145000003L160.50420168067228,98.01321435L161.34453781512605,95.93785710000002L162.18487394957984,94.56321434999998L163.0252100840336,93.55928565L163.8655462184874,93.76392854999997L164.70588235294116,92.71392854999996L165.54621848739495,92.37428565000003L166.38655462184875,91.95642854999996L167.22689075630254,92.6175L168.0672268907563,92.83178565L168.9075630252101,91.60071434999999L169.74789915966386,91.8975L170.58823529411765,92.93035710000002L171.42857142857142,92.95392854999996L172.2689075630252,90.60000000000001L173.109243697479,92.03142854999999L173.94957983193277,91.93821434999997L174.78991596638656,90.77464289999999L175.63025210084032,90.50357145L176.47058823529412,91.38964289999996L177.31092436974788,91.68214289999997L178.1512605042017,92.16107145000004L178.99159663865547,91.67571435000002L179.83193277310926,91.37678564999999L180.67226890756302,91.88785710000002L181.51260504201682,94.05321435L182.35294117647058,91.43892854999997L183.19327731092437,91.95000000000003L184.03361344537814,92.60785710000002L184.87394957983193,92.8296429L185.71428571428572,93.15321434999997L186.5546218487395,92.80607144999999L187.39495798319328,92.56071435000001L188.23529411764704,91.17107145000004L189.07563025210084,92.00571435L189.9159663865546,91.94892854999998L190.75630252100842,92.36142854999999L191.5966386554622,93.16178565L192.43697478991598,92.7225L193.27731092436974,90.25928564999997L194.11764705882354,91.41642854999998L194.9579831932773,91.25678565000001L195.7983193277311,91.22035710000004L196.63865546218486,91.19464289999998L197.47899159663865,91.54392854999995L198.31932773109244,92.47285710000003L199.15966386554624,92.76L200,94.98749999999998L200.84033613445376,95.27357145L201.68067226890756,96.04392854999996L202.52100840336135,96.27321434999999L203.3613445378151,95.90357145000003L204.20168067226888,96.21857145L205.04201680672267,96.67607145000004L205.88235294117646,97.16571435000002L206.72268907563029,98.92285710000002L207.56302521008405,100.29750000000003L208.40336134453784,100.52249999999997L209.2436974789916,100.72071435000002L210.0840336134454,101.68928564999997L210.92436974789916,102.57214289999997L211.76470588235296,103.40892855000001L212.60504201680672,104.06142854999999L213.4453781512605,104.80821434999999L214.28571428571428,106.02107145000001L215.12605042016807,106.97357144999998L215.96638655462183,108.34499999999998L216.80672268907563,109.20964289999999L217.6470588235294,110.20071435000001L218.48739495798318,111.49392855000002L219.327731092437,112.50964289999996L220.16806722689077,113.19857145L221.00840336134456,114.04071435000002L221.84873949579833,115.71000000000001L222.68907563025212,115.94250000000001L223.52941176470588,115.40571435L224.36974789915968,115.57714289999997L225.21008403361344,115.88999999999999L226.05042016806723,115.88785710000005L226.890756302521,115.95642855000001L227.7310924369748,115.92535710000003L228.57142857142856,116.31428564999999L229.41176470588235,116.10749999999999L230.2521008403361,114.85285710000002L231.0924369747899,114.25178565L231.93277310924373,114.73714289999997L232.7731092436975,115.94464289999998L233.61344537815128,115.39178565000002L234.45378151260505,115.74964289999997L235.29411764705884,117.12214289999997L236.1344537815126,117.705L236.9747899159664,118.85785710000002L237.81512605042016,120.41142855000002L238.65546218487395,121.16357144999998L239.49579831932772,122.29178565000002L240.3361344537815,123.08785710000002L241.17647058823528,123.51214289999997L242.01680672268907,124.17964289999998L242.85714285714283,124.76035710000002L243.69747899159663,126.08250000000002L244.53781512605045,127.17857144999999L245.3781512605042,128.56928564999998L246.218487394958,130.14428565L247.05882352941177,130.7925L247.89915966386556,131.3196429L248.73949579831933,131.44071435L249.57983193277312,131.0925L250.42016806722688,131.82642855L251.26050420168067,132.17571435000002L252.10084033613444,133.20857145L252.94117647058823,134.35607144999997L253.781512605042,134.39892855000002L254.6218487394958,134.28428565L255.46218487394955,132.6375L256.3025210084034,136.3875L257.14285714285717,139.1025L257.98319327731093,141.32999999999998L258.8235294117647,141.74035710000004L259.6638655462185,142.15928565L260.5042016806723,142.22142855L261.34453781512605,142.74107145L262.1848739495798,143.3796429L263.02521008403363,144.80678565L263.8655462184874,146.54892855L264.70588235294116,146.7771429L265.5462184873949,147.69642855L266.38655462184875,149.16857145L267.2268907563025,151.3575L268.0672268907563,147.53250000000003L268.9075630252101,145.03178565000002L269.74789915966386,143.9303571L270.5882352941177,143.18142855000002L271.42857142857144,143.2403571L272.2689075630252,142.5728571L273.109243697479,144.45535710000001L273.9495798319328,148.83321435L274.78991596638656,149.88428564999998L275.6302521008403,149.72142855L276.4705882352941,150.3675L277.3109243697479,148.68428565L278.1512605042017,147.03750000000002L278.99159663865544,144.27642855L279.8319327731092,144.4746429L280.672268907563,151.21178571000002L281.51260504201684,153.81321429000002L282.3529411764706,155.19107143500003L283.1932773109244,154.78499999999997L284.03361344537814,155.35928571L284.87394957983196,152.55857143500003L285.7142857142857,147.86357144999997L286.5546218487395,151.261071435L287.39495798319325,152.2725L288.2352941176471,153.290357145L289.07563025210084,155.21249999999998L289.9159663865546,156.88821428999998L290.75630252100837,159.84214285500002L291.5966386554622,160.598571435L292.43697478991595,155.19750000000002L293.2773109243697,153.46821429000002L294.11764705882354,153.166071435L294.9579831932773,154.06821429000001L295.7983193277311,154.50535714499998L296.6386554621849,155.9325L297.47899159663865,156.28178571L298.31932773109247,152.17071428999998L299.15966386554624,151.336071435L300,149.76428565L300.84033613445376,149.5425L301.68067226890753,149.76428565L302.52100840336135,149.88642855L303.3613445378151,149.4878571L304.2016806722689,149.14071435000002L305.0420168067227,149.10642855L305.88235294117646,149.1546429L306.7226890756303,149.0946429L307.56302521008405,150.10178571L308.4033613445378,150.04071429L309.24369747899163,150.18214285500002L310.0840336134454,150.34071428999997L310.92436974789916,149.95821435000002L311.7647058823529,150.89142856499998L312.60504201680675,157.033928565L313.4453781512605,160.973571435L314.2857142857143,161.74178571000002L315.12605042016804,161.813571435L315.96638655462186,161.87678570999998L316.8067226890756,161.26928571000002L317.6470588235294,163.53428571L318.48739495798316,163.72178571000003L319.327731092437,163.17857143499998L320.1680672268908,162.64607143499998L321.00840336134456,162.512142855L321.8487394957983,161.803928565L322.6890756302521,161.49857143499997L323.5294117647059,159.841071435L324.3697478991597,154.87285714499998L325.21008403361344,150.9375L326.0504201680672,149.1246429L326.890756302521,152.375357145L327.7310924369748,154.14749999999998L328.57142857142856,154.64678571L329.4117647058823,151.98321429L330.25210084033614,151.944642855L331.0924369747899,151.20642856499998L331.9327731092437,150.23357143500002L332.7731092436975,148.89107144999997L333.61344537815125,147.78321435L334.4537815126051,147.225L335.29411764705884,147.5646429L336.1344537815126,145.86642855000002L336.97478991596637,144.66535710000002L337.8151260504202,143.7525L338.65546218487395,139.39071435000002L339.4957983193277,136.06821435L340.3361344537815,134.5446429L341.1764705882353,133.665L342.01680672268907,132.61607145L342.85714285714283,131.61321435L343.6974789915966,131.49964289999997L344.5378151260504,130.90178565L345.37815126050424,144.57857144999997L346.218487394958,143.2403571L347.05882352941177,142.19892855L347.89915966386553,141.64178564999997L348.73949579831935,141.37499999999997L349.5798319327731,141.40821435L350.4201680672269,140.97750000000002L351.26050420168065,140.07214289999996L352.10084033613447,138.63857145L352.94117647058823,136.94357144999998L353.781512605042,135.70928565L354.62184873949576,135.09321435L355.4621848739496,134.87571434999998L356.3025210084034,134.57035710000002L357.14285714285717,117.71571435000001L357.98319327731093,116.37107145L358.8235294117647,117.39857145L359.6638655462185,116.92285710000003L360.5042016806723,115.07357144999999L361.34453781512605,114.60107144999999L362.1848739495798,113.91214289999996L363.02521008403363,114.23249999999999L363.8655462184874,114.41785710000005L364.70588235294116,115.76678565L365.5462184873949,115.22142855000003L366.38655462184875,114.23249999999999L367.2268907563025,112.98321435000001L368.0672268907563,111.99L368.9075630252101,113.30035710000001L369.74789915966386,113.18035710000002L370.5882352941177,112.17321435000001L371.42857142857144,111.92035710000003L372.2689075630252,112.28999999999999L373.109243697479,111.67071435000001L373.9495798319328,111.76178564999998L374.78991596638656,110.19428565L375.6302521008403,109.05321434999998L376.4705882352941,107.2575L377.3109243697479,107.44392855L378.1512605042017,106.45285709999999L378.99159663865544,107.48035709999999L379.8319327731092,108.26892855000001L380.672268907563,107.41607144999999L381.51260504201684,105.62035710000004L382.3529411764706,105.01285710000005L383.1932773109244,104.2725L384.03361344537814,104.19857144999999L384.87394957983196,102.67071434999997L385.7142857142857,101.9978571L386.5546218487395,101.36357144999997L387.39495798319325,100.5471429L388.2352941176471,99.74357145000002L389.07563025210084,99.54214289999997L389.9159663865546,100.38214289999998L390.75630252100837,99.45214289999998L391.5966386554622,98.22321435L392.43697478991595,97.98749999999998L393.2773109243697,99.38999999999997L394.11764705882354,98.47928565L394.9579831932773,98.52964289999997L395.7983193277311,98.15571435L396.6386554621849,98.84892855000001L397.47899159663865,97.27714289999999L398.31932773109247,96.23678564999999L399.15966386554624,94.40357145000003L400,94.5996429" stroke="#4c78a8" stroke-width="2"/></g></g><path class="foreground" aria-hidden="true" d="" display="none"/></g><g transform="translate(0,0)"><path class="background" aria-hidden="true" d="M0,0h400v300h-400Z"/><g><g class="mark-line role-mark marks" role="graphics-symbol" aria-roledescription="line mark container"><path d="M0,141.60535710000002L0.8403361344537815,141.6471429L1.680672268907563,141.8625L2.5210084033613445,142.16357144999998L3.361344537815126,142.06499999999997L4.201680672268908,141.62678565000002L5.042016806722689,140.32928564999997L5.88235294117647,141.17571435L6.722689075630252,141.14035710000002L7.563025210084033,141.51964289999995L8.403361344537815,142.2225L9.243697478991598,142.8975L10.084033613445378,143.50607144999998L10.92436974789916,141.1371429L11.76470588235294,139.82035710000002L12.605042016806722,139.85571435L13.445378151260504,139.21821434999998L14.285714285714285,138.52821435L15.126050420168067,137.7621429L15.966386554621847,137.29607145L16.80672268907563,137.1128571L17.647058823529413,136.01892855000003L18.487394957983195,134.535L19.327731092436977,133.6253571L20.168067226890756,132.44892855L21.008403361344538,131.86392855L21.84873949579832,131.34107145L22.689075630252102,131.49428565L23.52941176470588,131.84464289999997L24.369747899159663,131.8125L25.210084033613445,132.40392855000002L26.05042016806723,132.8325L26.89075630252101,133.68535710000003L27.73109243697479,133.96714289999997L28.57142857142857,133.30178565L29.411764705882355,133.97892855L30.252100840336134,135.07392855000003L31.092436974789916,135.62357145L31.932773109243694,135.44785710000002L32.773109243697476,135.27642855000002L33.61344537815126,135.61499999999998L34.45378151260504,135.04071435L35.294117647058826,134.88321435L36.134453781512605,134.56392855L36.97478991596639,134.895L37.81512605042017,135.76607145L38.655462184873954,137.7525L39.49579831932773,141.80785710000004L40.33613445378151,147.87L41.17647058823529,152.90785714499998L42.016806722689076,158.813571435L42.857142857142854,165.59571429L43.69747899159664,173.66142856500002L44.537815126050425,181.718571435L45.378151260504204,190.67571429L46.21848739495798,202.80107143499998L47.05882352941176,211.75071429000002L47.89915966386555,220.55571429L48.739495798319325,228.353571435L49.57983193277311,236.165357145L50.42016806722689,242.822142855L51.26050420168067,249.22178571L52.10084033613446,255.433928565L52.94117647058824,259.34571429L53.78151260504202,262.27178571L54.621848739495796,264.47785714500003L55.46218487394958,266.3625L56.30252100840336,268.17857143500004L57.14285714285714,269.848928565L57.98319327731093,270.87L58.82352941176471,271.326428565L59.66386554621849,271.53000000000003L60.50420168067227,271.98321429L61.34453781512605,272.346428565L62.18487394957983,272.8575L63.02521008403361,273.455357145L63.86554621848739,273.62678571000004L64.70588235294117,273.861428565L65.54621848739495,274.31678571L66.38655462184873,274.41321429L67.22689075630252,274.63821429L68.0672268907563,274.7775L68.90756302521008,274.877142855L69.74789915966386,275.03571429L70.58823529411765,275.02178570999996L71.42857142857143,274.98321429L72.26890756302521,275.060357145L73.10924369747899,274.96821429000005L73.94957983193278,274.846071435L74.78991596638656,274.761428565L75.63025210084034,274.588928565L76.47058823529412,274.516071435L77.31092436974791,274.21071429L78.15126050420169,273.97178571L78.99159663865547,273.61178571L79.83193277310924,273.387857145L80.67226890756302,272.93678571000004L81.5126050420168,272.308928565L82.35294117647058,271.8825L83.19327731092437,271.45821429L84.03361344537815,270.84214285499996L84.87394957983193,270.47464285499996L85.71428571428571,269.93678571000004L86.5546218487395,269.663571435L87.39495798319328,269.55L88.23529411764706,269.162142855L89.07563025210085,269.10428571L89.91596638655463,269.540357145L90.75630252100841,269.14821429L91.59663865546219,268.63821429L92.43697478991596,268.051071435L93.27731092436974,267.69428571L94.11764705882352,267.481071435L94.9579831932773,267.196071435L95.7983193277311,266.925L96.63865546218487,266.42249999999996L97.47899159663865,265.98428571L98.31932773109243,265.20214285500003L99.15966386554622,264.78000000000003L100,264.17035714499997L100.84033613445378,263.379642855L101.68067226890756,261.943928565L102.52100840336134,261.286071435L103.36134453781514,260.79321429L104.20168067226892,260.41821429L105.0420168067227,259.651071435L105.88235294117648,259.11321429000003L106.72268907563026,258.42535714499996L107.56302521008404,257.777142855L108.40336134453781,257.391428565L109.24369747899159,256.633928565L110.08403361344538,256.19142856499997L110.92436974789916,254.77821429L111.76470588235294,253.673571435L112.60504201680672,252.36857143499998L113.4453781512605,251.262857145L114.28571428571428,250.266428565L115.12605042016806,249.493928565L115.96638655462186,247.971428565L116.80672268907564,246.984642855L117.64705882352942,245.89821429L118.4873949579832,244.96821429L119.32773109243698,243.77678571L120.16806722689076,242.38607143500002L121.00840336134453,241.46571429L121.84873949579831,239.348571435L122.6890756302521,238.41750000000002L123.52941176470588,238.036071435L124.36974789915966,236.927142855L125.21008403361344,235.82250000000002L126.05042016806722,234.66428571000003L126.890756302521,233.01857143499998L127.73109243697478,231.72321429000002L128.57142857142858,231.02785714499998L129.41176470588235,230.097857145L130.25210084033614,228.54428571L131.0924369747899,227.57999999999998L131.9327731092437,226.61142856499998L132.77310924369746,224.73428571L133.61344537815125,224.71821429L134.45378151260505,223.640357145L135.29411764705884,222.762857145L136.1344537815126,222.55928570999998L136.9747899159664,222.122142855L137.81512605042016,221.53178570999998L138.65546218487395,220.41107143500003L139.49579831932772,221.543571435L140.3361344537815,220.99071429L141.1764705882353,219.684642855L142.01680672268907,219.41571428999998L142.85714285714286,218.43321429L143.69747899159663,217.584642855L144.53781512605042,217.596428565L145.37815126050418,216.735L146.21848739495798,215.40749999999997L147.05882352941177,214.25464285500001L147.89915966386556,213.283928565L148.73949579831933,212.35607143500002L149.57983193277312,212.16214285499998L150.42016806722688,212.5425L151.26050420168067,210.95678571L152.10084033613444,208.90071429L152.94117647058823,208.80321429000003L153.78151260504202,208.15285714499998L154.62184873949582,207.94714285499998L155.46218487394958,207.195L156.30252100840337,206.82428571000003L157.14285714285714,206.187857145L157.98319327731093,205.93178571L158.8235294117647,206.21785714500004L159.6638655462185,205.70571428999997L160.50420168067228,206.128928565L161.34453781512605,204.69428571L162.18487394957984,203.61428571L163.0252100840336,202.877142855L163.8655462184874,202.91571429L164.70588235294116,201.932142855L165.54621848739495,201.44678571000003L166.38655462184875,200.80178571L167.22689075630254,201.04071428999998L168.0672268907563,201.11142856499998L168.9075630252101,200.10321428999998L169.74789915966386,199.78714285499998L170.58823529411765,200.0775L171.42857142857142,199.59964285499998L172.2689075630252,198.23571429L173.109243697479,198.795L173.94957983193277,198.13821428999998L174.78991596638656,196.93071429L175.63025210084032,196.501071435L176.47058823529412,197.00249999999997L177.31092436974788,196.84821429L178.1512605042017,196.70678571L178.99159663865547,196.02321429L179.83193277310926,195.681428565L180.67226890756302,196.01035714499997L181.51260504201682,197.02285714500002L182.35294117647058,195.39L183.19327731092437,195.83250000000004L184.03361344537814,196.6125L184.87394957983193,196.772142855L185.71428571428572,197.438571435L186.5546218487395,197.541428565L187.39495798319328,197.52000000000004L188.23529411764704,197.39035714500002L189.07563025210084,197.83821429L189.9159663865546,198.06750000000002L190.75630252100842,198.452142855L191.5966386554622,198.778928565L192.43697478991598,198.17678571L193.27731092436974,196.48392856499999L194.11764705882354,196.918928565L194.9579831932773,196.80642856499998L195.7983193277311,196.63285714499997L196.63865546218486,196.307142855L197.47899159663865,196.145357145L198.31932773109244,196.437857145L199.15966386554624,196.103571435L200,195.88178571L200.84033613445376,196.111071435L201.68067226890756,196.595357145L202.52100840336135,196.44428571L203.3613445378151,196.03607143500003L204.20168067226888,195.94392856500002L205.04201680672267,195.69321429L205.88235294117646,195.675L206.72268907563029,196.01571429L207.56302521008405,196.536428565L208.40336134453784,196.66500000000002L209.2436974789916,196.493571435L210.0840336134454,196.430357145L210.92436974789916,196.32321428999998L211.76470588235296,196.971428565L212.60504201680672,197.00035714499998L213.4453781512605,196.8675L214.28571428571428,197.213571435L215.12605042016807,197.08821429L215.96638655462183,197.29500000000002L216.80672268907563,196.85999999999996L217.6470588235294,197.01964285499997L218.48739495798318,198.11357143499998L219.327731092437,198.24964285499996L220.16806722689077,198.10714285499998L221.00840336134456,198.22714285499998L221.84873949579833,199.4175L222.68907563025212,199.06178570999998L223.52941176470588,198.591428565L224.36974789915968,198.39964285500002L225.21008403361344,198.470357145L226.05042016806723,198.375L226.890756302521,198.375L227.7310924369748,198.148928565L228.57142857142856,198.567857145L229.41176470588235,198.538928565L230.2521008403361,197.63357143500002L231.0924369747899,197.18035714499996L231.93277310924373,197.518928565L232.7731092436975,198.698571435L233.61344537815128,197.956071435L234.45378151260505,198.36857143499998L235.29411764705884,199.49678570999998L236.1344537815126,199.92535714499996L236.9747899159664,200.69142856499997L237.81512605042016,201.606428565L238.65546218487395,201.69321429000001L239.49579831932772,201.87L240.3361344537815,202.28678571L241.17647058823528,202.21821428999996L242.01680672268907,202.03285714499998L242.85714285714283,201.906428565L243.69747899159663,202.356428565L244.53781512605045,202.209642855L245.3781512605042,202.280357145L246.218487394958,202.536428565L247.05882352941177,202.42071429L247.89915966386556,202.373571435L248.73949579831933,202.11964285500002L249.57983193277312,201.90321428999997L250.42016806722688,202.584642855L251.26050420168067,203.27785714499998L252.10084033613444,203.67000000000002L252.94117647058823,204.36107143499999L253.781512605042,204.76285714500003L254.6218487394958,205.30178570999996L255.46218487394955,205.532142855L256.3025210084034,207.808928565L257.14285714285717,209.529642855L257.98319327731093,211.33071428999997L258.8235294117647,211.655357145L259.6638655462185,212.69785714499997L260.5042016806723,212.72571429L261.34453781512605,212.91321428999998L262.1848739495798,213.07178570999997L263.02521008403363,214.03071429000002L263.8655462184874,215.32178571L264.70588235294116,215.222142855L265.5462184873949,215.47714285499998L266.38655462184875,215.89821429L267.2268907563025,216.03321429000002L268.0672268907563,213.73714285499997L268.9075630252101,212.438571435L269.74789915966386,211.712142855L270.5882352941177,211.01678570999997L271.42857142857144,210.78428570999998L272.2689075630252,210.857142855L273.109243697479,211.978928565L273.9495798319328,213.0525L274.78991596638656,212.71928571L275.6302521008403,212.15678570999998L276.4705882352941,212.589642855L277.3109243697479,211.967142855L278.1512605042017,211.30392856500004L278.99159663865544,210.61071429L279.8319327731092,212.057142855L280.672268907563,215.94321429L281.51260504201684,218.08285714500002L282.3529411764706,219.248571435L283.1932773109244,218.656071435L284.03361344537814,218.49535714499999L284.87394957983196,217.15607143500003L285.7142857142857,216.81964285499998L286.5546218487395,219.67928571000002L287.39495798319325,221.10321428999998L288.2352941176471,222.09321429000002L289.07563025210084,222.70178571L289.9159663865546,223.325357145L290.75630252100837,224.17821429000003L291.5966386554622,223.186071435L292.43697478991595,219.99428571L293.2773109243697,218.4375L294.11764705882354,217.92428571L294.9579831932773,218.191071435L295.7983193277311,218.322857145L296.6386554621849,218.49428571L297.47899159663865,217.75178571L298.31932773109247,215.11071429L299.15966386554624,214.141071435L300,212.892857145L300.84033613445376,212.72571429L301.68067226890753,212.55214285500003L302.52100840336135,212.46321429000002L303.3613445378151,212.060357145L304.2016806722689,211.63178571L305.0420168067227,211.63178571L305.88235294117646,211.62857143499997L306.7226890756303,211.607142855L307.56302521008405,212.08821429000002L308.4033613445378,212.07428570999997L309.24369747899163,212.243571435L310.0840336134454,212.79321428999998L310.92436974789916,213.006428565L311.7647058823529,213.80785714499999L312.60504201680675,215.18571429L313.4453781512605,215.89392856499998L314.2857142857143,214.978928565L315.12605042016804,214.37678571L315.96638655462186,213.908571435L316.8067226890756,212.652857145L317.6470588235294,213.12428570999998L318.48739495798316,212.787857145L319.327731092437,212.232857145L320.1680672268908,211.56321429L321.00840336134456,211.01035714499997L321.8487394957983,209.436428565L322.6890756302521,208.213928565L323.5294117647059,206.627142855L324.3697478991597,205.16678571000003L325.21008403361344,204.09428570999998L326.0504201680672,204.177857145L326.890756302521,205.655357145L327.7310924369748,206.166428565L328.57142857142856,206.457857145L329.4117647058823,205.38750000000002L330.25210084033614,205.674642855L331.0924369747899,205.21178571L331.9327731092437,204.63857143500002L332.7731092436975,203.98178571L333.61344537815125,203.736428565L334.4537815126051,203.867142855L335.29411764705884,204.48321429L336.1344537815126,204.00857143500002L336.97478991596637,203.77821429L337.8151260504202,203.042142855L338.65546218487395,201.33321429L339.4957983193277,200.053928565L340.3361344537815,199.482857145L341.1764705882353,199.070357145L342.01680672268907,198.35678571L342.85714285714283,197.3475L343.6974789915966,197.278928565L344.5378151260504,196.532142855L345.37815126050424,204.50142856500003L346.218487394958,203.64107143500001L347.05882352941177,202.93178571L347.89915966386553,202.79142856500002L348.73949579831935,202.66607143500002L349.5798319327731,202.73464285499998L350.4201680672269,202.93178571L351.26050420168065,202.6125L352.10084033613447,201.702857145L352.94117647058823,200.74714285500002L353.781512605042,199.933928565L354.62184873949576,199.69821428999998L355.4621848739496,199.87285714499998L356.3025210084034,199.846071435L357.14285714285717,190.168928565L357.98319327731093,188.65499999999997L358.8235294117647,189.165L359.6638655462185,188.19750000000002L360.5042016806723,186.67071429L361.34453781512605,186.294642855L362.1848739495798,185.244642855L363.02521008403363,184.98321428999998L363.8655462184874,184.94892856500002L364.70588235294116,185.551071435L365.5462184873949,184.854642855L366.38655462184875,183.797142855L367.2268907563025,182.16428571L368.0672268907563,181.116428565L368.9075630252101,180.973928565L369.74789915966386,180.894642855L370.5882352941177,180.10071429000004L371.42857142857144,179.98821429000003L372.2689075630252,179.76428571L373.109243697479,178.89428570999996L373.9495798319328,178.60928571L374.78991596638656,177.36857143499998L375.6302521008403,175.61249999999998L376.4705882352941,173.998928565L377.3109243697479,173.788928565L378.1512605042017,173.23071428999998L378.99159663865544,174.178928565L379.8319327731092,174.66642856500002L380.672268907563,173.97428570999998L381.51260504201684,172.4025L382.3529411764706,171.64928571L383.1932773109244,171.12857143499997L384.03361344537814,171.08250000000004L384.87394957983196,170.082857145L385.7142857142857,169.68428570999998L386.5546218487395,168.957857145L387.39495798319325,168.30642856499998L388.2352941176471,167.74178571000002L389.07563025210084,167.64857143500004L389.9159663865546,167.88750000000002L390.75630252100837,167.06142856500003L391.5966386554622,165.87857143500003L392.43697478991595,165.411428565L393.2773109243697,166.760357145L394.11764705882354,166.78178571L394.9579831932773,166.37142856500003L395.7983193277311,165.57428571L396.6386554621849,165.31178570999998L397.47899159663865,163.46357143499998L398.31932773109247,162.2925L399.15966386554624,160.100357145L400,159.60642856500002" stroke="#f58518" stroke-width="2"/></g></g><path class="foreground" aria-hidden="true" d="" display="none"/></g><g transform="translate(0,0)"><path class="background" aria-hidden="true" d="M0,0h400v300h-400Z"/><g><g class="mark-line role-mark marks" role="graphics-symbol" aria-roledescription="line mark container"><path d="M0,138.8796429L0.8403361344537815,139.49142855000002L1.680672268907563,140.04535710000005L2.5210084033613445,141.4275L3.361344537815126,141.79178565L4.201680672268908,140.73L5.042016806722689,137.15678565000002L5.88235294117647,138.18214289999997L6.722689075630252,137.58642855000002L7.563025210084033,136.83642855000002L8.403361344537815,136.76035710000002L9.243697478991598,137.52857145L10.084033613445378,138.59892855L10.92436974789916,135.59678565L11.76470588235294,134.95392855000003L12.605042016806722,135.34071435L13.445378151260504,134.54357144999997L14.285714285714285,133.18607145L15.126050420168067,131.70642855L15.966386554621847,130.97249999999997L16.80672268907563,131.54142855000003L17.647058823529413,129.195L18.487394957983195,127.335L19.327731092436977,126.95357144999998L20.168067226890756,125.95499999999998L21.008403361344538,125.54464289999999L21.84873949579832,124.71535710000002L22.689075630252102,123.67285710000002L23.52941176470588,122.54464289999999L24.369747899159663,121.12500000000001L25.210084033613445,121.71535710000002L26.05042016806723,122.47285710000003L26.89075630252101,123.52499999999999L27.73109243697479,124.29428565000002L28.57142857142857,123.55928564999999L29.411764705882355,124.78392855000003L30.252100840336134,125.78142855L31.092436974789916,125.92500000000003L31.932773109243694,125.00785710000004L32.773109243697476,123.56785710000004L33.61344537815126,123.88607144999997L34.45378151260504,123.68035710000004L35.294117647058826,123.01071435L36.134453781512605,121.27607144999999L36.97478991596639,119.98285710000003L37.81512605042017,119.12357144999997L38.655462184873954,119.45142854999999L39.49579831932773,121.30071435000002L40.33613445378151,125.13535710000001L41.17647058823529,128.74071435L42.016806722689076,133.4325L42.857142857142854,137.9978571L43.69747899159664,144.28928565L44.537815126050425,151.22250000000003L45.378151260504204,157.63178571L46.21848739495798,169.30071429000003L47.05882352941176,179.12678570999998L47.89915966386555,189.047142855L48.739495798319325,195.99107143499998L49.57983193277311,203.949642855L50.42016806722689,210.05999999999997L51.26050420168067,217.032857145L52.10084033613446,225.81L52.94117647058824,231.18964285500002L53.78151260504202,234.4275L54.621848739495796,237.20785714500002L55.46218487394958,239.318571435L56.30252100840336,241.2825L57.14285714285714,244.215L57.98319327731093,245.66571429L58.82352941176471,245.95607143499998L59.66386554621849,244.44107143499997L60.50420168067227,244.76999999999998L61.34453781512605,244.509642855L62.18487394957983,245.627142855L63.02521008403361,246.984642855L63.86554621848739,245.95178571L64.70588235294117,245.52L65.54621848739495,246.316071435L66.38655462184873,245.9025L67.22689075630252,246.144642855L68.0672268907563,246.18L68.90756302521008,245.82428571L69.74789915966386,246.34500000000003L70.58823529411765,245.44071429L71.42857142857143,245.65071429L72.26890756302521,246.165L73.10924369747899,245.663571435L73.94957983193278,244.97464285499998L74.78991596638656,244.63178571L75.63025210084034,243.3075L76.47058823529412,243.7275L77.31092436974791,242.83928570999998L78.15126050420169,241.711071435L78.99159663865547,241.49571429L79.83193277310924,241.29321429L80.67226890756302,240.41678571L81.5126050420168,237.01071428999998L82.35294117647058,235.47428571L83.19327731092437,234.44785714500003L84.03361344537815,232.61142856499998L84.87394957983193,232.47428571L85.71428571428571,230.645357145L86.5546218487395,229.936071435L87.39495798319328,230.81571429000002L88.23529411764706,228.57857143500001L89.07563025210085,228.35571429L89.91596638655463,229.704642855L90.75630252100841,227.89178571000002L91.59663865546219,225.84428570999998L92.43697478991596,223.45714285499997L93.27731092436974,222.81428570999998L94.11764705882352,222.82178570999997L94.9579831932773,222.211071435L95.7983193277311,221.7L96.63865546218487,219.81535714499998L97.47899159663865,218.82428571L98.31932773109243,216.362142855L99.15966386554622,215.79000000000002L100,214.119642855L100.84033613445378,211.47750000000002L101.68067226890756,208.16678571000003L102.52100840336134,206.80928570999998L103.36134453781514,206.29071429L104.20168067226892,205.881428565L105.0420168067227,204.530357145L105.88235294117648,203.22L106.72268907563026,201.413571435L107.56302521008404,200.420357145L108.40336134453781,199.99178571000002L109.24369747899159,198.811071435L110.08403361344538,198.67821429L110.92436974789916,195.13178571L111.76470588235294,193.851428565L112.60504201680672,192.195L113.4453781512605,191.08607143500004L114.28571428571428,190.123928565L115.12605042016806,189.56678571L115.96638655462186,187.239642855L116.80672268907564,186.04928571000002L117.64705882352942,184.557857145L118.4873949579832,184.08535714500002L119.32773109243698,182.071071435L120.16806722689076,180.07071428999996L121.00840336134453,179.1525L121.84873949579831,173.60678571L122.6890756302521,172.355357145L123.52941176470588,172.543928565L124.36974789915966,171.804642855L125.21008403361344,169.81928571L126.05042016806722,168.474642855L126.890756302521,165.53678571L127.73109243697478,163.88035714499998L128.57142857142858,164.7525L129.41176470588235,164.86178571000002L130.25210084033614,163.396071435L131.0924369747899,162.78964285499998L131.9327731092437,162.197142855L132.77310924369746,159.63214285499998L133.61344537815125,162.267857145L134.45378151260505,161.015357145L135.29411764705884,160.34678571L136.1344537815126,160.695L136.9747899159664,160.6875L137.81512605042016,160.60821429L138.65546218487395,159.58714285500002L139.49579831932772,163.250357145L140.3361344537815,162.12107143499998L141.1764705882353,159.92357143499999L142.01680672268907,159.242142855L142.85714285714286,157.86214285499997L143.69747899159663,156.27750000000003L144.53781512605042,156.718928565L145.37815126050418,155.577857145L146.21848739495798,154.62428571L147.05882352941177,153.79178570999997L147.89915966386556,152.77607143499998L148.73949579831933,152.387142855L149.57983193277312,152.69464285500004L150.42016806722688,153.51000000000002L151.26050420168067,150.46928571L152.10084033613444,147.50142855L152.94117647058823,148.4421429L153.78151260504202,148.44L154.62184873949582,148.60928565L155.46218487394958,148.185L156.30252100840337,148.26428565L157.14285714285714,147.59892855L157.98319327731093,146.21035709999998L158.8235294117647,145.97785710000002L159.6638655462185,144.85821435L160.50420168067228,146.7246429L161.34453781512605,143.925L162.18487394957984,142.335L163.0252100840336,141.57535710000002L163.8655462184874,141.03L164.70588235294116,138.73071435L165.54621848739495,137.79642855L166.38655462184875,137.01428565L167.22689075630254,137.7621429L168.0672268907563,138.11892855000002L168.9075630252101,136.69178564999999L169.74789915966386,136.46571435L170.58823529411765,137.90035710000004L171.42857142857142,137.45357145L172.2689075630252,134.04535710000002L173.109243697479,135.03535710000003L173.94957983193277,134.22L174.78991596638656,132.34285710000003L175.63025210084032,132.63428564999998L176.47058823529412,133.94357144999998L177.31092436974788,134.0925L178.1512605042017,134.51892855000003L178.99159663865547,133.16678565L179.83193277310926,132.78107144999998L180.67226890756302,133.4775L181.51260504201682,135.99L182.35294117647058,132.07178565L183.19327731092437,132.0203571L184.03361344537814,132.5046429L184.87394957983193,132.30321435L185.71428571428572,133.11214289999998L186.5546218487395,132.25285710000006L187.39495798319328,130.73250000000002L188.23529411764704,128.77607145L189.07563025210084,127.77107144999998L189.9159663865546,126.97500000000001L190.75630252100842,127.09607144999998L191.5966386554622,127.44642855000001L192.43697478991598,125.83285710000001L193.27731092436974,121.71107145L194.11764705882354,122.66785710000003L194.9579831932773,122.88535710000002L195.7983193277311,122.77928564999998L196.63865546218486,122.29821435L197.47899159663865,121.97678564999998L198.31932773109244,122.70214289999996L199.15966386554624,122.61642855000001L200,124.16464289999998L200.84033613445376,125.63464289999999L201.68067226890756,126.52071435L202.52100840336135,126.42428565000002L203.3613445378151,125.31321435L204.20168067226888,125.38607144999997L205.04201680672267,125.49L205.88235294117646,125.56821434999999L206.72268907563029,126.30321434999998L207.56302521008405,127.98964289999999L208.40336134453784,128.52857145L209.2436974789916,128.50285710000003L210.0840336134454,129.10928564999998L210.92436974789916,129.70285710000002L211.76470588235296,130.4346429L212.60504201680672,130.57607145L213.4453781512605,130.47535710000002L214.28571428571428,131.63785710000005L215.12605042016807,132.195L215.96638655462183,133.32535710000005L216.80672268907563,134.55535710000004L217.6470588235294,135.70607145L218.48739495798318,138.44142855L219.327731092437,139.14964289999995L220.16806722689077,139.20642855000003L221.00840336134456,139.87285710000003L221.84873949579833,143.17821435L222.68907563025212,143.43642855000002L223.52941176470588,143.27678565L224.36974789915968,143.6303571L225.21008403361344,144.27321435L226.05042016806723,144.09857144999998L226.890756302521,144.2153571L227.7310924369748,144.1553571L228.57142857142856,144.13607144999997L229.41176470588235,144.25071434999998L230.2521008403361,142.38321435L231.0924369747899,140.82107145L231.93277310924373,141.5046429L232.7731092436975,144.07071435L233.61344537815128,142.48928565L234.45378151260505,142.79892855L235.29411764705884,145.05214289999998L236.1344537815126,145.95428565L236.9747899159664,146.04107145L237.81512605042016,147.39000000000001L238.65546218487395,147.8946429L239.49579831932772,148.56107145L240.3361344537815,148.20535710000001L241.17647058823528,147.27642855L242.01680672268907,146.87357145L242.85714285714283,147.14357145L243.69747899159663,148.69178565L244.53781512605045,148.66392854999998L245.3781512605042,149.21678565L246.218487394958,150.79821428999998L247.05882352941177,150.638571435L247.89915966386556,150.61821429L248.73949579831933,151.93500000000003L249.57983193277312,152.747142855L250.42016806722688,153.96321429L251.26050420168067,154.92642856499998L252.10084033613444,157.35750000000002L252.94117647058823,159.76178571L253.781512605042,160.91892856500002L254.6218487394958,162.04928571L255.46218487394955,161.0925L256.3025210084034,164.34642856500002L257.14285714285717,166.63392856500002L257.98319327731093,169.666071435L258.8235294117647,169.97464285499998L259.6638655462185,171.744642855L260.5042016806723,171.72L261.34453781512605,171.71678570999998L262.1848739495798,171.795L263.02521008403363,173.62392856499997L263.8655462184874,176.507142855L264.70588235294116,176.4075L265.5462184873949,176.822142855L266.38655462184875,178.09714285500002L267.2268907563025,179.871428565L268.0672268907563,176.192142855L268.9075630252101,174.02892856500003L269.74789915966386,172.798928565L270.5882352941177,171.848571435L271.42857142857144,171.53571429000002L272.2689075630252,171.58821429000002L273.109243697479,173.58107143499998L273.9495798319328,176.877857145L274.78991596638656,177.497142855L275.6302521008403,177.31928570999997L276.4705882352941,178.505357145L277.3109243697479,177.872142855L278.1512605042017,176.791071435L278.99159663865544,175.017857145L279.8319327731092,176.31321429L280.672268907563,182.84357143499997L281.51260504201684,186.96321429000002L282.3529411764706,189.37071429L283.1932773109244,188.29071428999998L284.03361344537814,188.49535714500004L284.87394957983196,185.88642856500002L285.7142857142857,182.52535714500002L286.5546218487395,185.51357143500002L287.39495798319325,186.11142856499998L288.2352941176471,187.0425L289.07563025210084,187.69714285499998L289.9159663865546,188.507142855L290.75630252100837,190.03500000000003L291.5966386554622,189.582857145L292.43697478991595,184.59535714499998L293.2773109243697,181.88142856500002L294.11764705882354,180.812142855L294.9579831932773,181.277142855L295.7983193277311,181.18714285499996L296.6386554621849,181.738928565L297.47899159663865,181.746428565L298.31932773109247,177.96321429000002L299.15966386554624,176.648571435L300,174.230357145L300.84033613445376,173.60250000000002L301.68067226890753,173.81999999999996L302.52100840336135,174.031071435L303.3613445378151,173.657142855L304.2016806722689,173.13642856500002L305.0420168067227,173.25L305.88235294117646,173.765357145L306.7226890756303,173.987142855L307.56302521008405,175.40785714499998L308.4033613445378,175.644642855L309.24369747899163,176.56821429000001L310.0840336134454,177.93428571L310.92436974789916,178.933928565L311.7647058823529,180.96428571L312.60504201680675,185.73964285500003L313.4453781512605,188.24678570999998L314.2857142857143,188.29821428999998L315.12605042016804,187.873928565L315.96638655462186,187.57071429L316.8067226890756,185.72678571L317.6470588235294,187.115357145L318.48739495798316,187.14750000000004L319.327731092437,186.3675L320.1680672268908,185.88642856500002L321.00840336134456,185.40321429L321.8487394957983,183.58928571L322.6890756302521,182.537142855L323.5294117647059,179.96035714500002L324.3697478991597,176.401071435L325.21008403361344,173.491071435L326.0504201680672,172.49035714500002L326.890756302521,175.64571429000003L327.7310924369748,177.39000000000001L328.57142857142856,178.295357145L329.4117647058823,175.731428565L330.25210084033614,176.1825L331.0924369747899,175.37250000000003L331.9327731092437,173.93464285500002L332.7731092436975,172.365L333.61344537815125,171.137142855L334.4537815126051,170.29821429L335.29411764705884,171.32571429L336.1344537815126,170.083928565L336.97478991596637,169.775357145L337.8151260504202,168.32035714500003L338.65546218487395,164.603571435L339.4957983193277,162.008571435L340.3361344537815,160.92642856499998L341.1764705882353,160.10357143500002L342.01680672268907,158.65071429L342.85714285714283,156.552857145L343.6974789915966,156.59678570999998L344.5378151260504,155.061428565L345.37815126050424,166.65750000000003L346.218487394958,164.788928565L347.05882352941177,163.27392856499998L347.89915966386553,163.187142855L348.73949579831935,163.014642855L349.5798319327731,163.48928571L350.4201680672269,164.172857145L351.26050420168065,163.395L352.10084033613447,160.52571429000002L352.94117647058823,157.89L353.781512605042,156.40178571000004L354.62184873949576,156.399642855L355.4621848739496,157.381071435L356.3025210084034,157.665L357.14285714285717,143.43321435L357.98319327731093,140.82214289999996L358.8235294117647,142.18714289999997L359.6638655462185,140.9496429L360.5042016806723,138.60000000000002L361.34453781512605,138.555L362.1848739495798,137.10750000000002L363.02521008403363,137.39678565L363.8655462184874,137.79535710000002L364.70588235294116,139.79249999999996L365.5462184873949,139.18071435000002L366.38655462184875,138.05678564999997L367.2268907563025,135.15107145L368.0672268907563,134.01535710000005L368.9075630252101,134.82750000000001L369.74789915966386,134.81678565L370.5882352941177,134.14071435L371.42857142857144,134.73857145L372.2689075630252,134.0346429L373.109243697479,132.29892855L373.9495798319328,132.81428565000002L374.78991596638656,130.98428564999998L375.6302521008403,128.99678565000002L376.4705882352941,126.48107144999999L377.3109243697479,126.35464289999997L378.1512605042017,124.49357144999999L378.99159663865544,126.37821435000001L379.8319327731092,127.83000000000001L380.672268907563,126.18857145L381.51260504201684,123.52071435L382.3529411764706,121.60499999999999L383.1932773109244,120.33642855000004L384.03361344537814,120.99107144999999L384.87394957983196,119.05821435000001L385.7142857142857,117.69214289999998L386.5546218487395,116.32928564999999L387.39495798319325,114.82714289999996L388.2352941176471,113.42142855000003L389.07563025210084,113.90678565L389.9159663865546,115.41321435000002L390.75630252100837,114.45107145000001L391.5966386554622,112.18285710000002L392.43697478991595,112.01464289999998L393.2773109243697,115.89107144999998L394.11764705882354,116.24035710000003L394.9579831932773,115.77214289999999L395.7983193277311,114.74678565000002L396.6386554621849,115.05535710000002L397.47899159663865,111.96214289999998L398.31932773109247,109.78821435L399.15966386554624,106.25892855L400,106.33285710000003" stroke="#e45756" stroke-width="2"/></g></g><path class="foreground" aria-hidden="true" d="" display="none"/></g></g><g class="mark-group role-legend" role="graphics-symbol" aria-roledescription="legend" aria-label="Symbol legend titled 'Mode of Transportation' for stroke color with 3 values: Driving, Transit, Walking"><g transform="translate(420,0)"><path class="background" aria-hidden="true" d="M0,0h123v53h-123Z" pointer-events="none"/><g><g class="mark-group role-legend-entry"><g transform="translate(0,16)"><path class="background" aria-hidden="true" d="M0,0h0v0h0Z" pointer-events="none"/><g><g class="mark-group role-scope" role="graphics-object" aria-roledescription="group mark container"><g transform="translate(0,0)"><path class="background" aria-hidden="true" d="M0,0h51.2001953125v11h-51.2001953125Z" pointer-events="none" opacity="1"/><g><g class="mark-symbol role-legend-symbol" pointer-events="none"><path transform="translate(6,6)" d="M-5,0L5,0" stroke="#4c78a8" stroke-width="1.5" opacity="1"/></g><g class="mark-text role-legend-label" pointer-events="none"><text text-anchor="start" transform="translate(16,9)" font-family="sans-serif" font-size="10px" fill="#000" opacity="1">Driving</text></g></g><path class="foreground" aria-hidden="true" d="" pointer-events="none" display="none"/></g><g transform="translate(0,13)"><path class="background" aria-hidden="true" d="M0,0h51.2001953125v11h-51.2001953125Z" pointer-events="none" opacity="1"/><g><g class="mark-symbol role-legend-symbol" pointer-events="none"><path transform="translate(6,6)" d="M-5,0L5,0" stroke="#f58518" stroke-width="1.5" opacity="1"/></g><g class="mark-text role-legend-label" pointer-events="none"><text text-anchor="start" transform="translate(16,9)" font-family="sans-serif" font-size="10px" fill="#000" opacity="1">Transit</text></g></g><path class="foreground" aria-hidden="true" d="" pointer-events="none" display="none"/></g><g transform="translate(0,26)"><path class="background" aria-hidden="true" d="M0,0h51.2001953125v11h-51.2001953125Z" pointer-events="none" opacity="1"/><g><g class="mark-symbol role-legend-symbol" pointer-events="none"><path transform="translate(6,6)" d="M-5,0L5,0" stroke="#e45756" stroke-width="1.5" opacity="1"/></g><g class="mark-text role-legend-label" pointer-events="none"><text text-anchor="start" transform="translate(16,9)" font-family="sans-serif" font-size="10px" fill="#000" opacity="1">Walking</text></g></g><path class="foreground" aria-hidden="true" d="" pointer-events="none" display="none"/></g></g></g><path class="foreground" aria-hidden="true" d="" pointer-events="none" display="none"/></g></g><g class="mark-text role-legend-title" pointer-events="none"><text text-anchor="start" transform="translate(0,9)" font-family="sans-serif" font-size="11px" font-weight="bold" fill="#000" opacity="1">Mode of Transportation</text></g></g><path class="foreground" aria-hidden="true" d="" pointer-events="none" display="none"/></g></g><g class="mark-group role-title"><g transform="translate(200,-29)"><path class="background" aria-hidden="true" d="M0,0h0v0h0Z" pointer-events="none"/><g><g class="mark-text role-title-text" role="graphics-symbol" aria-roledescription="title" aria-label="Title text 'Brooklyn'" pointer-events="none"><text text-anchor="middle" transform="translate(0,16)" font-family="Helvetica" font-size="20px" font-weight="bold" fill="black" opacity="1">Brooklyn</text></g></g><path class="foreground" aria-hidden="true" d="" pointer-events="none" display="none"/></g></g></g><path class="foreground" aria-hidden="true" d="" display="none"/></g></g></g></svg>