<svg xmlns="http://www.w3.org/2000/svg" xmlns:xlink="http://www.w3.org/1999/xlink" version="1.1" class="marks" width="607" height="371" viewBox="0 0 607 371"><rect width="607" height="371" fill="white"/><g fill="none" stroke-miterlimit="10" transform="translate(59,34)"><g class="mark-group role-frame root" role="graphics-object" aria-roledescription="group mark container"><g transform="translate(0,0)"><path class="background" aria-hidden="true" d="M0.5,0.5h400v300h-400Z" stroke="#ddd"/><g><g class="mark-group role-axis" role="graphics-symbol" aria-roledescription="axis" aria-label="X-axis for a time scale with values from Saturday, 25 January 2020, 7:00:00 PM to Saturday, 15 May 2021, 8:00:00 PM"><g transform="translate(0.5,300.5)"><path class="background" aria-hidden="true" d="M0,0h0v0h0Z" pointer-events="none"/><g><g class="mark-rule role-axis-grid" pointer-events="none"><line transform="translate(5,-300)" x2="0" y2="300" stroke="#ddd" stroke-width="1" opacity="1"/><line transform="translate(30,-300)" x2="0" y2="300" stroke="#ddd" stroke-width="1" opacity="1"/><line transform="translate(56,-300)" x2="0" y2="300" stroke="#ddd" stroke-width="1" opacity="1"/><line transform="translate(81,-300)" x2="0" y2="300" stroke="#ddd" stroke-width="1" opacity="1"/><line transform="translate(107,-300)" x2="0" y2="300" stroke="#ddd" stroke-width="1" opacity="1"/><line transform="translate(132,-300)" x2="0" y2="300" stroke="#ddd" stroke-width="1" opacity="1"/><line transform="translate(158,-300)" x2="0" y2="300" stroke="#ddd" stroke-width="1" opacity="1"/><line transform="translate(184,-300)" x2="0" y2="300" stroke="#ddd" stroke-width="1" opacity="1"/><line transform="translate(209,-300)" x2="0" y2="300" stroke="#ddd" stroke-width="1" opacity="1"/><line transform="translate(235,-300)" x2="0" y2="300" stroke="#ddd" stroke-width="1" opacity="1"/><line transform="translate(261,-300)" x2="0" y2="300" stroke="#ddd" stroke-width="1" opacity="1"/><line transform="translate(287,-300)" x2="0" y2="300" stroke="#ddd" stroke-width="1" opacity="1"/><line transform="translate(313,-300)" x2="0" y2="300" stroke="#ddd" stroke-width="1" opacity="1"/><line transform="translate(336,-300)" x2="0" y2="300" stroke="#ddd" stroke-width="1" opacity="1"/><line transform="translate(362,-300)" x2="0" y2="300" stroke="#ddd" stroke-width="1" opacity="1"/><line transform="translate(388,-300)" x2="0" y2="300" stroke="#ddd" stroke-width="1" opacity="1"/></g></g><path class="foreground" aria-hidden="true" d="" pointer-events="none" display="none"/></g></g><g class="mark-group role-axis" role="graphics-symbol" aria-roledescription="axis" aria-label="Y-axis for a linear scale with values from −1.0 to 1.0"><g transform="translate(0.5,0.5)"><path class="background" aria-hidden="true" d="M0,0h0v0h0Z" pointer-events="none"/><g><g class="mark-rule role-axis-grid" pointer-events="none"><line transform="translate(0,300)" x2="400" y2="0" stroke="#ddd" stroke-width="1" opacity="1"/><line transform="translate(0,270)" x2="400" y2="0" stroke="#ddd" stroke-width="1" opacity="1"/><line transform="translate(0,240)" x2="400" y2="0" stroke="#ddd" stroke-width="1" opacity="1"/><line transform="translate(0,210)" x2="400" y2="0" stroke="#ddd" stroke-width="1" opacity="1"/><line transform="translate(0,180)" x2="400" y2="0" stroke="#ddd" stroke-width="1" opacity="1"/><line transform="translate(0,150)" x2="400" y2="0" stroke="#ddd" stroke-width="1" opacity="1"/><line transform="translate(0,120)" x2="400" y2="0" stroke="#ddd" stroke-width="1" opacity="1"/><line transform="translate(0,90)" x2="400" y2="0" stroke="#ddd" stroke-width="1" opacity="1"/><line transform="translate(0,60)" x2="400" y2="0" stroke="#ddd" stroke-width="1" opacity="1"/><line transform="translate(0,30)" x2="400" y2="0" stroke="#ddd" stroke-width="1" opacity="1"/><line transform="translate(0,0)" x2="400" y2="0" stroke="#ddd" stroke-width="1" opacity="1"/></g></g><path class="foreground" aria-hidden="true" d="" pointer-events="none" display="none"/></g></g><g class="mark-group role-axis" role="graphics-symbol" aria-roledescription="axis" aria-label="X-axis titled 'Month' for a time scale with values from Saturday, 25 January 2020, 7:00:00 PM to Saturday, 15 May 2021, 8:00:00 PM"><g transform="translate(0.5,300.5)"><path class="background" aria-hidden="true" d="M0,0h0v0h0Z" pointer-events="none"/><g><g class="mark-rule role-axis-tick" pointer-events="none"><line transform="translate(5,0)" x2="0" y2="5" stroke="#888" stroke-width="1" opacity="1"/><line transform="translate(30,0)" x2="0" y2="5" stroke="#888" stroke-width="1" opacity="1"/><line transform="translate(56,0)" x2="0" y2="5" stroke="#888" stroke-width="1" opacity="1"/><line transform="translate(81,0)" x2="0" y2="5" stroke="#888" stroke-width="1" opacity="1"/><line transform="translate(107,0)" x2="0" y2="5" stroke="#888" stroke-width="1" opacity="1"/><line transform="translate(132,0)" x2="0" y2="5" stroke="#888" stroke-width="1" opacity="1"/><line transform="translate(158,0)" x2="0" y2="5" stroke="#888" stroke-width="1" opacity="1"/><line transform="translate(184,0)" x2="0" y2="5" stroke="#888" stroke-width="1" opacity="1"/><line transform="translate(209,0)" x2="0" y2="5" stroke="#888" stroke-width="1" opacity="1"/><line transform="translate(235,0)" x2="0" y2="5" stroke="#888" stroke-width="1" opacity="1"/><line transform="translate(261,0)" x2="0" y2="5" stroke="#888" stroke-width="1" opacity="1"/><line transform="translate(287,0)" x2="0" y2="5" stroke="#888" stroke-width="1" opacity="1"/><line transform="translate(313,0)" x2="0" y2="5" stroke="#888" stroke-width="1" opacity="1"/><line transform="translate(336,0)" x2="0" y2="5" stroke="#888" stroke-width="1" opacity="1"/><line transform="translate(362,0)" x2="0" y2="5" stroke="#888" stroke-width="1" opacity="1"/><line transform="translate(388,0)" x2="0" y2="5" stroke="#888" stroke-width="1" opacity="1"/></g><g class="mark-text role-axis-label" pointer-events="none"><text text-anchor="middle" transform="translate(5.217086834733894,15)" font-family="sans-serif" font-size="10px" fill="#000" opacity="1">February</text><text text-anchor="middle" transform="translate(29.586834733893557,15)" font-family="sans-serif" font-size="10px" fill="#000" opacity="0">March</text><text text-anchor="middle" transform="translate(55.602240896358545,15)" font-family="sans-serif" font-size="10px" fill="#000" opacity="1">April</text><text text-anchor="middle" transform="translate(80.812324929972,15)" font-family="sans-serif" font-size="10px" fill="#000" opacity="0">May</text><text text-anchor="middle" transform="translate(106.86274509803921,15)" font-family="sans-serif" font-size="10px" fill="#000" opacity="1">June</text><text text-anchor="middle" transform="translate(132.07282913165267,15)" font-family="sans-serif" font-size="10px" fill="#000" opacity="0">July</text><text text-anchor="middle" transform="translate(158.12324929971987,15)" font-family="sans-serif" font-size="10px" fill="#000" opacity="1">August</text><text text-anchor="middle" transform="translate(184.1736694677871,15)" font-family="sans-serif" font-size="10px" fill="#000" opacity="0">September</text><text text-anchor="middle" transform="translate(209.38375350140058,15)" font-family="sans-serif" font-size="10px" fill="#000" opacity="1">October</text><text text-anchor="middle" transform="translate(235.43417366946778,15)" font-family="sans-serif" font-size="10px" fill="#000" opacity="0">November</text><text text-anchor="middle" transform="translate(260.6792717086835,15)" font-family="sans-serif" font-size="10px" fill="#000" opacity="1">December</text><text text-anchor="middle" transform="translate(286.7296918767507,15)" font-family="sans-serif" font-size="10px" fill="#000" opacity="0">2021</text><text text-anchor="middle" transform="translate(312.78011204481794,15)" font-family="sans-serif" font-size="10px" fill="#000" opacity="1">February</text><text text-anchor="middle" transform="translate(336.3095238095238,15)" font-family="sans-serif" font-size="10px" fill="#000" opacity="0">March</text><text text-anchor="middle" transform="translate(362.3249299719888,15)" font-family="sans-serif" font-size="10px" fill="#000" opacity="1">April</text><text text-anchor="middle" transform="translate(387.53501400560225,15)" font-family="sans-serif" font-size="10px" fill="#000" opacity="0">May</text></g><g class="mark-rule role-axis-domain" pointer-events="none"><line transform="translate(0,0)" x2="400" y2="0" stroke="#888" stroke-width="1" opacity="1"/></g><g class="mark-text role-axis-title" pointer-events="none"><text text-anchor="middle" transform="translate(200,30)" font-family="sans-serif" font-size="11px" font-weight="bold" fill="#000" opacity="1">Month</text></g></g><path class="foreground" aria-hidden="true" d="" pointer-events="none" display="none"/></g></g><g class="mark-group role-axis" role="graphics-symbol" aria-roledescription="axis" aria-label="Y-axis titled 'Change compared to baseline' for a linear scale with values from −100% to 100%"><g transform="translate(0.5,0.5)"><path class="background" aria-hidden="true" d="M0,0h0v0h0Z" pointer-events="none"/><g><g class="mark-rule role-axis-tick" pointer-events="none"><line transform="translate(0,300)" x2="-5" y2="0" stroke="#888" stroke-width="1" opacity="1"/><line transform="translate(0,270)" x2="-5" y2="0" stroke="#888" stroke-width="1" opacity="1"/><line transform="translate(0,240)" x2="-5" y2="0" stroke="#888" stroke-width="1" opacity="1"/><line transform="translate(0,210)" x2="-5" y2="0" stroke="#888" stroke-width="1" opacity="1"/><line transform="translate(0,180)" x2="-5" y2="0" stroke="#888" stroke-width="1" opacity="1"/><line transform="translate(0,150)" x2="-5" y2="0" stroke="#888" stroke-width="1" opacity="1"/><line transform="translate(0,120)" x2="-5" y2="0" stroke="#888" stroke-width="1" opacity="1"/><line transform="translate(0,90)" x2="-5" y2="0" stroke="#888" stroke-width="1" opacity="1"/><line transform="translate(0,60)" x2="-5" y2="0" stroke="#888" stroke-width="1" opacity="1"/><line transform="translate(0,30)" x2="-5" y2="0" stroke="#888" stroke-width="1" opacity="1"/><line transform="translate(0,0)" x2="-5" y2="0" stroke="#888" stroke-width="1" opacity="1"/></g><g class="mark-text role-axis-label" pointer-events="none"><text text-anchor="end" transform="translate(-7,303)" font-family="sans-serif" font-size="10px" fill="#000" opacity="1">−100%</text><text text-anchor="end" transform="translate(-7,273)" font-family="sans-serif" font-size="10px" fill="#000" opacity="1">−80%</text><text text-anchor="end" transform="translate(-7,243)" font-family="sans-serif" font-size="10px" fill="#000" opacity="1">−60%</text><text text-anchor="end" transform="translate(-7,213)" font-family="sans-serif" font-size="10px" fill="#000" opacity="1">−40%</text><text text-anchor="end" transform="translate(-7,183)" font-family="sans-serif" font-size="10px" fill="#000" opacity="1">−20%</text><text text-anchor="end" transform="translate(-7,153)" font-family="sans-serif" font-size="10px" fill="#000" opacity="1">0%</text><text text-anchor="end" transform="translate(-7,123)" font-family="sans-serif" font-size="10px" fill="#000" opacity="1">20%</text><text text-anchor="end" transform="translate(-7,93.00000000000001)" font-family="sans-serif" font-size="10px" fill="#000" opacity="1">40%</text><text text-anchor="end" transform="translate(-7,62.999999999999986)" font-family="sans-serif" font-size="10px" fill="#000" opacity="1">60%</text><text text-anchor="end" transform="translate(-7,32.99999999999999)" font-family="sans-serif" font-size="10px" fill="#000" opacity="1">80%</text><text text-anchor="end" transform="translate(-7,3)" font-family="sans-serif" font-size="10px" fill="#000" opacity="1">100%</text></g><g class="mark-rule role-axis-domain" pointer-events="none"><line transform="translate(0,300)" x2="0" y2="-300" stroke="#888" stroke-width="1" opacity="1"/></g><g class="mark-text role-axis-title" pointer-events="none"><text text-anchor="middle" transform="translate(-42.416015625,150) rotate(-90) translate(0,-2)" font-family="sans-serif" font-size="11px" font-weight="bold" fill="#000" opacity="1">Change compared to baseline</text></g></g><path class="foreground" aria-hidden="true" d="" pointer-events="none" display="none"/></g></g><g class="mark-group role-scope pathgroup" role="graphics-object" aria-roledescription="group mark container"><g transform="translate(0,0)"><path class="background" aria-hidden="true" d="M0,0h400v300h-400Z"/><g><g class="mark-line role-mark marks" role="graphics-symbol" aria-roledescription="line mark container"><path d="M0,142.90928565L0.8403361344537815,144.22714290000002L1.680672268907563,144.63964289999998L2.5210084033613445,145.07892855000003L3.361344537815126,145.2L4.201680672268908,145.00500000000002L5.042016806722689,143.93142855000002L5.88235294117647,146.11071435L6.722689075630252,145.7046429L7.563025210084033,145.3275L8.403361344537815,145.16142855000004L9.243697478991598,144.92999999999998L10.084033613445378,144.65035709999998L10.92436974789916,143.26714289999998L11.76470588235294,142.72714290000002L12.605042016806722,141.97071435L13.445378151260504,140.9678571L14.285714285714285,140.30464289999998L15.126050420168067,139.34464289999997L15.966386554621847,137.01964289999995L16.80672268907563,135.24428565L17.647058823529413,131.86607145L18.487394957983195,130.365L19.327731092436977,129.55928565L20.168067226890756,128.59071435L21.008403361344538,127.84392855000002L21.84873949579832,127.35L22.689075630252102,126.84107144999997L23.52941176470588,126.84107144999997L24.369747899159663,126.88500000000002L25.210084033613445,127.19678565000001L26.05042016806723,127.305L26.89075630252101,127.73678565000002L27.73109243697479,129.34821435L28.57142857142857,130.23428565L29.411764705882355,132.31392855L30.252100840336134,133.30285710000004L31.092436974789916,133.61785710000004L31.932773109243694,133.89964289999998L32.773109243697476,134.0046429L33.61344537815126,134.69357145L34.45378151260504,135.56142855000002L35.294117647058826,135.95357145L36.134453781512605,135.24428565L36.97478991596639,135.50357145L37.81512605042017,136.76571435000002L38.655462184873954,139.76999999999998L39.49579831932773,145.56321434999998L40.33613445378151,153.141428565L41.17647058823529,159.16607143500002L42.016806722689076,165.10928571L42.857142857142854,172.04892856499998L43.69747899159664,179.79428571L44.537815126050425,188.71392856499997L45.378151260504204,199.12928571L46.21848739495798,210.85821429000003L47.05882352941176,219.673928565L47.89915966386555,228.52821429000002L48.739495798319325,236.60785714500003L49.57983193277311,244.10678571L50.42016806722689,250.48178571L51.26050420168067,256.42821429L52.10084033613446,261.241071435L52.94117647058824,264.24L53.78151260504202,266.633571435L54.621848739495796,268.31464285500005L55.46218487394958,269.671071435L56.30252100840336,270.669642855L57.14285714285714,271.622142855L57.98319327731093,272.11178571L58.82352941176471,272.21571429L59.66386554621849,272.21785714500004L60.50420168067227,272.32500000000005L61.34453781512605,272.308928565L62.18487394957983,272.39571429L63.02521008403361,272.53071429L63.86554621848739,272.303571435L64.70588235294117,272.16321429L65.54621848739495,272.16214285499996L66.38655462184873,271.948928565L67.22689075630252,271.72178571L68.0672268907563,271.461428565L68.90756302521008,271.149642855L69.74789915966386,270.898928565L70.58823529411765,270.403928565L71.42857142857143,270.069642855L72.26890756302521,269.8725L73.10924369747899,269.503928565L73.94957983193278,269.17071429000003L74.78991596638656,268.86107143500004L75.63025210084034,268.20750000000004L76.47058823529412,267.935357145L77.31092436974791,267.56571429L78.15126050420169,267.03321429L78.99159663865547,266.75142856499997L79.83193277310924,266.454642855L80.67226890756302,265.9575L81.5126050420168,264.94071429L82.35294117647058,264.369642855L83.19327731092437,263.83178570999996L84.03361344537815,263.1L84.87394957983193,262.768928565L85.71428571428571,262.133571435L86.5546218487395,261.651428565L87.39495798319328,261.500357145L88.23529411764706,260.8425L89.07563025210085,263.19428571000003L89.91596638655463,265.898571435L90.75630252100841,265.25678571L91.59663865546219,264.511071435L92.43697478991596,263.58535714500005L93.27731092436974,263.053928565L94.11764705882352,262.734642855L94.9579831932773,262.314642855L95.7983193277311,261.82071429L96.63865546218487,261.00107143500003L97.47899159663865,260.24142856500004L98.31932773109243,259.00928571000003L99.15966386554622,258.66428571L100,257.776071435L100.84033613445378,254.34428570999998L101.68067226890756,250.4175L102.52100840336134,249.54857143499999L103.36134453781514,248.927142855L104.20168067226892,248.4975L105.0420168067227,247.689642855L105.88235294117648,246.93535714499998L106.72268907563026,245.886428565L107.56302521008404,245.20928571L108.40336134453781,245.23178571L109.24369747899159,244.98L110.08403361344538,245.16642856500002L110.92436974789916,244.3275L111.76470588235294,244.18821429000002L112.60504201680672,243.23571429L113.4453781512605,242.62071429L114.28571428571428,242.038928565L115.12605042016806,241.51821428999997L115.96638655462186,240.24535714499999L116.80672268907564,239.840357145L117.64705882352942,239.488928565L118.4873949579832,239.01321429L119.32773109243698,238.134642855L120.16806722689076,236.604642855L121.00840336134453,235.4475L121.84873949579831,233.10428571L122.6890756302521,232.051071435L123.52941176470588,231.54857143499999L124.36974789915966,230.5275L125.21008403361344,229.32L126.05042016806722,228.08571429L126.890756302521,226.46785714499998L127.73109243697478,225.192857145L128.57142857142858,224.66678571L129.41176470588235,223.704642855L130.25210084033614,222.60964285500003L131.0924369747899,221.532857145L131.9327731092437,220.39178570999997L132.77310924369746,218.48250000000002L133.61344537815125,219.36857143499998L134.45378151260505,219.44142856499997L135.29411764705884,218.91214285499998L136.1344537815126,218.81035714499998L136.9747899159664,218.54142856500002L137.81512605042016,218.240357145L138.65546218487395,217.483928565L139.49579831932772,218.50821428999998L140.3361344537815,217.99071429L141.1764705882353,217.26857143499998L142.01680672268907,216.968571435L142.85714285714286,216.42000000000002L143.69747899159663,215.743928565L144.53781512605042,215.862857145L145.37815126050418,213.85071428999998L146.21848739495798,211.73250000000002L147.05882352941177,210.71571429000002L147.89915966386556,209.968928565L148.73949579831933,209.29178571L149.57983193277312,208.90392856500003L150.42016806722688,208.926428565L151.26050420168067,206.945357145L152.10084033613444,205.16571429L152.94117647058823,204.878571435L153.78151260504202,204.43714285500002L154.62184873949582,204.200357145L155.46218487394958,203.81250000000003L156.30252100840337,203.51357143500002L157.14285714285714,203.02821429000002L157.98319327731093,202.45928571000002L158.8235294117647,202.39821429000003L159.6638655462185,201.69321429000001L160.50420168067228,202.73678571000002L161.34453781512605,201.31499999999997L162.18487394957984,200.32928571L163.0252100840336,200.01428571L163.8655462184874,199.854642855L164.70588235294116,199.254642855L165.54621848739495,198.74464285500002L166.38655462184875,198.33535714500002L167.22689075630254,198.515357145L168.0672268907563,198.6375L168.9075630252101,197.63357143500002L169.74789915966386,197.14714285500003L170.58823529411765,197.45892856499998L171.42857142857142,197.17928571L172.2689075630252,195.12321429L173.109243697479,195.71571429000002L173.94957983193277,195.31178571L174.78991596638656,194.1825L175.63025210084032,193.49571429L176.47058823529412,193.2675L177.31092436974788,193.21071429L178.1512605042017,193.085357145L178.99159663865547,192.437142855L179.83193277310926,191.8125L180.67226890756302,192.148928565L181.51260504201682,193.1325L182.35294117647058,190.932857145L183.19327731092437,190.95428571L184.03361344537814,191.10428571L184.87394957983193,191.05178571000002L185.71428571428572,191.24571429L186.5546218487395,190.78714285499998L187.39495798319328,190.26642856499998L188.23529411764704,189.4425L189.07563025210084,189.80678570999999L189.9159663865546,189.81L190.75630252100842,189.93L191.5966386554622,190.41321429L192.43697478991598,189.17678571L193.27731092436974,186.673928565L194.11764705882354,187.23428571L194.9579831932773,187.23642856499998L195.7983193277311,187.28571429000002L196.63865546218486,187.05214285500003L197.47899159663865,186.945L198.31932773109244,187.15071429L199.15966386554624,186.43178570999999L200,186.73178571000003L200.84033613445376,186.638571435L201.68067226890756,186.801428565L202.52100840336135,186.73178571000003L203.3613445378151,185.946428565L204.20168067226888,185.94535714499997L205.04201680672267,185.68071429000003L205.88235294117646,185.387142855L206.72268907563029,185.855357145L207.56302521008405,186.65357143500003L208.40336134453784,187.01571429L209.2436974789916,187.03714285499998L210.0840336134454,187.23107143500002L210.92436974789916,187.096071435L211.76470588235296,187.40250000000003L212.60504201680672,187.57178571L213.4453781512605,187.72071429L214.28571428571428,188.31428571L215.12605042016807,188.570357145L215.96638655462183,188.671071435L216.80672268907563,188.213571435L217.6470588235294,188.44928571000003L218.48739495798318,189.507857145L219.327731092437,189.71678570999998L220.16806722689077,189.526071435L221.00840336134456,189.477857145L221.84873949579833,190.7175L222.68907563025212,190.516071435L223.52941176470588,190.23428571L224.36974789915968,190.16571429L225.21008403361344,190.30714285500002L226.05042016806723,190.15821429000002L226.890756302521,190.27821429000002L227.7310924369748,190.68857143500003L228.57142857142856,191.356071435L229.41176470588235,191.42678571L230.2521008403361,190.602857145L231.0924369747899,190.318928565L231.93277310924373,190.905L232.7731092436975,192.13178571L233.61344537815128,191.870357145L234.45378151260505,193.19357143500002L235.29411764705884,194.67857143499998L236.1344537815126,195.34928570999998L236.9747899159664,196.805357145L237.81512605042016,198.43821429L238.65546218487395,199.63178571L239.49579831932772,200.85428571L240.3361344537815,201.58178571L241.17647058823528,201.781071435L242.01680672268907,202.167857145L242.85714285714283,202.35321428999998L243.69747899159663,203.26178571L244.53781512605045,204.07178570999997L245.3781512605042,204.76821429L246.218487394958,205.04250000000002L247.05882352941177,205.2525L247.89915966386556,205.50321429L248.73949579831933,205.05107143499998L249.57983193277312,204.590357145L250.42016806722688,204.812142855L251.26050420168067,205.231071435L252.10084033613444,206.401071435L252.94117647058823,207.78428570999998L253.781512605042,208.10571428999998L254.6218487394958,208.40571429000002L255.46218487394955,207.81428570999998L256.3025210084034,210.34821429000002L257.14285714285717,212.14392856499998L257.98319327731093,214.3125L258.8235294117647,214.51285714500003L259.6638655462185,215.41928571L260.5042016806723,215.847857145L261.34453781512605,216.313928565L262.1848739495798,216.60428571L263.02521008403363,217.63821429L263.8655462184874,218.86071429000003L264.70588235294116,218.45571429L265.5462184873949,218.80285714500002L266.38655462184875,219.61071429L267.2268907563025,220.45607143499998L268.0672268907563,217.6725L268.9075630252101,215.776071435L269.74789915966386,214.28678571L270.5882352941177,212.934642855L271.42857142857144,212.59178571L272.2689075630252,211.850357145L273.109243697479,212.76428571L273.9495798319328,215.26928571L274.78991596638656,215.66892856500002L275.6302521008403,215.625L276.4705882352941,216.36964285499997L277.3109243697479,215.46964285500002L278.1512605042017,214.20642856499998L278.99159663865544,212.33785714500002L279.8319327731092,213.32678571L280.672268907563,217.53964285499998L281.51260504201684,219.71035714500002L282.3529411764706,221.135357145L283.1932773109244,220.04571429L284.03361344537814,219.88178571L284.87394957983196,217.689642855L285.7142857142857,214.92749999999998L286.5546218487395,216.43499999999997L287.39495798319325,216.07821428999998L288.2352941176471,216.943928565L289.07563025210084,218.202857145L289.9159663865546,219.647142855L290.75630252100837,221.97428571000003L291.5966386554622,221.86499999999998L292.43697478991595,219.26571429L293.2773109243697,218.600357145L294.11764705882354,218.881071435L294.9579831932773,220.15821429L295.7983193277311,221.08071428999997L296.6386554621849,222.55178571000002L297.47899159663865,223.11428571L298.31932773109247,221.229642855L299.15966386554624,221.52107143499998L300,220.02857143499998L300.84033613445376,219.55392856499998L301.68067226890753,219.56785714500003L302.52100840336135,219.67178571L303.3613445378151,219.3075L304.2016806722689,218.72678571L305.0420168067227,218.59392856500003L305.88235294117646,218.720357145L306.7226890756303,218.65821429L307.56302521008405,219.24535714499999L308.4033613445378,219.15321429000002L309.24369747899163,219.0975L310.0840336134454,219.43499999999997L310.92436974789916,219.68571429L311.7647058823529,220.74749999999997L312.60504201680675,224.115L313.4453781512605,226.156071435L314.2857142857143,226.227857145L315.12605042016804,226.032857145L315.96638655462186,226.09071429L316.8067226890756,225.67178571L317.6470588235294,227.2275L318.48739495798316,227.41071429000002L319.327731092437,227.151428565L320.1680672268908,226.823571435L321.00840336134456,226.73892856499998L321.8487394957983,225.3075L322.6890756302521,224.00464285500001L323.5294117647059,221.34L324.3697478991597,218.221071435L325.21008403361344,215.87250000000003L326.0504201680672,214.598571435L326.890756302521,216.471428565L327.7310924369748,217.3125L328.57142857142856,217.10035714499998L329.4117647058823,214.94678571L330.25210084033614,214.850357145L331.0924369747899,214.25035714499998L331.9327731092437,213.707142855L332.7731092436975,212.75035714499998L333.61344537815125,212.55214285500003L334.4537815126051,212.80714285500002L335.29411764705884,214.50428571L336.1344537815126,214.13785714500003L336.97478991596637,213.79821429L337.8151260504202,213.612857145L338.65546218487395,211.19142856500002L339.4957983193277,209.11821429000003L340.3361344537815,208.18285714499999L341.1764705882353,207.50678571L342.01680672268907,206.716071435L342.85714285714283,205.911428565L343.6974789915966,205.644642855L344.5378151260504,204.954642855L345.37815126050424,212.94321429L346.218487394958,211.38L347.05882352941177,210.28714285499998L347.89915966386553,209.843571435L348.73949579831935,209.47071429L349.5798319327731,209.15571429L350.4201680672269,208.926428565L351.26050420168065,208.12928571L352.10084033613447,206.236071435L352.94117647058823,204.56678571000003L353.781512605042,203.761071435L354.62184873949576,203.32178571L355.4621848739496,203.236071435L356.3025210084034,202.928571435L357.14285714285717,193.41214285499998L357.98319327731093,191.72250000000003L358.8235294117647,192.170357145L359.6638655462185,191.25321429000002L360.5042016806723,189.59678571L361.34453781512605,189.11464285500003L362.1848739495798,187.9725L363.02521008403363,187.66714285499998L363.8655462184874,187.84821429L364.70588235294116,188.70857143499998L365.5462184873949,188.00571429L366.38655462184875,187.115357145L367.2268907563025,185.679642855L368.0672268907563,184.71107143500004L368.9075630252101,184.39071429000003L369.74789915966386,184.262142855L370.5882352941177,183.786428565L371.42857142857144,184.01678571000002L372.2689075630252,184.16464285499998L373.109243697479,183.650357145L373.9495798319328,183.846428565L374.78991596638656,182.50821429L375.6302521008403,180.97500000000002L376.4705882352941,179.35071429L377.3109243697479,179.34107143500003L378.1512605042017,178.478571435L378.99159663865544,179.22214285500002L379.8319327731092,179.7675L380.672268907563,178.918928565L381.51260504201684,177.452142855L382.3529411764706,176.58857143499998L383.1932773109244,175.95000000000002L384.03361344537814,176.09678571L384.87394957983196,175.058571435L385.7142857142857,174.3975L386.5546218487395,174.25178571L387.39495798319325,173.91321428999998L388.2352941176471,173.480357145L389.07563025210084,173.45571429L389.9159663865546,174.068571435L390.75630252100837,173.356071435L391.5966386554622,172.20964285499997L392.43697478991595,171.92678571000002L393.2773109243697,173.953928565L394.11764705882354,173.66571428999998L394.9579831932773,173.295L395.7983193277311,172.39500000000004L396.6386554621849,172.367142855L397.47899159663865,170.66678571L398.31932773109247,168.913928565L399.15966386554624,167.18249999999998L400,166.737857145" stroke="#4c78a8" stroke-width="2"/></g></g><path class="foreground" aria-hidden="true" d="" display="none"/></g><g transform="translate(0,0)"><path class="background" aria-hidden="true" d="M0,0h400v300h-400Z"/><g><g class="mark-line role-mark marks" role="graphics-symbol" aria-roledescription="line mark container"><path d="M0,154.99928571L0.8403361344537815,156.66428571000003L1.680672268907563,156.67392856499998L2.5210084033613445,156.80464285499997L3.361344537815126,156.362142855L4.201680672268908,155.994642855L5.042016806722689,155.442857145L5.88235294117647,157.02428571L6.722689075630252,156.6075L7.563025210084033,156.357857145L8.403361344537815,156.381428565L9.243697478991598,156.30428571L10.084033613445378,156.035357145L10.92436974789916,154.726071435L11.76470588235294,154.36178571L12.605042016806722,154.05L13.445378151260504,153.51857143499998L14.285714285714285,153.01071429L15.126050420168067,152.50607143500002L15.966386554621847,151.22678571L16.80672268907563,150.3675L17.647058823529413,148.575L18.487394957983195,147.42214289999998L19.327731092436977,146.9046429L20.168067226890756,146.10964289999998L21.008403361344538,145.49357144999996L21.84873949579832,145.15928565L22.689075630252102,145.20964289999998L23.52941176470588,145.54178565L24.369747899159663,145.64892855000002L25.210084033613445,146.06892855L26.05042016806723,146.38178564999998L26.89075630252101,146.9753571L27.73109243697479,147.65142855000002L28.57142857142857,147.7425L29.411764705882355,149.19L30.252100840336134,150.17571429L31.092436974789916,150.60321429L31.932773109243694,151.171071435L32.773109243697476,151.65964285500002L33.61344537815126,152.71285714500002L34.45378151260504,153.49285714500002L35.294117647058826,153.86999999999998L36.134453781512605,153.819642855L36.97478991596639,154.78928571L37.81512605042017,156.688928565L38.655462184873954,160.74857143499997L39.49579831932773,167.607857145L40.33613445378151,175.228928565L41.17647058823529,181.21178571L42.016806722689076,188.101071435L42.857142857142854,195.8775L43.69747899159664,204.375L44.537815126050425,213.63214285500004L45.378151260504204,224.076428565L46.21848739495798,235.171071435L47.05882352941176,243.216428565L47.89915966386555,251.70428571000002L48.739495798319325,259.395L49.57983193277311,266.59178571L50.42016806722689,272.17928571L51.26050420168067,277.035L52.10084033613446,281.273571435L52.94117647058824,283.6875L53.78151260504202,285.31178571450005L54.621848739495796,286.4292857145L55.46218487394958,287.29071428550003L56.30252100840336,287.941071429L57.14285714285714,288.538928571L57.98319327731093,288.8732142855L58.82352941176471,289.013571429L59.66386554621849,289.08214285649996L60.50420168067227,289.2417857145L61.34453781512605,289.356428571L62.18487394957983,289.5332142855L63.02521008403361,289.793571429L63.86554621848739,289.838571429L64.70588235294117,289.9146428565L65.54621848739495,290.041071429L66.38655462184873,290.0582142855L67.22689075630252,290.076428571L68.0672268907563,290.0753571435L68.90756302521008,290.101071429L69.74789915966386,290.1225L70.58823529411765,290.0871428565L71.42857142857143,290.06142857099996L72.26890756302521,290.031428571L73.10924369747899,289.971428571L73.94957983193278,289.8921428565L74.78991596638656,289.876071429L75.63025210084034,289.8021428565L76.47058823529412,289.7442857145L77.31092436974791,289.6617857145L78.15126050420169,289.568571429L78.99159663865547,289.483928571L79.83193277310924,289.4282142855L80.67226890756302,289.273928571L81.5126050420168,289.0478571435L82.35294117647058,288.8925L83.19327731092437,288.72321428550003L84.03361344537815,288.5153571435L84.87394957983193,288.36964285650004L85.71428571428571,288.1875L86.5546218487395,288.0621428565L87.39495798319328,287.985L88.23529411764706,287.88428571450004L89.07563025210085,287.851071429L89.91596638655463,287.9892857145L90.75630252100841,287.8296428565L91.59663865546219,287.641071429L92.43697478991596,287.4492857145L93.27731092436974,287.31L94.11764705882352,287.2328571435L94.9579831932773,287.1117857145L95.7983193277311,286.9928571435L96.63865546218487,286.82357142899997L97.47899159663865,286.6767857145L98.31932773109243,286.42392857100003L99.15966386554622,286.326428571L100,286.0371428565L100.84033613445378,285.781071429L101.68067226890756,285.248571429L102.52100840336134,284.993571435L103.36134453781514,284.787857145L104.20168067226892,284.615357145L105.0420168067227,284.27464285499997L105.88235294117648,284.0325L106.72268907563026,283.755L107.56302521008404,283.298571435L108.40336134453781,283.194642855L109.24369747899159,282.953571435L110.08403361344538,282.777857145L110.92436974789916,282.27321429L111.76470588235294,282.002142855L112.60504201680672,281.42678571L113.4453781512605,281.011071435L114.28571428571428,280.61678571L115.12605042016806,280.26428570999997L115.96638655462186,279.662142855L116.80672268907564,279.297857145L117.64705882352942,278.94428571000003L118.4873949579832,278.54678571L119.32773109243698,278.273571435L120.16806722689076,277.62L121.00840336134453,277.1025L121.84873949579831,276.16285714500003L122.6890756302521,275.791071435L123.52941176470588,275.567142855L124.36974789915966,275.13321429L125.21008403361344,274.599642855L126.05042016806722,273.995357145L126.890756302521,273.267857145L127.73109243697478,272.611071435L128.57142857142858,272.255357145L129.41176470588235,271.72821429L130.25210084033614,271.096071435L131.0924369747899,270.582857145L131.9327731092437,270.091071435L132.77310924369746,269.236071435L133.61344537815125,269.26500000000004L134.45378151260505,268.87071428999997L135.29411764705884,268.527857145L136.1344537815126,268.335L136.9747899159664,268.08428571L137.81512605042016,267.8175L138.65546218487395,267.231428565L139.49579831932772,267.59571429000005L140.3361344537815,267.26678571L141.1764705882353,266.807142855L142.01680672268907,266.573571435L142.85714285714286,266.0625L143.69747899159663,265.5675L144.53781512605042,265.418571435L145.37815126050418,264.658928565L146.21848739495798,263.72678571L147.05882352941177,263.06357143500003L147.89915966386556,262.656428565L148.73949579831933,262.172142855L149.57983193277312,261.98142856500004L150.42016806722688,262.107857145L151.26050420168067,261.226071435L152.10084033613444,260.14071429L152.94117647058823,259.88678570999997L153.78151260504202,259.580357145L154.62184873949582,259.437857145L155.46218487394958,259.066071435L156.30252100840337,258.80035714499996L157.14285714285714,258.50892856499996L157.98319327731093,258.28178571L158.8235294117647,258.350357145L159.6638655462185,257.930357145L160.50420168067228,258.293571435L161.34453781512605,257.47285714500003L162.18487394957984,256.899642855L163.0252100840336,256.531071435L163.8655462184874,256.42178571L164.70588235294116,256.05428571L165.54621848739495,255.7125L166.38655462184875,255.30964285500002L167.22689075630254,255.40500000000003L168.0672268907563,255.47678571L168.9075630252101,254.85535714499997L169.74789915966386,254.27892856499997L170.58823529411765,254.32821429L171.42857142857142,254.01L172.2689075630252,252.943928565L173.109243697479,253.1025L173.94957983193277,252.5475L174.78991596638656,251.747142855L175.63025210084032,251.27571429000002L176.47058823529412,251.11071429L177.31092436974788,250.89107143500001L178.1512605042017,250.70571429L178.99159663865547,250.08321429L179.83193277310926,249.759642855L180.67226890756302,249.65142856499997L181.51260504201682,250.125L182.35294117647058,248.89071428999998L183.19327731092437,248.990357145L184.03361344537814,249.173571435L184.87394957983193,249.084642855L185.71428571428572,249.260357145L186.5546218487395,248.98499999999999L187.39495798319328,248.52428571L188.23529411764704,248.004642855L189.07563025210084,247.94892856500002L189.9159663865546,247.91357143500002L190.75630252100842,247.92535714500002L191.5966386554622,247.92000000000002L192.43697478991598,247.092857145L193.27731092436974,245.52535714500002L194.11764705882354,245.618571435L194.9579831932773,245.3775L195.7983193277311,245.1375L196.63865546218486,244.824642855L197.47899159663865,244.54178571000003L198.31932773109244,244.39071429L199.15966386554624,243.68892856500003L200,243.37071429L200.84033613445376,243.32999999999998L201.68067226890756,243.268928565L202.52100840336135,243.06321429000002L203.3613445378151,242.41928571L204.20168067226888,242.24785714499998L205.04201680672267,241.7775L205.88235294117646,241.337142855L206.72268907563029,241.257857145L207.56302521008405,241.58892856499997L208.40336134453784,241.629642855L209.2436974789916,241.449642855L210.0840336134454,241.242857145L210.92436974789916,240.97821429L211.76470588235296,241.22678571L212.60504201680672,241.23321429L213.4453781512605,241.156071435L214.28571428571428,241.344642855L215.12605042016807,241.15499999999997L215.96638655462183,241.093928565L216.80672268907563,240.882857145L217.6470588235294,240.927857145L218.48739495798318,241.49678571L219.327731092437,241.42071429L220.16806722689077,241.118571435L221.00840336134456,240.980357145L221.84873949579833,241.689642855L222.68907563025212,241.39071429L223.52941176470588,241.1475L224.36974789915968,240.99749999999997L225.21008403361344,240.968571435L226.05042016806723,240.758571435L226.890756302521,240.79071429L227.7310924369748,240.672857145L228.57142857142856,240.80142856499998L229.41176470588235,240.912857145L230.2521008403361,240.485357145L231.0924369747899,240.1425L231.93277310924373,240.38571429L232.7731092436975,241.093928565L233.61344537815128,240.63642856500002L234.45378151260505,240.88821429L235.29411764705884,241.59214285500002L236.1344537815126,241.82035714499997L236.9747899159664,242.472857145L237.81512605042016,243.263571435L238.65546218487395,243.69428571L239.49579831932772,244.148571435L240.3361344537815,244.14L241.17647058823528,243.86357143499998L242.01680672268907,243.75428571L242.85714285714283,243.69321429000001L243.69747899159663,244.010357145L244.53781512605045,244.108928565L245.3781512605042,244.24178571000002L246.218487394958,244.29749999999999L247.05882352941177,244.14964285500002L247.89915966386556,244.209642855L248.73949579831933,243.80142856499998L249.57983193277312,243.51321428999998L250.42016806722688,243.65678570999998L251.26050420168067,243.82178571L252.10084033613444,244.51821428999997L252.94117647058823,245.28750000000002L253.781512605042,245.653928565L254.6218487394958,246.068571435L255.46218487394955,246.15428570999998L256.3025210084034,247.65L257.14285714285717,248.870357145L257.98319327731093,250.725L258.8235294117647,251.218928565L259.6638655462185,251.93249999999998L260.5042016806723,252.242142855L261.34453781512605,252.471428565L262.1848739495798,252.61928571L263.02521008403363,253.36714285500003L263.8655462184874,254.158928565L264.70588235294116,253.79571429L265.5462184873949,253.828928565L266.38655462184875,254.06785714500003L267.2268907563025,254.19428571L268.0672268907563,252.60642856500002L268.9075630252101,251.45571429L269.74789915966386,250.483928565L270.5882352941177,249.675L271.42857142857144,249.40071429L272.2689075630252,249.16071429000002L273.109243697479,249.68678571L273.9495798319328,250.59428571L274.78991596638656,250.52999999999997L275.6302521008403,250.478571435L276.4705882352941,251.07964285500003L277.3109243697479,250.704642855L278.1512605042017,250.27285714500002L278.99159663865544,249.82928571L279.8319327731092,250.793571435L280.672268907563,253.3425L281.51260504201684,255.01285714500003L282.3529411764706,256.02L283.1932773109244,255.31178570999998L284.03361344537814,255.137142855L284.87394957983196,254.011071435L285.7142857142857,253.18607143499997L286.5546218487395,254.5575L287.39495798319325,254.81464285500002L288.2352941176471,255.35785714500003L289.07563025210084,255.68464285500002L289.9159663865546,256.141071435L290.75630252100837,256.753928565L291.5966386554622,256.14321429L292.43697478991595,254.379642855L293.2773109243697,253.3125L294.11764705882354,252.950357145L294.9579831932773,253.538571435L295.7983193277311,253.842857145L296.6386554621849,254.39678571L297.47899159663865,254.30249999999998L298.31932773109247,252.99535714499999L299.15966386554624,252.59678571L300,251.52535714500002L300.84033613445376,251.32392856500002L301.68067226890753,251.24892856499997L302.52100840336135,251.25214285500002L303.3613445378151,251.01642856499998L304.2016806722689,250.584642855L305.0420168067227,250.269642855L305.88235294117646,250.205357145L306.7226890756303,250.096071435L307.56302521008405,250.36821429L308.4033613445378,250.26428571L309.24369747899163,250.32321429L310.0840336134454,250.557857145L310.92436974789916,250.775357145L311.7647058823529,251.52535714500002L312.60504201680675,253.00500000000002L313.4453781512605,253.65321429L314.2857142857143,253.2825L315.12605042016804,253.00500000000002L315.96638655462186,252.77785714499998L316.8067226890756,252.103928565L317.6470588235294,252.52607143499998L318.48739495798316,252.421071435L319.327731092437,252.152142855L320.1680672268908,251.903571435L321.00840336134456,251.660357145L321.8487394957983,250.52464285500002L322.6890756302521,249.43821429L323.5294117647059,247.785L324.3697478991597,246.0525L325.21008403361344,245.07107143500002L326.0504201680672,244.748571435L326.890756302521,245.487857145L327.7310924369748,245.62285714499998L328.57142857142856,245.526428565L329.4117647058823,244.55035714500002L330.25210084033614,244.66928571000003L331.0924369747899,244.30392856499998L331.9327731092437,243.80678570999999L332.7731092436975,243.26678571L333.61344537815125,242.967857145L334.4537815126051,243.095357145L335.29411764705884,244.00821429L336.1344537815126,244.05535714500002L336.97478991596637,243.872142855L337.8151260504202,243.41357143500002L338.65546218487395,242.29821429L339.4957983193277,241.378928565L340.3361344537815,240.90535714499998L341.1764705882353,240.59464285500002L342.01680672268907,240L342.85714285714283,239.39357143499998L343.6974789915966,239.169642855L344.5378151260504,238.49571429L345.37815126050424,243.49821429L346.218487394958,242.432142855L347.05882352941177,241.673571435L347.89915966386553,241.35750000000002L348.73949579831935,241.04571429L349.5798319327731,240.732857145L350.4201680672269,240.58071429L351.26050420168065,240.002142855L352.10084033613447,238.75928571L352.94117647058823,237.72214285500002L353.781512605042,237.009642855L354.62184873949576,236.686071435L355.4621848739496,236.731071435L356.3025210084034,236.50928570999997L357.14285714285717,230.248928565L357.98319327731093,228.80999999999997L358.8235294117647,229.02321429L359.6638655462185,228.204642855L360.5042016806723,226.959642855L361.34453781512605,226.70142856500001L362.1848739495798,225.71464285500002L363.02521008403363,225.285L363.8655462184874,225.47571428999998L364.70588235294116,225.94392856500002L365.5462184873949,225.58178571L366.38655462184875,224.76321428999998L367.2268907563025,223.51285714500003L368.0672268907563,222.73928571L368.9075630252101,222.301071435L369.74789915966386,222.261428565L370.5882352941177,221.828571435L371.42857142857144,221.95928571L372.2689075630252,221.83178571000002L373.109243697479,221.22321429L373.9495798319328,221.31L374.78991596638656,220.40999999999997L375.6302521008403,218.7L376.4705882352941,217.190357145L377.3109243697479,216.82714285499998L378.1512605042017,216.225L378.99159663865544,216.71357143499998L379.8319327731092,216.93535714499998L380.672268907563,216.0975L381.51260504201684,214.793571435L382.3529411764706,214.01678570999997L383.1932773109244,213.372857145L384.03361344537814,213.34928571L384.87394957983196,212.525357145L385.7142857142857,211.96821429L386.5546218487395,211.47642856500002L387.39495798319325,211.09071429000002L388.2352941176471,210.69535714499997L389.07563025210084,210.55499999999998L389.9159663865546,210.621428565L390.75630252100837,209.80499999999998L391.5966386554622,208.77107143499998L392.43697478991595,208.253571435L393.2773109243697,209.29607143500002L394.11764705882354,209.1975L394.9579831932773,208.74428571L395.7983193277311,207.81964285499998L396.6386554621849,207.44464285499998L397.47899159663865,205.581428565L398.31932773109247,204.03428571L399.15966386554624,202.56321429L400,201.857142855" stroke="#f58518" stroke-width="2"/></g></g><path class="foreground" aria-hidden="true" d="" display="none"/></g><g transform="translate(0,0)"><path class="background" aria-hidden="true" d="M0,0h400v300h-400Z"/><g><g class="mark-line role-mark marks" role="graphics-symbol" aria-roledescription="line mark container"><path d="M0,140.34964289999996L0.8403361344537815,141.56678564999999L1.680672268907563,141.80571435000002L2.5210084033613445,142.92321435L3.361344537815126,143.06357145L4.201680672268908,141.96321435L5.042016806722689,140.39142855000003L5.88235294117647,143.87571434999998L6.722689075630252,142.5975L7.563025210084033,141.17464289999998L8.403361344537815,140.68178565L9.243697478991598,140.80178564999997L10.084033613445378,141.44785710000002L10.92436974789916,138.85392855L11.76470588235294,138.2828571L12.605042016806722,138.35035710000002L13.445378151260504,137.73L14.285714285714285,136.9125L15.126050420168067,136.32000000000002L15.966386554621847,134.22857145L16.80672268907563,132.38142855L17.647058823529413,126.90214289999999L18.487394957983195,124.37892855L19.327731092436977,123.46499999999999L20.168067226890756,121.74964289999998L21.008403361344538,120.31178565L21.84873949579832,119.20071435000001L22.689075630252102,117.98035710000003L23.52941176470588,117.48964289999998L24.369747899159663,116.66035710000001L25.210084033613445,117.2175L26.05042016806723,117.36321435L26.89075630252101,117.6696429L27.73109243697479,119.25321435L28.57142857142857,120.8925L29.411764705882355,124.64571434999998L30.252100840336134,126.60535710000002L31.092436974789916,127.56642855L31.932773109243694,128.2725L32.773109243697476,128.2896429L33.61344537815126,130.16892855L34.45378151260504,131.42035710000002L35.294117647058826,131.4771429L36.134453781512605,129.56142855000002L36.97478991596639,128.76857144999997L37.81512605042017,129.77142855L38.655462184873954,132.9021429L39.49579831932773,139.56535710000003L40.33613445378151,148.17214289999998L41.17647058823529,155.29928571L42.016806722689076,163.325357145L42.857142857142854,171.78750000000002L43.69747899159664,181.65857143500003L44.537815126050425,192.64178571L45.378151260504204,204.07714285499998L46.21848739495798,218.858571435L47.05882352941176,229.78178571L47.89915966386555,241.239642855L48.739495798319325,250.9725L49.57983193277311,260.02821429L50.42016806722689,267.098571435L51.26050420168067,273.608571435L52.10084033613446,279.414642855L52.94117647058824,282.63321429L53.78151260504202,284.529642855L54.621848739495796,285.7071428565L55.46218487394958,286.64035714349995L56.30252100840336,287.2628571435L57.14285714285714,288.0707142855L57.98319327731093,288.3996428565L58.82352941176471,288.463928571L59.66386554621849,288.2796428565L60.50420168067227,288.3707142855L61.34453781512605,288.3417857145L62.18487394957983,288.54964285650004L63.02521008403361,288.855L63.86554621848739,288.6428571435L64.70588235294117,288.5271428565L65.54621848739495,288.6942857145L66.38655462184873,288.60321428550003L67.22689075630252,288.563571429L68.0672268907563,288.5325L68.90756302521008,288.4275L69.74789915966386,288.526071429L70.58823529411765,288.23464285650005L71.42857142857143,288.24107142900004L72.26890756302521,288.301071429L73.10924369747899,288.20678571450003L73.94957983193278,288.0803571435L74.78991596638656,288.0257142855L75.63025210084034,287.6753571435L76.47058823529412,287.75357142900003L77.31092436974791,287.5778571435L78.15126050420169,287.323928571L78.99159663865547,287.2757142855L79.83193277310924,287.258571429L80.67226890756302,287.0807142855L81.5126050420168,286.2921428565L82.35294117647058,285.966428571L83.19327731092437,285.76714285649996L84.03361344537815,285.391071429L84.87394957983193,285.38035714349996L85.71428571428571,285.0278571435L86.5546218487395,284.892857145L87.39495798319328,285.1403571435L88.23529411764706,284.69142856499997L89.07563025210085,284.627142855L89.91596638655463,284.96999999999997L90.75630252100841,284.6625L91.59663865546219,284.28428571L92.43697478991596,283.78178571L93.27731092436974,283.5825L94.11764705882352,283.614642855L94.9579831932773,283.452857145L95.7983193277311,283.276071435L96.63865546218487,282.84428571L97.47899159663865,282.593571435L98.31932773109243,282.0375L99.15966386554622,281.963571435L100,281.44821429L100.84033613445378,280.828928565L101.68067226890756,279.9975L102.52100840336134,279.602142855L103.36134453781514,279.357857145L104.20168067226892,279.24321428999997L105.0420168067227,278.88107143499997L105.88235294117648,278.31L106.72268907563026,277.606071435L107.56302521008404,276.95678571L108.40336134453781,277.01250000000005L109.24369747899159,276.872142855L110.08403361344538,276.99321429L110.92436974789916,276.252857145L111.76470588235294,276.19071429L112.60504201680672,275.814642855L113.4453781512605,275.466428565L114.28571428571428,275.145L115.12605042016806,274.9425L115.96638655462186,274.266428565L116.80672268907564,273.9375L117.64705882352942,273.879642855L118.4873949579832,273.785357145L119.32773109243698,273.57964285500003L120.16806722689076,272.676428565L121.00840336134453,272.034642855L121.84873949579831,270.546428565L122.6890756302521,270.001071435L123.52941176470588,269.870357145L124.36974789915966,269.368928565L125.21008403361344,268.665L126.05042016806722,267.923571435L126.890756302521,266.777142855L127.73109243697478,265.9125L128.57142857142858,265.843928565L129.41176470588235,265.2825L130.25210084033614,264.518571435L131.0924369747899,263.957142855L131.9327731092437,263.421428565L132.77310924369746,262.431428565L133.61344537815125,262.79678571L134.45378151260505,262.48821429L135.29411764705884,262.08428571L136.1344537815126,262.00928571000003L136.9747899159664,261.669642855L137.81512605042016,261.369642855L138.65546218487395,260.638928565L139.49579831932772,261.59571429L140.3361344537815,261.05785714499996L141.1764705882353,260.319642855L142.01680672268907,259.9575L142.85714285714286,259.172142855L143.69747899159663,258.2325L144.53781512605042,257.7375L145.37815126050418,256.442142855L146.21848739495798,255.01928571000002L147.05882352941177,254.34107143499998L147.89915966386556,253.756071435L148.73949579831933,253.26428571L149.57983193277312,253.12285714499998L150.42016806722688,253.32214285499998L151.26050420168067,251.747142855L152.10084033613444,250.27714285500002L152.94117647058823,250.273928565L153.78151260504202,250.100357145L154.62184873949582,250.13892856500001L155.46218487394958,249.98999999999998L156.30252100840337,249.97928571L157.14285714285714,249.67178571000002L157.98319327731093,248.993571435L158.8235294117647,248.802857145L159.6638655462185,248.14071429L160.50420168067228,249.126428565L161.34453781512605,247.88678570999997L162.18487394957984,246.94928571L163.0252100840336,246.54642856499999L163.8655462184874,245.95285714500002L164.70588235294116,245.18678571L165.54621848739495,244.64249999999998L166.38655462184875,244.028571435L167.22689075630254,244.23535714500002L168.0672268907563,244.287857145L168.9075630252101,243.3375L169.74789915966386,242.67321429L170.58823529411765,242.95285714500002L171.42857142857142,242.4L172.2689075630252,240.193928565L173.109243697479,240.36535714500002L173.94957983193277,239.653928565L174.78991596638656,238.35750000000002L175.63025210084032,237.82821428999998L176.47058823529412,237.48L177.31092436974788,237.253928565L178.1512605042017,237.22071429L178.99159663865547,236.12678571L179.83193277310926,235.704642855L180.67226890756302,235.60821429L181.51260504201682,236.41821429L182.35294117647058,234.1725L183.19327731092437,234.133928565L184.03361344537814,234.17357143499999L184.87394957983193,233.926071435L185.71428571428572,234.253928565L186.5546218487395,233.62928571L187.39495798319328,232.39071429L188.23529411764704,231.01928571L189.07563025210084,230.5575L189.9159663865546,230.22964285499998L190.75630252100842,230.346428565L191.5966386554622,230.49107143499998L192.43697478991598,229.06821429000001L193.27731092436974,226.21821429L194.11764705882354,226.33928571L194.9579831932773,226.25142856500003L195.7983193277311,226.313571435L196.63865546218486,225.9675L197.47899159663865,225.6525L198.31932773109244,225.58714285500002L199.15966386554624,224.80499999999998L200,225.342857145L200.84033613445376,225.616071435L201.68067226890756,225.489642855L202.52100840336135,225.07928571000002L203.3613445378151,223.944642855L204.20168067226888,223.673571435L205.04201680672267,222.931071435L205.88235294117646,222.4725L206.72268907563029,222.354642855L207.56302521008405,223.167857145L208.40336134453784,223.36821429L209.2436974789916,223.13357143500002L210.0840336134454,223.03714285499998L210.92436974789916,222.49821429000002L211.76470588235296,222.40928571L212.60504201680672,222.384642855L213.4453781512605,222.377142855L214.28571428571428,222.81535714499998L215.12605042016807,222.85821429L215.96638655462183,222.928928565L216.80672268907563,222.6225L217.6470588235294,222.519642855L218.48739495798318,223.92642856499998L219.327731092437,223.92428571L220.16806722689077,223.546071435L221.00840336134456,223.38321429L221.84873949579833,225.10285714499997L222.68907563025212,224.6325L223.52941176470588,224.322857145L224.36974789915968,224.28428571L225.21008403361344,224.44285714499998L226.05042016806723,224.236071435L226.890756302521,224.1525L227.7310924369748,224.02821429L228.57142857142856,224.222142855L229.41176470588235,224.59392856500003L230.2521008403361,223.70678571L231.0924369747899,223.026428565L231.93277310924373,223.55785714499999L232.7731092436975,225.291428565L233.61344537815128,224.55857143500003L234.45378151260505,226.021071435L235.29411764705884,227.79107143500002L236.1344537815126,228.41571429L236.9747899159664,229.3725L237.81512605042016,230.63035714500003L238.65546218487395,231.447857145L239.49579831932772,232.35750000000002L240.3361344537815,232.385357145L241.17647058823528,231.91178571L242.01680672268907,231.672857145L242.85714285714283,231.605357145L243.69747899159663,232.20857143499998L244.53781512605045,232.15821429000002L245.3781512605042,232.261071435L246.218487394958,232.056428565L247.05882352941177,231.66321428999998L247.89915966386556,231.62035714499999L248.73949579831933,231.429642855L249.57983193277312,231.42642856499998L250.42016806722688,231.771428565L251.26050420168067,232.257857145L252.10084033613444,234.035357145L252.94117647058823,235.73571429L253.781512605042,236.492142855L254.6218487394958,237.163928565L255.46218487394955,236.93464285500002L256.3025210084034,238.614642855L257.14285714285717,239.295L257.98319327731093,241.73678571L258.8235294117647,242.09035714499998L259.6638655462185,243.248571435L260.5042016806723,243.556071435L261.34453781512605,243.631071435L262.1848739495798,243.54L263.02521008403363,244.536428565L263.8655462184874,245.96571429L264.70588235294116,245.454642855L265.5462184873949,245.43321428999997L266.38655462184875,245.91964285499998L267.2268907563025,246.54642856499999L268.0672268907563,244.33607143499998L268.9075630252101,242.9325L269.74789915966386,241.10999999999999L270.5882352941177,239.24249999999998L271.42857142857144,238.77964285500002L272.2689075630252,238.30607143500004L273.109243697479,239.19428570999997L273.9495798319328,241.026428565L274.78991596638656,241.36071429L275.6302521008403,241.29535714500003L276.4705882352941,241.97678571L277.3109243697479,241.326428565L278.1512605042017,240.406071435L278.99159663865544,239.154642855L279.8319327731092,239.971071435L280.672268907563,243.69857143500002L281.51260504201684,246.388928565L282.3529411764706,248.10214285499998L283.1932773109244,246.26571429L284.03361344537814,245.687142855L284.87394957983196,243.28178570999998L285.7142857142857,240.812142855L286.5546218487395,241.48821429L287.39495798319325,240.68249999999998L288.2352941176471,241.790357145L289.07563025210084,242.46321429L289.9159663865546,243.377142855L290.75630252100837,244.715357145L291.5966386554622,244.607142855L292.43697478991595,242.826428565L293.2773109243697,242.258571435L294.11764705882354,242.61642856499998L294.9579831932773,244.32L295.7983193277311,245.26821429L296.6386554621849,246.74892856500003L297.47899159663865,247.64571428999997L298.31932773109247,246.81321429L299.15966386554624,247.426071435L300,245.528571435L300.84033613445376,244.99071429L301.68067226890753,245.083928565L302.52100840336135,245.25428570999998L303.3613445378151,245.14071429L304.2016806722689,244.57071428999998L305.0420168067227,244.54500000000002L305.88235294117646,244.857857145L306.7226890756303,244.816071435L307.56302521008405,245.360357145L308.4033613445378,245.360357145L309.24369747899163,245.76321429L310.0840336134454,246.63321429L310.92436974789916,247.45178571L311.7647058823529,249.13071429L312.60504201680675,251.91857143500002L313.4453781512605,253.2675L314.2857142857143,253.28464285500002L315.12605042016804,253.21928571L315.96638655462186,253.31464285500002L316.8067226890756,252.47678571L317.6470588235294,253.584642855L318.48739495798316,253.87178571L319.327731092437,253.748571435L320.1680672268908,253.76464285499998L321.00840336134456,253.603928565L321.8487394957983,251.859642855L322.6890756302521,249.7575L323.5294117647059,246.09428570999998L324.3697478991597,243.57107143500002L325.21008403361344,241.79678571000002L326.0504201680672,241.051071435L326.890756302521,242.28107143500003L327.7310924369748,242.765357145L328.57142857142856,242.528571435L329.4117647058823,240.59357143500003L330.25210084033614,240.68678571L331.0924369747899,240.170357145L331.9327731092437,239.27142856499998L332.7731092436975,238.47428571L333.61344537815125,238.04250000000002L334.4537815126051,238.51071428999998L335.29411764705884,241.145357145L336.1344537815126,241.26214285499998L336.97478991596637,241.397142855L337.8151260504202,240.803571435L338.65546218487395,239.05928571L339.4957983193277,237.642857145L340.3361344537815,236.753571435L341.1764705882353,236.06035714499998L342.01680672268907,235.07999999999998L342.85714285714283,233.791071435L343.6974789915966,233.416071435L344.5378151260504,231.99L345.37815126050424,237.6675L346.218487394958,235.565357145L347.05882352941177,234.09321429L347.89915966386553,233.74178571000002L348.73949579831935,233.19321429L349.5798319327731,232.68535714499998L350.4201680672269,232.67357143499999L351.26050420168065,231.55392856499998L352.10084033613447,228.52071429L352.94117647058823,226.26428571000002L353.781512605042,225.137142855L354.62184873949576,224.83499999999998L355.4621848739496,225.30107143499998L356.3025210084034,225.171428565L357.14285714285717,217.335L357.98319327731093,214.95428571L358.8235294117647,215.566071435L359.6638655462185,214.056428565L360.5042016806723,211.827857145L361.34453781512605,211.538571435L362.1848739495798,209.93571428999996L363.02521008403363,209.20928571L363.8655462184874,209.78357143500003L364.70588235294116,210.96321428999997L365.5462184873949,210.29250000000002L366.38655462184875,209.41285714499998L367.2268907563025,207.417857145L368.0672268907563,206.35607143500002L368.9075630252101,206.101071435L369.74789915966386,206.068928565L370.5882352941177,205.910357145L371.42857142857144,206.93571428999996L372.2689075630252,207.376071435L373.109243697479,206.59714285500002L373.9495798319328,207.37499999999997L374.78991596638656,206.53714285499998L375.6302521008403,204.59571429L376.4705882352941,202.53428571L377.3109243697479,202.41428571L378.1512605042017,201.27857143499998L378.99159663865544,202.29428571L379.8319327731092,203.18785714500004L380.672268907563,201.938571435L381.51260504201684,200.338928565L382.3529411764706,198.811071435L383.1932773109244,197.60357143500002L384.03361344537814,197.671071435L384.87394957983196,196.54821429L385.7142857142857,195.41142856500002L386.5546218487395,194.825357145L387.39495798319325,194.0625L388.2352941176471,193.63821428999998L389.07563025210084,193.81178571L389.9159663865546,194.469642855L390.75630252100837,193.839642855L391.5966386554622,192.252857145L392.43697478991595,191.991428565L393.2773109243697,194.63142856500002L394.11764705882354,194.938928565L394.9579831932773,194.51678571L395.7983193277311,193.521428565L396.6386554621849,193.336071435L397.47899159663865,190.622142855L398.31932773109247,187.88785714499997L399.15966386554624,185.47178571L400,184.603928565" stroke="#e45756" stroke-width="2"/></g></g><path class="foreground" aria-hidden="true" d="" display="none"/></g></g><g class="mark-group role-legend" role="graphics-symbol" aria-roledescription="legend" aria-label="Symbol legend titled 'Mode of Transportation' for stroke color with 3 values: Driving, Transit, Walking"><g transform="translate(420,0)"><path class="background" aria-hidden="true" d="M0,0h123v53h-123Z" pointer-events="none"/><g><g class="mark-group role-legend-entry"><g transform="translate(0,16)"><path class="background" aria-hidden="true" d="M0,0h0v0h0Z" pointer-events="none"/><g><g class="mark-group role-scope" role="graphics-object" aria-roledescription="group mark container"><g transform="translate(0,0)"><path class="background" aria-hidden="true" d="M0,0h51.2001953125v11h-51.2001953125Z" pointer-events="none" opacity="1"/><g><g class="mark-symbol role-legend-symbol" pointer-events="none"><path transform="translate(6,6)" d="M-5,0L5,0" stroke="#4c78a8" stroke-width="1.5" opacity="1"/></g><g class="mark-text role-legend-label" pointer-events="none"><text text-anchor="start" transform="translate(16,9)" font-family="sans-serif" font-size="10px" fill="#000" opacity="1">Driving</text></g></g><path class="foreground" aria-hidden="true" d="" pointer-events="none" display="none"/></g><g transform="translate(0,13)"><path class="background" aria-hidden="true" d="M0,0h51.2001953125v11h-51.2001953125Z" pointer-events="none" opacity="1"/><g><g class="mark-symbol role-legend-symbol" pointer-events="none"><path transform="translate(6,6)" d="M-5,0L5,0" stroke="#f58518" stroke-width="1.5" opacity="1"/></g><g class="mark-text role-legend-label" pointer-events="none"><text text-anchor="start" transform="translate(16,9)" font-family="sans-serif" font-size="10px" fill="#000" opacity="1">Transit</text></g></g><path class="foreground" aria-hidden="true" d="" pointer-events="none" display="none"/></g><g transform="translate(0,26)"><path class="background" aria-hidden="true" d="M0,0h51.2001953125v11h-51.2001953125Z" pointer-events="none" opacity="1"/><g><g class="mark-symbol role-legend-symbol" pointer-events="none"><path transform="translate(6,6)" d="M-5,0L5,0" stroke="#e45756" stroke-width="1.5" opacity="1"/></g><g class="mark-text role-legend-label" pointer-events="none"><text text-anchor="start" transform="translate(16,9)" font-family="sans-serif" font-size="10px" fill="#000" opacity="1">Walking</text></g></g><path class="foreground" aria-hidden="true" d="" pointer-events="none" display="none"/></g></g></g><path class="foreground" aria-hidden="true" d="" pointer-events="none" display="none"/></g></g><g class="mark-text role-legend-title" pointer-events="none"><text text-anchor="start" transform="translate(0,9)" font-family="sans-serif" font-size="11px" font-weight="bold" fill="#000" opacity="1">Mode of Transportation</text></g></g><path class="foreground" aria-hidden="true" d="" pointer-events="none" display="none"/></g></g><g class="mark-group role-title"><g transform="translate(200,-29)"><path class="background" aria-hidden="true" d="M0,0h0v0h0Z" pointer-events="none"/><g><g class="mark-text role-title-text" role="graphics-symbol" aria-roledescription="title" aria-label="Title text 'Manhattan'" pointer-events="none"><text text-anchor="middle" transform="translate(0,16)" font-family="Helvetica" font-size="20px" font-weight="bold" fill="black" opacity="1">Manhattan</text></g></g><path class="foreground" aria-hidden="true" d="" pointer-events="none" display="none"/></g></g></g><path class="foreground" aria-hidden="true" d="" display="none"/></g></g></g></svg>