<svg xmlns="http://www.w3.org/2000/svg" xmlns:xlink="http://www.w3.org/1999/xlink" version="1.1" class="marks" width="607" height="371" viewBox="0 0 607 371"><rect width="607" height="371" fill="white"/><g fill="none" stroke-miterlimit="10" transform="translate(59,34)"><g class="mark-group role-frame root" role="graphics-object" aria-roledescription="group mark container"><g transform="translate(0,0)"><path class="background" aria-hidden="true" d="M0.5,0.5h400v300h-400Z" stroke="#ddd"/><g><g class="mark-group role-axis" role="graphics-symbol" aria-roledescription="axis" aria-label="X-axis for a time scale with values from Saturday, 25 January 2020, 7:00:00 PM to Saturday, 15 May 2021, 8:00:00 PM"><g transform="translate(0.5,300.5)"><path class="background" aria-hidden="true" d="M0,0h0v0h0Z" pointer-events="none"/><g><g class="mark-rule role-axis-grid" pointer-events="none"><line transform="translate(5,-300)" x2="0" y2="300" stroke="#ddd" stroke-width="1" opacity="1"/><line transform="translate(30,-300)" x2="0" y2="300" stroke="#ddd" stroke-width="1" opacity="1"/><line transform="translate(56,-300)" x2="0" y2="300" stroke="#ddd" stroke-width="1" opacity="1"/><line transform="translate(81,-300)" x2="0" y2="300" stroke="#ddd" stroke-width="1" opacity="1"/><line transform="translate(107,-300)" x2="0" y2="300" stroke="#ddd" stroke-width="1" opacity="1"/><line transform="translate(132,-300)" x2="0" y2="300" stroke="#ddd" stroke-width="1" opacity="1"/><line transform="translate(158,-300)" x2="0" y2="300" stroke="#ddd" stroke-width="1" opacity="1"/><line transform="translate(184,-300)" x2="0" y2="300" stroke="#ddd" stroke-width="1" opacity="1"/><line transform="translate(209,-300)" x2="0" y2="300" stroke="#ddd" stroke-width="1" opacity="1"/><line transform="translate(235,-300)" x2="0" y2="300" stroke="#ddd" stroke-width="1" opacity="1"/><line transform="translate(261,-300)" x2="0" y2="300" stroke="#ddd" stroke-width="1" opacity="1"/><line transform="translate(287,-300)" x2="0" y2="300" stroke="#ddd" stroke-width="1" opacity="1"/><line transform="translate(313,-300)" x2="0" y2="300" stroke="#ddd" stroke-width="1" opacity="1"/><line transform="translate(336,-300)" x2="0" y2="300" stroke="#ddd" stroke-width="1" opacity="1"/><line transform="translate(362,-300)" x2="0" y2="300" stroke="#ddd" stroke-width="1" opacity="1"/><line transform="translate(388,-300)" x2="0" y2="300" stroke="#ddd" stroke-width="1" opacity="1"/></g></g><path class="foreground" aria-hidden="true" d="" pointer-events="none" display="none"/></g></g><g class="mark-group role-axis" role="graphics-symbol" aria-roledescription="axis" aria-label="Y-axis for a linear scale with values from −1.0 to 1.0"><g transform="translate(0.5,0.5)"><path class="background" aria-hidden="true" d="M0,0h0v0h0Z" pointer-events="none"/><g><g class="mark-rule role-axis-grid" pointer-events="none"><line transform="translate(0,300)" x2="400" y2="0" stroke="#ddd" stroke-width="1" opacity="1"/><line transform="translate(0,270)" x2="400" y2="0" stroke="#ddd" stroke-width="1" opacity="1"/><line transform="translate(0,240)" x2="400" y2="0" stroke="#ddd" stroke-width="1" opacity="1"/><line transform="translate(0,210)" x2="400" y2="0" stroke="#ddd" stroke-width="1" opacity="1"/><line transform="translate(0,180)" x2="400" y2="0" stroke="#ddd" stroke-width="1" opacity="1"/><line transform="translate(0,150)" x2="400" y2="0" stroke="#ddd" stroke-width="1" opacity="1"/><line transform="translate(0,120)" x2="400" y2="0" stroke="#ddd" stroke-width="1" opacity="1"/><line transform="translate(0,90)" x2="400" y2="0" stroke="#ddd" stroke-width="1" opacity="1"/><line transform="translate(0,60)" x2="400" y2="0" stroke="#ddd" stroke-width="1" opacity="1"/><line transform="translate(0,30)" x2="400" y2="0" stroke="#ddd" stroke-width="1" opacity="1"/><line transform="translate(0,0)" x2="400" y2="0" stroke="#ddd" stroke-width="1" opacity="1"/></g></g><path class="foreground" aria-hidden="true" d="" pointer-events="none" display="none"/></g></g><g class="mark-group role-axis" role="graphics-symbol" aria-roledescription="axis" aria-label="X-axis titled 'Month' for a time scale with values from Saturday, 25 January 2020, 7:00:00 PM to Saturday, 15 May 2021, 8:00:00 PM"><g transform="translate(0.5,300.5)"><path class="background" aria-hidden="true" d="M0,0h0v0h0Z" pointer-events="none"/><g><g class="mark-rule role-axis-tick" pointer-events="none"><line transform="translate(5,0)" x2="0" y2="5" stroke="#888" stroke-width="1" opacity="1"/><line transform="translate(30,0)" x2="0" y2="5" stroke="#888" stroke-width="1" opacity="1"/><line transform="translate(56,0)" x2="0" y2="5" stroke="#888" stroke-width="1" opacity="1"/><line transform="translate(81,0)" x2="0" y2="5" stroke="#888" stroke-width="1" opacity="1"/><line transform="translate(107,0)" x2="0" y2="5" stroke="#888" stroke-width="1" opacity="1"/><line transform="translate(132,0)" x2="0" y2="5" stroke="#888" stroke-width="1" opacity="1"/><line transform="translate(158,0)" x2="0" y2="5" stroke="#888" stroke-width="1" opacity="1"/><line transform="translate(184,0)" x2="0" y2="5" stroke="#888" stroke-width="1" opacity="1"/><line transform="translate(209,0)" x2="0" y2="5" stroke="#888" stroke-width="1" opacity="1"/><line transform="translate(235,0)" x2="0" y2="5" stroke="#888" stroke-width="1" opacity="1"/><line transform="translate(261,0)" x2="0" y2="5" stroke="#888" stroke-width="1" opacity="1"/><line transform="translate(287,0)" x2="0" y2="5" stroke="#888" stroke-width="1" opacity="1"/><line transform="translate(313,0)" x2="0" y2="5" stroke="#888" stroke-width="1" opacity="1"/><line transform="translate(336,0)" x2="0" y2="5" stroke="#888" stroke-width="1" opacity="1"/><line transform="translate(362,0)" x2="0" y2="5" stroke="#888" stroke-width="1" opacity="1"/><line transform="translate(388,0)" x2="0" y2="5" stroke="#888" stroke-width="1" opacity="1"/></g><g class="mark-text role-axis-label" pointer-events="none"><text text-anchor="middle" transform="translate(5.217086834733894,15)" font-family="sans-serif" font-size="10px" fill="#000" opacity="1">February</text><text text-anchor="middle" transform="translate(29.586834733893557,15)" font-family="sans-serif" font-size="10px" fill="#000" opacity="0">March</text><text text-anchor="middle" transform="translate(55.602240896358545,15)" font-family="sans-serif" font-size="10px" fill="#000" opacity="1">April</text><text text-anchor="middle" transform="translate(80.812324929972,15)" font-family="sans-serif" font-size="10px" fill="#000" opacity="0">May</text><text text-anchor="middle" transform="translate(106.86274509803921,15)" font-family="sans-serif" font-size="10px" fill="#000" opacity="1">June</text><text text-anchor="middle" transform="translate(132.07282913165267,15)" font-family="sans-serif" font-size="10px" fill="#000" opacity="0">July</text><text text-anchor="middle" transform="translate(158.12324929971987,15)" font-family="sans-serif" font-size="10px" fill="#000" opacity="1">August</text><text text-anchor="middle" transform="translate(184.1736694677871,15)" font-family="sans-serif" font-size="10px" fill="#000" opacity="0">September</text><text text-anchor="middle" transform="translate(209.38375350140058,15)" font-family="sans-serif" font-size="10px" fill="#000" opacity="1">October</text><text text-anchor="middle" transform="translate(235.43417366946778,15)" font-family="sans-serif" font-size="10px" fill="#000" opacity="0">November</text><text text-anchor="middle" transform="translate(260.6792717086835,15)" font-family="sans-serif" font-size="10px" fill="#000" opacity="1">December</text><text text-anchor="middle" transform="translate(286.7296918767507,15)" font-family="sans-serif" font-size="10px" fill="#000" opacity="0">2021</text><text text-anchor="middle" transform="translate(312.78011204481794,15)" font-family="sans-serif" font-size="10px" fill="#000" opacity="1">February</text><text text-anchor="middle" transform="translate(336.3095238095238,15)" font-family="sans-serif" font-size="10px" fill="#000" opacity="0">March</text><text text-anchor="middle" transform="translate(362.3249299719888,15)" font-family="sans-serif" font-size="10px" fill="#000" opacity="1">April</text><text text-anchor="middle" transform="translate(387.53501400560225,15)" font-family="sans-serif" font-size="10px" fill="#000" opacity="0">May</text></g><g class="mark-rule role-axis-domain" pointer-events="none"><line transform="translate(0,0)" x2="400" y2="0" stroke="#888" stroke-width="1" opacity="1"/></g><g class="mark-text role-axis-title" pointer-events="none"><text text-anchor="middle" transform="translate(200,30)" font-family="sans-serif" font-size="11px" font-weight="bold" fill="#000" opacity="1">Month</text></g></g><path class="foreground" aria-hidden="true" d="" pointer-events="none" display="none"/></g></g><g class="mark-group role-axis" role="graphics-symbol" aria-roledescription="axis" aria-label="Y-axis titled 'Change compared to baseline' for a linear scale with values from −100% to 100%"><g transform="translate(0.5,0.5)"><path class="background" aria-hidden="true" d="M0,0h0v0h0Z" pointer-events="none"/><g><g class="mark-rule role-axis-tick" pointer-events="none"><line transform="translate(0,300)" x2="-5" y2="0" stroke="#888" stroke-width="1" opacity="1"/><line transform="translate(0,270)" x2="-5" y2="0" stroke="#888" stroke-width="1" opacity="1"/><line transform="translate(0,240)" x2="-5" y2="0" stroke="#888" stroke-width="1" opacity="1"/><line transform="translate(0,210)" x2="-5" y2="0" stroke="#888" stroke-width="1" opacity="1"/><line transform="translate(0,180)" x2="-5" y2="0" stroke="#888" stroke-width="1" opacity="1"/><line transform="translate(0,150)" x2="-5" y2="0" stroke="#888" stroke-width="1" opacity="1"/><line transform="translate(0,120)" x2="-5" y2="0" stroke="#888" stroke-width="1" opacity="1"/><line transform="translate(0,90)" x2="-5" y2="0" stroke="#888" stroke-width="1" opacity="1"/><line transform="translate(0,60)" x2="-5" y2="0" stroke="#888" stroke-width="1" opacity="1"/><line transform="translate(0,30)" x2="-5" y2="0" stroke="#888" stroke-width="1" opacity="1"/><line transform="translate(0,0)" x2="-5" y2="0" stroke="#888" stroke-width="1" opacity="1"/></g><g class="mark-text role-axis-label" pointer-events="none"><text text-anchor="end" transform="translate(-7,303)" font-family="sans-serif" font-size="10px" fill="#000" opacity="1">−100%</text><text text-anchor="end" transform="translate(-7,273)" font-family="sans-serif" font-size="10px" fill="#000" opacity="1">−80%</text><text text-anchor="end" transform="translate(-7,243)" font-family="sans-serif" font-size="10px" fill="#000" opacity="1">−60%</text><text text-anchor="end" transform="translate(-7,213)" font-family="sans-serif" font-size="10px" fill="#000" opacity="1">−40%</text><text text-anchor="end" transform="translate(-7,183)" font-family="sans-serif" font-size="10px" fill="#000" opacity="1">−20%</text><text text-anchor="end" transform="translate(-7,153)" font-family="sans-serif" font-size="10px" fill="#000" opacity="1">0%</text><text text-anchor="end" transform="translate(-7,123)" font-family="sans-serif" font-size="10px" fill="#000" opacity="1">20%</text><text text-anchor="end" transform="translate(-7,93.00000000000001)" font-family="sans-serif" font-size="10px" fill="#000" opacity="1">40%</text><text text-anchor="end" transform="translate(-7,62.999999999999986)" font-family="sans-serif" font-size="10px" fill="#000" opacity="1">60%</text><text text-anchor="end" transform="translate(-7,32.99999999999999)" font-family="sans-serif" font-size="10px" fill="#000" opacity="1">80%</text><text text-anchor="end" transform="translate(-7,3)" font-family="sans-serif" font-size="10px" fill="#000" opacity="1">100%</text></g><g class="mark-rule role-axis-domain" pointer-events="none"><line transform="translate(0,300)" x2="0" y2="-300" stroke="#888" stroke-width="1" opacity="1"/></g><g class="mark-text role-axis-title" pointer-events="none"><text text-anchor="middle" transform="translate(-42.416015625,150) rotate(-90) translate(0,-2)" font-family="sans-serif" font-size="11px" font-weight="bold" fill="#000" opacity="1">Change compared to baseline</text></g></g><path class="foreground" aria-hidden="true" d="" pointer-events="none" display="none"/></g></g><g class="mark-group role-scope pathgroup" role="graphics-object" aria-roledescription="group mark container"><g transform="translate(0,0)"><path class="background" aria-hidden="true" d="M0,0h400v300h-400Z"/><g><g class="mark-line role-mark marks" role="graphics-symbol" aria-roledescription="line mark container"><path d="M0,145.43678565L0.8403361344537815,145.8075L1.680672268907563,146.30249999999998L2.5210084033613445,146.88000000000002L3.361344537815126,147.19607145L4.201680672268908,147.88392855L5.042016806722689,146.41392855L5.88235294117647,146.89607145L6.722689075630252,146.77071434999996L7.563025210084033,147.2496429L8.403361344537815,147.52928565L9.243697478991598,147.5571429L10.084033613445378,147.96642855000002L10.92436974789916,147.41357144999998L11.76470588235294,147.22928565L12.605042016806722,146.55321435L13.445378151260504,145.86321435L14.285714285714285,145.3125L15.126050420168067,144.12321434999998L15.966386554621847,142.0425L16.80672268907563,141.49392855000002L17.647058823529413,140.41607145L18.487394957983195,139.9575L19.327731092436977,139.19142855L20.168067226890756,138.40714289999997L21.008403361344538,138.17035710000002L21.84873949579832,137.89928564999997L22.689075630252102,137.38607144999997L23.52941176470588,137.04321435L24.369747899159663,137.175L25.210084033613445,136.88035710000003L26.05042016806723,136.71L26.89075630252101,137.18678565000002L27.73109243697479,138.02999999999997L28.57142857142857,137.38607144999997L29.411764705882355,137.44928565L30.252100840336134,137.32071434999997L31.092436974789916,137.205L31.932773109243694,137.10428565L32.773109243697476,136.78392855000004L33.61344537815126,136.23964289999998L34.45378151260504,136.02L35.294117647058826,136.08749999999998L36.134453781512605,135.7521429L36.97478991596639,136.36071435L37.81512605042017,136.90821435L38.655462184873954,138.41678565L39.49579831932773,140.66892855L40.33613445378151,143.89928565L41.17647058823529,146.82321435000003L42.016806722689076,149.8746429L42.857142857142854,153.81535714499998L43.69747899159664,158.2875L44.537815126050425,163.66928571000003L45.378151260504204,170.20714285499997L46.21848739495798,177.63642856500002L47.05882352941176,183.95250000000001L47.89915966386555,191.037857145L48.739495798319325,197.08928570999998L49.57983193277311,203.48999999999998L50.42016806722689,209.1825L51.26050420168067,215.47071429L52.10084033613446,221.33035714499997L52.94117647058824,225.47678570999997L53.78151260504202,229.215L54.621848739495796,232.24821429L55.46218487394958,234.89678571000002L56.30252100840336,237.01928571L57.14285714285714,239.08928571L57.98319327731093,240.31928571L58.82352941176471,240.6075L59.66386554621849,240.28500000000003L60.50420168067227,240.508928565L61.34453781512605,240.471428565L62.18487394957983,240.857142855L63.02521008403361,241.127142855L63.86554621848739,240.58821429000002L64.70588235294117,240.38357143500002L65.54621848739495,240.579642855L66.38655462184873,240.08249999999998L67.22689075630252,239.50178571L68.0672268907563,238.891071435L68.90756302521008,238.197857145L69.74789915966386,237.63321429L70.58823529411765,236.71178571000002L71.42857142857143,236.023928565L72.26890756302521,235.665L73.10924369747899,234.85928571L73.94957983193278,233.952857145L74.78991596638656,233.32178570999997L75.63025210084034,231.99321429L76.47058823529412,231.49285714500002L77.31092436974791,230.468571435L78.15126050420169,229.44535714499997L78.99159663865547,228.966428565L79.83193277310924,228.42L80.67226890756302,227.37428570999998L81.5126050420168,225.380357145L82.35294117647058,224.17607143499998L83.19327731092437,223.250357145L84.03361344537815,221.51892856499998L84.87394957983193,220.70678571000002L85.71428571428571,219.34928571L86.5546218487395,218.22642856500002L87.39495798319328,217.412142855L88.23529411764706,215.34L89.07563025210085,220.419642855L89.91596638655463,226.22678571L90.75630252100841,224.72571429L91.59663865546219,223.02L92.43697478991596,220.835357145L93.27731092436974,219.34821429000002L94.11764705882352,218.40964285500002L94.9579831932773,217.190357145L95.7983193277311,216.12857143500003L96.63865546218487,214.19464285499998L97.47899159663865,212.51678571000002L98.31932773109243,209.95499999999998L99.15966386554622,209.138571435L100,207.46928570999998L100.84033613445378,199.971428565L101.68067226890756,191.47178571L102.52100840336134,189.4875L103.36134453781514,188.2575L104.20168067226892,187.523571435L105.0420168067227,186.028928565L105.88235294117648,184.63821428999998L106.72268907563026,183.736071435L107.56302521008404,183.46928571000004L108.40336134453781,183.51428571L109.24369747899159,182.77499999999998L110.08403361344538,182.63785714500003L110.92436974789916,180.24428571L111.76470588235294,179.235L112.60504201680672,177.19821429L113.4453781512605,175.538571435L114.28571428571428,174.44678571L115.12605042016806,173.41607143500002L115.96638655462186,170.53178571L116.80672268907564,168.706071435L117.64705882352942,167.29607143500002L118.4873949579832,165.375L119.32773109243698,162.55071429L120.16806722689076,159.82928571L121.00840336134453,157.84392856499997L121.84873949579831,153.95571429L122.6890756302521,151.253571435L123.52941176470588,149.985L124.36974789915966,148.1196429L125.21008403361344,146.45357145L126.05042016806722,144.64178564999997L126.890756302521,142.08321434999996L127.73109243697478,140.33357144999997L128.57142857142858,139.71964289999997L129.41176470588235,138.56357145L130.25210084033614,136.76892855L131.0924369747899,135.55285710000004L131.9327731092437,134.02607145L132.77310924369746,130.52892855000002L133.61344537815125,130.87071435L134.45378151260505,131.61857145L135.29411764705884,131.20714289999998L136.1344537815126,131.01321435L136.9747899159664,130.9628571L137.81512605042016,130.43035710000004L138.65546218487395,129.00642855L139.49579831932772,130.73892855000003L140.3361344537815,130.19785710000005L141.1764705882353,128.10964289999998L142.01680672268907,127.81928565L142.85714285714286,126.61285710000003L143.69747899159663,125.7953571L144.53781512605042,126.97071435000002L145.37815126050418,125.46107144999999L146.21848739495798,122.28428565L147.05882352941177,120.55071434999999L147.89915966386556,119.75892855000001L148.73949579831933,118.80321435L149.57983193277312,118.51285710000002L150.42016806722688,118.97142855000001L151.26050420168067,117.04821435L152.10084033613444,114.72535710000002L152.94117647058823,114.96L153.78151260504202,113.95178565L154.62184873949582,113.85964289999998L155.46218487394958,112.99607145L156.30252100840337,112.51928565000001L157.14285714285714,112.33499999999998L157.98319327731093,111.90321435L158.8235294117647,112.73357144999999L159.6638655462185,111.81214289999998L160.50420168067228,113.31000000000002L161.34453781512605,111.04714289999997L162.18487394957984,109.67571434999999L163.0252100840336,108.57428564999998L163.8655462184874,108.72000000000001L164.70588235294116,108.07499999999999L165.54621848739495,107.66250000000002L166.38655462184875,106.91678565000001L167.22689075630254,107.1375L168.0672268907563,107.28107144999997L168.9075630252101,105.7521429L169.74789915966386,105.69535710000002L170.58823529411765,106.29964289999998L171.42857142857142,106.29321435000001L172.2689075630252,103.72285710000003L173.109243697479,105.49392855000002L173.94957983193277,105.31392855L174.78991596638656,104.46321435000002L175.63025210084032,103.49678565000002L176.47058823529412,104.36142855000003L177.31092436974788,104.82642855000005L178.1512605042017,105.55392855000001L178.99159663865547,105.57749999999999L179.83193277310926,105.70499999999998L180.67226890756302,106.44964289999996L181.51260504201682,109.0178571L182.35294117647058,106.62428565000003L183.19327731092437,107.39571434999998L184.03361344537814,108.4125L184.87394957983193,108.64821434999999L185.71428571428572,109.27928565L186.5546218487395,108.62892855L187.39495798319328,109.22678565L188.23529411764704,108.40071435L189.07563025210084,109.85357145L189.9159663865546,109.86535710000003L190.75630252100842,109.98857144999998L191.5966386554622,110.21357144999999L192.43697478991598,109.50321435L193.27731092436974,107.18571435000001L194.11764705882354,108.76607144999997L194.9579831932773,108.56678565L195.7983193277311,108.42428565L196.63865546218486,108.39214289999997L197.47899159663865,108.67178564999999L198.31932773109244,109.85357145L199.15966386554624,110.11178564999999L200,111.88285710000002L200.84033613445376,111.61392855000001L201.68067226890756,112.39071435L202.52100840336135,113.02285710000002L203.3613445378151,113.22428565L204.20168067226888,113.75249999999998L205.04201680672267,114.05892855L205.88235294117646,114.21000000000001L206.72268907563029,114.95678564999999L207.56302521008405,115.99714289999996L208.40336134453784,116.57678565000002L209.2436974789916,117.15964289999998L210.0840336134454,118.29749999999997L210.92436974789916,119.12892855000001L211.76470588235296,119.63142855000001L212.60504201680672,119.98285710000003L213.4453781512605,120.33749999999999L214.28571428571428,121.20428564999999L215.12605042016807,121.61035710000003L215.96638655462183,122.27357144999999L216.80672268907563,122.76749999999998L217.6470588235294,123.68357145L218.48739495798318,125.60464289999999L219.327731092437,126.43285710000002L220.16806722689077,126.66000000000001L221.00840336134456,126.93857144999998L221.84873949579833,128.2103571L222.68907563025212,128.53392855L223.52941176470588,128.41285710000002L224.36974789915968,128.65714289999997L225.21008403361344,129.11464289999998L226.05042016806723,129.32035710000002L226.890756302521,129.8025L227.7310924369748,130.46464289999997L228.57142857142856,131.15464289999997L229.41176470588235,131.33571435000002L230.2521008403361,130.06178565L231.0924369747899,129.5678571L231.93277310924373,129.99964289999997L232.7731092436975,131.30678565L233.61344537815128,130.96178565L234.45378151260505,131.53285710000003L235.29411764705884,132.81642855L236.1344537815126,133.25571435L236.9747899159664,134.5853571L237.81512605042016,135.91285710000005L238.65546218487395,136.76357145L239.49579831932772,137.85107145L240.3361344537815,138.76928565000003L241.17647058823528,138.66214289999996L242.01680672268907,139.23964289999998L242.85714285714283,139.68214289999997L243.69747899159663,141.0525L244.53781512605045,142.04464289999999L245.3781512605042,143.26714289999998L246.218487394958,144.43821435L247.05882352941177,145.19892855L247.89915966386556,146.01000000000002L248.73949579831933,145.9125L249.57983193277312,145.88571435L250.42016806722688,146.52857145L251.26050420168067,146.58107145L252.10084033613444,147.37821434999998L252.94117647058823,148.86535709999998L253.781512605042,149.02071435L254.6218487394958,148.74L255.46218487394955,147.0246429L256.3025210084034,150.219642855L257.14285714285717,152.60892856499999L257.98319327731093,154.50321429L258.8235294117647,154.546071435L259.6638655462185,155.43107143499998L260.5042016806723,155.53285714499998L261.34453781512605,155.933571435L262.1848739495798,156.2625L263.02521008403363,157.85035714499998L263.8655462184874,159.801428565L264.70588235294116,159.980357145L265.5462184873949,160.809642855L266.38655462184875,162.380357145L267.2268907563025,164.258571435L268.0672268907563,160.875L268.9075630252101,158.63678571000003L269.74789915966386,157.91250000000002L270.5882352941177,157.39071429L271.42857142857144,156.78428571L272.2689075630252,156.00321429000002L273.109243697479,157.36499999999998L273.9495798319328,161.811428565L274.78991596638656,162.79928571000002L275.6302521008403,162.467142855L276.4705882352941,162.80571429L277.3109243697479,161.6025L278.1512605042017,159.80464285499997L278.99159663865544,156.717857145L279.8319327731092,156.3L280.672268907563,162.29142856500002L281.51260504201684,164.0325L282.3529411764706,164.95392856499998L283.1932773109244,164.35928571L284.03361344537814,164.600357145L284.87394957983196,162.08571428999997L285.7142857142857,157.55678571L286.5546218487395,160.88142856500002L287.39495798319325,161.59928570999998L288.2352941176471,162.40071429000002L289.07563025210084,163.730357145L289.9159663865546,165.67714285500003L290.75630252100837,169.118571435L291.5966386554622,170.31321429L292.43697478991595,165.71142856500003L293.2773109243697,164.475L294.11764705882354,164.38821429L294.9579831932773,165.23571428999998L295.7983193277311,166.11321429L296.6386554621849,167.436428565L297.47899159663865,167.683928565L298.31932773109247,163.561071435L299.15966386554624,162.6075L300,161.438571435L300.84033613445376,161.548928565L301.68067226890753,161.6475L302.52100840336135,161.888571435L303.3613445378151,161.71178571L304.2016806722689,161.14285714500002L305.0420168067227,161.175L305.88235294117646,161.243571435L306.7226890756303,161.33357143499998L307.56302521008405,162.28071429L308.4033613445378,162.34178570999998L309.24369747899163,162.40178571L310.0840336134454,162.7875L310.92436974789916,162.86357143499998L311.7647058823529,163.521428565L312.60504201680675,169.4625L313.4453781512605,173.25321429L314.2857142857143,173.95821429000003L315.12605042016804,173.957142855L315.96638655462186,174.081428565L316.8067226890756,173.45678571L317.6470588235294,175.8075L318.48739495798316,176.098928565L319.327731092437,175.54607143500002L320.1680672268908,175.111071435L321.00840336134456,175.28142856499997L321.8487394957983,174.55607143499998L322.6890756302521,174.19821429L323.5294117647059,173.07428571L324.3697478991597,168.16178571L325.21008403361344,164.484642855L326.0504201680672,162.54000000000002L326.890756302521,165.804642855L327.7310924369748,167.856428565L328.57142857142856,168.35892856499999L329.4117647058823,165.608571435L330.25210084033614,165.609642855L331.0924369747899,165.04821429L331.9327731092437,163.99928571L332.7731092436975,162.53464285500002L333.61344537815125,160.952142855L334.4537815126051,160.39071429L335.29411764705884,160.418571435L336.1344537815126,158.62500000000003L336.97478991596637,157.87928570999998L337.8151260504202,157.35214285499995L338.65546218487395,153.1125L339.4957983193277,149.5725L340.3361344537815,148.26857145L341.1764705882353,147.44678565L342.01680672268907,146.28857144999998L342.85714285714283,145.26L343.6974789915966,145.20214289999998L344.5378151260504,144.83571435L345.37815126050424,157.88892856500001L346.218487394958,156.632142855L347.05882352941177,155.85428570999997L347.89915966386553,155.49428571L348.73949579831935,155.027142855L349.5798319327731,154.962857145L350.4201680672269,154.55785714499999L351.26050420168065,154.04785714499997L352.10084033613447,152.513571435L352.94117647058823,151.022142855L353.781512605042,150.03107143499997L354.62184873949576,149.51357145L355.4621848739496,149.15892855000004L356.3025210084034,148.55035709999999L357.14285714285717,134.19642855L357.98319327731093,132.82928565L358.8235294117647,133.29000000000002L359.6638655462185,132.48535710000004L360.5042016806723,130.215L361.34453781512605,129.28607145L362.1848739495798,128.34642855L363.02521008403363,127.87178565L363.8655462184874,128.06035710000003L364.70588235294116,128.75464289999996L365.5462184873949,127.28035710000005L366.38655462184875,126.21L367.2268907563025,124.98642855000001L368.0672268907563,123.90642855L368.9075630252101,123.82071435L369.74789915966386,123.51428565L370.5882352941177,122.55964289999999L371.42857142857144,122.19214289999998L372.2689075630252,122.77607144999999L373.109243697479,122.44607144999999L373.9495798319328,122.3925L374.78991596638656,121.51714289999998L375.6302521008403,120.34821435L376.4705882352941,119.12785710000003L377.3109243697479,119.98928564999999L378.1512605042017,119.41392855000001L378.99159663865544,120.28392855000001L379.8319327731092,120.91928564999999L380.672268907563,120.28071435L381.51260504201684,119.37107145L382.3529411764706,119.15357144999997L383.1932773109244,118.65428565L384.03361344537814,118.20107145L384.87394957983196,117.07071434999999L385.7142857142857,116.57785710000003L386.5546218487395,115.68642855L387.39495798319325,114.79178565000001L388.2352941176471,114.00428565000001L389.07563025210084,113.5971429L389.9159663865546,114.10499999999999L390.75630252100837,112.96392854999999L391.5966386554622,111.48107145L392.43697478991595,110.75999999999999L393.2773109243697,110.89714289999999L394.11764705882354,108.69321434999999L394.9579831932773,108.52928564999999L395.7983193277311,108.26892855000001L396.6386554621849,108.3225L397.47899159663865,106.88250000000001L398.31932773109247,105.82607144999996L399.15966386554624,104.75785710000001L400,104.61" stroke="#4c78a8" stroke-width="2"/></g></g><path class="foreground" aria-hidden="true" d="" display="none"/></g><g transform="translate(0,0)"><path class="background" aria-hidden="true" d="M0,0h400v300h-400Z"/><g><g class="mark-line role-mark marks" role="graphics-symbol" aria-roledescription="line mark container"><path d="M0,156.398571435L0.8403361344537815,156.6375L1.680672268907563,156.702857145L2.5210084033613445,157.11L3.361344537815126,157.146428565L4.201680672268908,157.035L5.042016806722689,156.02785714499998L5.88235294117647,156.32464285500004L6.722689075630252,156.001071435L7.563025210084033,157.08857143499998L8.403361344537815,158.346428565L9.243697478991598,159.22928570999997L10.084033613445378,160.15178571L10.92436974789916,159.32678571L11.76470588235294,159.45428570999997L12.605042016806722,160.05428571000002L13.445378151260504,159.995357145L14.285714285714285,159.654642855L15.126050420168067,159.084642855L15.966386554621847,158.49107143499998L16.80672268907563,158.26071429L17.647058823529413,157.56321429L18.487394957983195,156.316071435L19.327731092436977,155.09678571L20.168067226890756,153.81535714499998L21.008403361344538,152.69571428999998L21.84873949579832,152.1225L22.689075630252102,152.151428565L23.52941176470588,152.45678571L24.369747899159663,152.49321429000003L25.210084033613445,152.67321429L26.05042016806723,152.98178571L26.89075630252101,153.59892856500002L27.73109243697479,153.8475L28.57142857142857,153.8025L29.411764705882355,154.283571435L30.252100840336134,155.53392856499997L31.092436974789916,156.70928571L31.932773109243694,157.422857145L32.773109243697476,158.401071435L33.61344537815126,159.08571428999997L34.45378151260504,159.12321429000002L35.294117647058826,159.099642855L36.134453781512605,159.01178571L36.97478991596639,159.79928571L37.81512605042017,160.69178571000003L38.655462184873954,162.93L39.49579831932773,166.44428571L40.33613445378151,170.65178570999998L41.17647058823529,174.459642855L42.016806722689076,179.39142856499998L42.857142857142854,185.105357145L43.69747899159664,191.71071429000003L44.537815126050425,198.30428571000002L45.378151260504204,205.77107143499998L46.21848739495798,214.44964285499998L47.05882352941176,221.165357145L47.89915966386555,229.06928571L48.739495798319325,235.94464285499998L49.57983193277311,242.813571435L50.42016806722689,248.55535714500002L51.26050420168067,254.18464285500002L52.10084033613446,259.266428565L52.94117647058824,262.755L53.78151260504202,265.695L54.621848739495796,267.923571435L55.46218487394958,269.79L56.30252100840336,271.62321428999996L57.14285714285714,273.16928571L57.98319327731093,274.047857145L58.82352941176471,274.56321429L59.66386554621849,274.861071435L60.50420168067227,275.35928571L61.34453781512605,275.721428565L62.18487394957983,276.197142855L63.02521008403361,276.676071435L63.86554621848739,276.83571429L64.70588235294117,277.026428565L65.54621848739495,277.401428565L66.38655462184873,277.471071435L67.22689075630252,277.656428565L68.0672268907563,277.75928571000003L68.90756302521008,277.80321429L69.74789915966386,277.853571435L70.58823529411765,277.797857145L71.42857142857143,277.725L72.26890756302521,277.718571435L73.10924369747899,277.62642856499997L73.94957983193278,277.43571429L74.78991596638656,277.272857145L75.63025210084034,277.058571435L76.47058823529412,276.92035714499997L77.31092436974791,276.556071435L78.15126050420169,276.278571435L78.99159663865547,275.99142856500004L79.83193277310924,275.701071435L80.67226890756302,275.278928565L81.5126050420168,274.755L82.35294117647058,274.37678571L83.19327731092437,273.932142855L84.03361344537815,273.28071429L84.87394957983193,272.83178571L85.71428571428571,272.35821429L86.5546218487395,272.08928571L87.39495798319328,271.90285714500004L88.23529411764706,271.6425L89.07563025210085,271.58678571L89.91596638655463,271.922142855L90.75630252100841,271.551428565L91.59663865546219,271.125L92.43697478991596,270.666428565L93.27731092436974,270.29571429L94.11764705882352,269.98392856500004L94.9579831932773,269.5875L95.7983193277311,269.278928565L96.63865546218487,268.87071428999997L97.47899159663865,268.42499999999995L98.31932773109243,267.721071435L99.15966386554622,267.33214285500003L100,266.705357145L100.84033613445378,266.07L101.68067226890756,264.677142855L102.52100840336134,263.94321429L103.36134453781514,263.391428565L104.20168067226892,262.851428565L105.0420168067227,262.0875L105.88235294117648,261.4575L106.72268907563026,260.92821429L107.56302521008404,260.483571435L108.40336134453781,260.083928565L109.24369747899159,259.486071435L110.08403361344538,259.126071435L110.92436974789916,258.023571435L111.76470588235294,257.113928565L112.60504201680672,255.81964285499998L113.4453781512605,254.867142855L114.28571428571428,254.01321429L115.12605042016806,253.299642855L115.96638655462186,252.122142855L116.80672268907564,251.251071435L117.64705882352942,250.362857145L118.4873949579832,249.32892856499998L119.32773109243698,248.083928565L120.16806722689076,246.853928565L121.00840336134453,245.90035714500002L121.84873949579831,244.26749999999998L122.6890756302521,243.32678571000002L123.52941176470588,242.865L124.36974789915966,241.85035714499998L125.21008403361344,240.849642855L126.05042016806722,239.802857145L126.890756302521,238.38750000000002L127.73109243697478,237.336428565L128.57142857142858,236.77071428999997L129.41176470588235,236.038928565L130.25210084033614,234.91500000000002L131.0924369747899,234.08678571L131.9327731092437,233.13321429L132.77310924369746,231.561428565L133.61344537815125,231.410357145L134.45378151260505,230.94L135.29411764705884,230.101071435L136.1344537815126,229.686428565L136.9747899159664,229.157142855L137.81512605042016,228.57428571L138.65546218487395,227.68714285500002L139.49579831932772,228.396428565L140.3361344537815,227.806071435L141.1764705882353,226.746428565L142.01680672268907,226.273928565L142.85714285714286,225.28928571000003L143.69747899159663,224.51571429L144.53781512605042,224.49642856499997L145.37815126050418,223.54821429000003L146.21848739495798,222.073928565L147.05882352941177,221.13000000000002L147.89915966386556,220.478571435L148.73949579831933,219.831428565L149.57983193277312,219.680357145L150.42016806722688,219.77249999999998L151.26050420168067,218.492142855L152.10084033613444,217.2225L152.94117647058823,217.03499999999997L153.78151260504202,216.436071435L154.62184873949582,216.19821429L155.46218487394958,215.66249999999997L156.30252100840337,215.17499999999998L157.14285714285714,214.857857145L157.98319327731093,214.6575L158.8235294117647,214.948928565L159.6638655462185,214.431428565L160.50420168067228,214.73250000000002L161.34453781512605,213.306428565L162.18487394957984,212.48142856500002L163.0252100840336,211.85678571000003L163.8655462184874,211.78285714499998L164.70588235294116,211.40678571L165.54621848739495,210.886071435L166.38655462184875,210.504642855L167.22689075630254,210.67178571L168.0672268907563,210.63428571L168.9075630252101,209.690357145L169.74789915966386,209.251071435L170.58823529411765,209.51571428999998L171.42857142857142,209.142857145L172.2689075630252,207.87428571L173.109243697479,208.31571429000002L173.94957983193277,207.62035714499999L174.78991596638656,206.83607143499998L175.63025210084032,206.40321429000002L176.47058823529412,206.34749999999997L177.31092436974788,206.295L178.1512605042017,206.09464285500002L178.99159663865547,205.33928571L179.83193277310926,205.09821429L180.67226890756302,205.24928571L181.51260504201682,206.35071429L182.35294117647058,205.197857145L183.19327731092437,205.74107143499998L184.03361344537814,206.672142855L184.87394957983193,207.0225L185.71428571428572,207.833571435L186.5546218487395,207.91714285500004L187.39495798319328,208.269642855L188.23529411764704,208.75285714499998L189.07563025210084,209.70107143500002L189.9159663865546,209.963571435L190.75630252100842,210.48321429L191.5966386554622,210.99857143499997L192.43697478991598,210.942857145L193.27731092436974,210.01178571L194.11764705882354,210.61821428999997L194.9579831932773,210.46821429L195.7983193277311,210.526071435L196.63865546218486,210.533571435L197.47899159663865,210.63428571L198.31932773109244,210.93428571L199.15966386554624,210.78L200,210.75535714499998L200.84033613445376,210.67178571L201.68067226890756,211.10678571L202.52100840336135,211.35L203.3613445378151,211.141071435L204.20168067226888,211.02535714500002L205.04201680672267,210.77892856499997L205.88235294117646,210.5475L206.72268907563029,210.51428571000002L207.56302521008405,210.77464285500002L208.40336134453784,210.732857145L209.2436974789916,210.511071435L210.0840336134454,210.51428571000002L210.92436974789916,210.43821429L211.76470588235296,210.51642856499998L212.60504201680672,210.25178571000004L213.4453781512605,210.03321429000002L214.28571428571428,210.058928565L215.12605042016807,209.77821429000002L215.96638655462183,209.71285714500002L216.80672268907563,209.71178571000002L217.6470588235294,209.95178571L218.48739495798318,211.123928565L219.327731092437,211.033928565L220.16806722689077,210.951428565L221.00840336134456,211.005L221.84873949579833,211.92321429L222.68907563025212,211.83321429000003L223.52941176470588,211.59321429000002L224.36974789915968,211.621071435L225.21008403361344,211.81821429L226.05042016806723,211.83107143499998L226.890756302521,212.033571435L227.7310924369748,212.08071428999997L228.57142857142856,212.02178571L229.41176470588235,212.03785714499998L230.2521008403361,211.235357145L231.0924369747899,210.9525L231.93277310924373,211.235357145L232.7731092436975,212.11928571L233.61344537815128,211.64035714499997L234.45378151260505,211.637142855L235.29411764705884,212.438571435L236.1344537815126,212.80714285500002L236.9747899159664,213.52821429L237.81512605042016,214.19142856500002L238.65546218487395,214.51178571L239.49579831932772,214.88142856500002L240.3361344537815,214.92321429L241.17647058823528,214.52142856499998L242.01680672268907,214.370357145L242.85714285714283,214.32857143500001L243.69747899159663,214.73678571L244.53781512605045,214.78285714499998L245.3781512605042,214.76464285499998L246.218487394958,215.20928571L247.05882352941177,215.18892856500003L247.89915966386556,215.20928571L248.73949579831933,214.84500000000003L249.57983193277312,214.70678571L250.42016806722688,215.00464285500001L251.26050420168067,215.13964285499998L252.10084033613444,215.886428565L252.94117647058823,216.6825L253.781512605042,217.14428571000002L254.6218487394958,217.60928571L255.46218487394955,217.88142856500002L256.3025210084034,219.7875L257.14285714285717,220.93178570999999L257.98319327731093,221.80071429L258.8235294117647,221.88535714500003L259.6638655462185,222.7725L260.5042016806723,222.998571435L261.34453781512605,223.283571435L262.1848739495798,223.45821429L263.02521008403363,224.41071429000002L263.8655462184874,225.249642855L264.70588235294116,225.31928570999997L265.5462184873949,225.605357145L266.38655462184875,225.999642855L267.2268907563025,226.07892856499998L268.0672268907563,224.13750000000002L268.9075630252101,223.287857145L269.74789915966386,223.04357143500002L270.5882352941177,222.85178571L271.42857142857144,222.46285714500002L272.2689075630252,222.52928570999998L273.109243697479,223.367142855L273.9495798319328,224.11714285499997L274.78991596638656,223.441071435L275.6302521008403,222.75642856499996L276.4705882352941,222.687857145L277.3109243697479,221.87357143500003L278.1512605042017,221.14499999999998L278.99159663865544,220.2825L279.8319327731092,221.39035714499997L280.672268907563,224.5575L281.51260504201684,225.673928565L282.3529411764706,226.003928565L283.1932773109244,225.33107143499998L284.03361344537814,225.081428565L284.87394957983196,224.01000000000002L285.7142857142857,224.067857145L286.5546218487395,226.7025L287.39495798319325,227.822142855L288.2352941176471,228.65035714500002L289.07563025210084,229.400357145L289.9159663865546,230.10857143500002L290.75630252100837,230.93892856500003L291.5966386554622,230.2125L292.43697478991595,227.672142855L293.2773109243697,226.70142856500001L294.11764705882354,226.51928571000002L294.9579831932773,227.055L295.7983193277311,226.93928571L296.6386554621849,227.003571435L297.47899159663865,225.9225L298.31932773109247,223.77107143499998L299.15966386554624,222.80785714499999L300,221.85000000000002L300.84033613445376,221.836071435L301.68067226890753,221.75678571L302.52100840336135,221.79428571L303.3613445378151,221.367857145L304.2016806722689,220.992857145L305.0420168067227,221.016428565L305.88235294117646,221.15142856499997L306.7226890756303,221.098928565L307.56302521008405,221.77178571000002L308.4033613445378,221.89178571000002L309.24369747899163,222.362142855L310.0840336134454,222.93428570999998L310.92436974789916,223.29107143499996L311.7647058823529,223.974642855L312.60504201680675,225.36428571L313.4453781512605,225.76928571L314.2857142857143,225.2025L315.12605042016804,225.023571435L315.96638655462186,224.79428571L316.8067226890756,224.26178571000003L317.6470588235294,224.777142855L318.48739495798316,224.57035714500003L319.327731092437,224.21678570999998L320.1680672268908,223.84928570999998L321.00840336134456,223.371428565L321.8487394957983,222.216428565L322.6890756302521,221.498571435L323.5294117647059,220.692857145L324.3697478991597,219.32999999999998L325.21008403361344,218.55L326.0504201680672,218.473928565L326.890756302521,219.291428565L327.7310924369748,219.623571435L328.57142857142856,219.503571435L329.4117647058823,218.53071429L330.25210084033614,218.79964285499997L331.0924369747899,218.391428565L331.9327731092437,217.79785714500002L332.7731092436975,217.22571428999998L333.61344537815125,216.77035714500002L334.4537815126051,216.61821429L335.29411764705884,216.48000000000002L336.1344537815126,215.79857143499999L336.97478991596637,215.762142855L337.8151260504202,215.157857145L338.65546218487395,213.92785714500002L339.4957983193277,213.01071429L340.3361344537815,212.64107143500001L341.1764705882353,212.36678571L342.01680672268907,211.70357143500001L342.85714285714283,211.11321429L343.6974789915966,210.84642856500002L344.5378151260504,210.267857145L345.37815126050424,217.14214285499997L346.218487394958,216.533571435L347.05882352941177,216.268928565L347.89915966386553,216.312857145L348.73949579831935,216.073928565L349.5798319327731,216.15214285500002L350.4201680672269,216.362142855L351.26050420168065,216.00428571L352.10084033613447,215.19964285499998L352.94117647058823,214.389642855L353.781512605042,213.61928571L354.62184873949576,213.25071428999996L355.4621848739496,213.36535714500002L356.3025210084034,213.226071435L357.14285714285717,205.238571435L357.98319327731093,204.19178571000003L358.8235294117647,204.16285714500003L359.6638655462185,203.124642855L360.5042016806723,201.666428565L361.34453781512605,200.91749999999996L362.1848739495798,199.695L363.02521008403363,199.2375L363.8655462184874,199.29535714499997L364.70588235294116,199.60928571L365.5462184873949,199.03928570999997L366.38655462184875,198.208928565L367.2268907563025,197.10857143500002L368.0672268907563,196.262142855L368.9075630252101,195.77142856499998L369.74789915966386,195.31714285500001L370.5882352941177,194.72785714500003L371.42857142857144,194.73321429L372.2689075630252,194.626071435L373.109243697479,194.18035714499996L373.9495798319328,194.251071435L374.78991596638656,193.4625L375.6302521008403,192.279642855L376.4705882352941,191.21035714500005L377.3109243697479,191.207142855L378.1512605042017,190.996071435L378.99159663865544,191.41928571000003L379.8319327731092,191.75892856500002L380.672268907563,191.480357145L381.51260504201684,191.22214285500004L382.3529411764706,191.01535714500002L383.1932773109244,190.58678571L384.03361344537814,190.591071435L384.87394957983196,189.94285714499998L385.7142857142857,189.45857143499998L386.5546218487395,189.04821429L387.39495798319325,188.49535714500004L388.2352941176471,188.14500000000004L389.07563025210084,187.90071429L389.9159663865546,187.838571435L390.75630252100837,187.27928571L391.5966386554622,186.34607143500003L392.43697478991595,185.79L393.2773109243697,186.1425L394.11764705882354,186.05142856499998L394.9579831932773,185.67428571000002L395.7983193277311,185.01749999999998L396.6386554621849,184.84607143499997L397.47899159663865,183.602142855L398.31932773109247,182.52428571L399.15966386554624,181.6275L400,181.34678570999998" stroke="#f58518" stroke-width="2"/></g></g><path class="foreground" aria-hidden="true" d="" display="none"/></g><g transform="translate(0,0)"><path class="background" aria-hidden="true" d="M0,0h400v300h-400Z"/><g><g class="mark-line role-mark marks" role="graphics-symbol" aria-roledescription="line mark container"><path d="M0,152.26178571000003L0.8403361344537815,152.946428565L1.680672268907563,153.50678570999997L2.5210084033613445,154.62642856500003L3.361344537815126,154.85571429L4.201680672268908,154.051071435L5.042016806722689,151.42821428999997L5.88235294117647,151.757142855L6.722689075630252,151.028571435L7.563025210084033,151.15714285500002L8.403361344537815,151.78821429L9.243697478991598,152.70107143500002L10.084033613445378,154.48071428999998L10.92436974789916,153.16071429L11.76470588235294,153.16714285499998L12.605042016806722,153.68678571L13.445378151260504,153.121071435L14.285714285714285,152.22964285499998L15.126050420168067,151.63071429000001L15.966386554621847,151.134642855L16.80672268907563,151.52785714499998L17.647058823529413,150.62678571L18.487394957983195,149.6453571L19.327731092436977,148.76142855000003L20.168067226890756,147.65892855000004L21.008403361344538,146.61107145L21.84873949579832,145.30607144999996L22.689075630252102,144.44035710000003L23.52941176470588,144.04821435L24.369747899159663,143.1278571L25.210084033613445,143.13428565L26.05042016806723,143.3378571L26.89075630252101,143.94428564999998L27.73109243697479,143.97642854999998L28.57142857142857,143.41607144999998L29.411764705882355,143.8425L30.252100840336134,144.48535710000002L31.092436974789916,145.28571435L31.932773109243694,145.22678564999998L32.773109243697476,145.0425L33.61344537815126,145.85678564999998L34.45378151260504,145.78071434999998L35.294117647058826,145.34892855L36.134453781512605,144.18107145L36.97478991596639,143.68071435000002L37.81512605042017,143.68607145L38.655462184873954,144.16392854999998L39.49579831932773,145.75071434999998L40.33613445378151,147.8046429L41.17647058823529,149.79964289999998L42.016806722689076,152.987142855L42.857142857142854,156.31178571L43.69747899159664,160.711071435L44.537815126050425,165.84321429L45.378151260504204,170.42678571L46.21848739495798,178.404642855L47.05882352941176,184.88678571L47.89915966386555,193.086428565L48.739495798319325,198.99214285499997L49.57983193277311,205.63071429000001L50.42016806722689,210.557142855L51.26050420168067,216.51214285499998L52.10084033613446,223.659642855L52.94117647058824,228.4875L53.78151260504202,231.830357145L54.621848739495796,234.60428571L55.46218487394958,237.18642856499997L56.30252100840336,239.087142855L57.14285714285714,241.79142856500002L57.98319327731093,243.19071429000002L58.82352941176471,243.578571435L59.66386554621849,242.424642855L60.50420168067227,242.693571435L61.34453781512605,242.243571435L62.18487394957983,243.2175L63.02521008403361,243.954642855L63.86554621848739,243.096428565L64.70588235294117,242.893928565L65.54621848739495,243.705L66.38655462184873,243.148928565L67.22689075630252,242.870357145L68.0672268907563,242.60785714500003L68.90756302521008,242.15035714500002L69.74789915966386,242.228571435L70.58823529411765,241.63928571000002L71.42857142857143,241.30607143499998L72.26890756302521,241.755L73.10924369747899,241.4925L73.94957983193278,240.7425L74.78991596638656,240.59464285500002L75.63025210084034,239.44714285499998L76.47058823529412,239.597142855L77.31092436974791,238.54392856500002L78.15126050420169,237.81428571L78.99159663865547,237.6075L79.83193277310924,237.54857143499999L80.67226890756302,236.53928571L81.5126050420168,233.792142855L82.35294117647058,232.11857143499998L83.19327731092437,231.192857145L84.03361344537815,229.06928571L84.87394957983193,228.531428565L85.71428571428571,226.57821428999998L86.5546218487395,225.36321429L87.39495798319328,224.979642855L88.23529411764706,222.3675L89.07563025210085,221.74285714500002L89.91596638655463,222.71357143499998L90.75630252100841,220.82785714500002L91.59663865546219,218.304642855L92.43697478991596,215.679642855L93.27731092436974,214.395L94.11764705882352,213.60750000000002L94.9579831932773,212.32821429L95.7983193277311,211.352142855L96.63865546218487,208.90178570999998L97.47899159663865,207.47785714500003L98.31932773109243,204.56571429L99.15966386554622,203.98071429L100,202.31249999999997L100.84033613445378,199.716428565L101.68067226890756,195.61071428999998L102.52100840336134,193.83749999999998L103.36134453781514,192.913928565L104.20168067226892,192.45428571L105.0420168067227,190.90178571L105.88235294117648,189.77571429L106.72268907563026,188.895L107.56302521008404,188.536071435L108.40336134453781,188.85L109.24369747899159,188.28857143500002L110.08403361344538,188.484642855L110.92436974789916,185.69678571L111.76470588235294,184.817142855L112.60504201680672,183.443571435L113.4453781512605,182.68928570999998L114.28571428571428,181.88357143500002L115.12605042016806,181.51607143500001L115.96638655462186,179.087142855L116.80672268907564,178.0125L117.64705882352942,177.07071428999998L118.4873949579832,175.876071435L119.32773109243698,173.27785714499998L120.16806722689076,170.91428570999997L121.00840336134453,169.56750000000002L121.84873949579831,165.97392856500002L122.6890756302521,163.98L123.52941176470588,163.60071428999998L124.36974789915966,162.09214285500002L125.21008403361344,160.41L126.05042016806722,159.156428565L126.890756302521,156.65785714499998L127.73109243697478,155.4L128.57142857142858,155.2875L129.41176470588235,154.632857145L130.25210084033614,153.04821429L131.0924369747899,152.51571429L131.9327731092437,151.53964285499998L132.77310924369746,148.96178564999997L133.61344537815125,149.67857145000002L134.45378151260505,149.4L135.29411764705884,148.57821435000002L136.1344537815126,148.84821435L136.9747899159664,148.23214289999999L137.81512605042016,147.67071435L138.65546218487395,146.11928565L139.49579831932772,148.74107145L140.3361344537815,147.39535709999998L141.1764705882353,145.65321435L142.01680672268907,145.07035710000002L142.85714285714286,143.685L143.69747899159663,142.20321435L144.53781512605042,142.09392855000002L145.37815126050418,139.8246429L146.21848739495798,137.12892854999998L147.05882352941177,135.80035710000004L147.89915966386556,135.0203571L148.73949579831933,134.88964289999996L149.57983193277312,135.59357144999998L150.42016806722688,136.48392855L151.26050420168067,133.83642855000002L152.10084033613444,132.01178564999998L152.94117647058823,132.30857145L153.78151260504202,132.05464289999998L154.62184873949582,132.3953571L155.46218487394958,132.44892855L156.30252100840337,132.90107144999996L157.14285714285714,133.58678564999997L157.98319327731093,133.79678564999998L158.8235294117647,134.5371429L159.6638655462185,133.55678565000002L160.50420168067228,135.49178565L161.34453781512605,132.68785710000003L162.18487394957984,131.60678564999998L163.0252100840336,130.8225L163.8655462184874,130.58678565L164.70588235294116,129.57857145L165.54621848739495,128.90035710000004L166.38655462184875,127.94678565L167.22689075630254,128.53285710000003L168.0672268907563,128.76749999999998L168.9075630252101,127.35321435L169.74789915966386,127.04571435000001L170.58823529411765,128.03678565L171.42857142857142,127.79035710000002L172.2689075630252,124.80107144999997L173.109243697479,126.00321434999998L173.94957983193277,125.29928565L174.78991596638656,124.35214289999998L175.63025210084032,124.2953571L176.47058823529412,124.94142854999998L177.31092436974788,125.17928565000001L178.1512605042017,125.82535710000003L178.99159663865547,124.97464289999995L179.83193277310926,125.18035710000004L180.67226890756302,126.08892855L181.51260504201682,128.16428564999998L182.35294117647058,125.54249999999998L183.19327731092437,126.19071434999998L184.03361344537814,126.92357144999998L184.87394957983193,126.73178564999999L185.71428571428572,127.73999999999998L186.5546218487395,127.14642855000001L187.39495798319328,127.20642855000001L188.23529411764704,126.48857144999997L189.07563025210084,127.46035710000002L189.9159663865546,127.40464289999998L190.75630252100842,127.64035710000003L191.5966386554622,128.03571435L192.43697478991598,127.24821434999998L193.27731092436974,125.35285710000001L194.11764705882354,126.36107145L194.9579831932773,126.09535710000004L195.7983193277311,126.42857145L196.63865546218486,126.97285710000003L197.47899159663865,127.18392855000002L198.31932773109244,128.06571435L199.15966386554624,128.41928565L200,129.87107145000002L200.84033613445376,129.9675L201.68067226890756,130.74535710000004L202.52100840336135,131.27142855L203.3613445378151,130.71642855000002L204.20168067226888,131.0346429L205.04201680672267,130.91357144999998L205.88235294117646,131.01L206.72268907563029,131.50821435L207.56302521008405,132.88285710000005L208.40336134453784,132.94392855L209.2436974789916,133.035L210.0840336134454,133.85785710000005L210.92436974789916,134.0046429L211.76470588235296,134.31214289999997L212.60504201680672,134.32821435L213.4453781512605,134.33357145L214.28571428571428,134.88535710000005L215.12605042016807,135.25392855L215.96638655462183,135.78857144999998L216.80672268907563,136.59964289999996L217.6470588235294,137.43535710000003L218.48739495798318,140.19428564999998L219.327731092437,140.49321435000002L220.16806722689077,140.715L221.00840336134456,141.16928564999998L221.84873949579833,143.4321429L222.68907563025212,143.9175L223.52941176470588,144.02357145L224.36974789915968,144.2496429L225.21008403361344,144.70178565L226.05042016806723,144.65571435L226.890756302521,144.9075L227.7310924369748,145.07892855000003L228.57142857142856,144.915L229.41176470588235,145.21821434999998L230.2521008403361,143.22535710000002L231.0924369747899,142.15392855000002L231.93277310924373,142.75178565L232.7731092436975,144.68357145L233.61344537815128,143.77178564999997L234.45378151260505,143.00357144999998L235.29411764705884,144.3921429L236.1344537815126,145.095L236.9747899159664,145.01357145L237.81512605042016,146.0378571L238.65546218487395,146.57357144999997L239.49579831932772,147.23571435L240.3361344537815,147.61821435L241.17647058823528,146.895L242.01680672268907,146.85000000000002L242.85714285714283,147.00321435L243.69747899159663,148.10035710000002L244.53781512605045,148.21928565000002L245.3781512605042,148.76892855L246.218487394958,151.07142856499996L247.05882352941177,151.3125L247.89915966386556,151.69928571L248.73949579831933,153.25928571000003L249.57983193277312,153.95678571L250.42016806722688,154.86428571000002L251.26050420168067,155.495357145L252.10084033613444,156.8775L252.94117647058823,158.593928565L253.781512605042,159.901071435L254.6218487394958,160.84392856499997L255.46218487394955,159.70821429L256.3025210084034,162.263571435L257.14285714285717,163.91678570999997L257.98319327731093,165.62035714499999L258.8235294117647,165.647142855L259.6638655462185,166.929642855L260.5042016806723,166.70678571L261.34453781512605,166.64142856499998L262.1848739495798,166.44321429000001L263.02521008403363,167.645357145L263.8655462184874,169.775357145L264.70588235294116,170.109642855L265.5462184873949,170.04L266.38655462184875,171.07178571L267.2268907563025,172.793571435L268.0672268907563,169.79249999999996L268.9075630252101,167.97428570999998L269.74789915966386,167.097857145L270.5882352941177,166.58892856499997L271.42857142857144,165.9825L272.2689075630252,165.831428565L273.109243697479,167.406428565L273.9495798319328,171.061071435L274.78991596638656,171.62464285500002L275.6302521008403,171.133928565L276.4705882352941,171.45L277.3109243697479,170.6925L278.1512605042017,169.04892856499998L278.99159663865544,166.846071435L279.8319327731092,167.11071429L280.672268907563,173.022857145L281.51260504201684,175.771071435L282.3529411764706,177.098571435L283.1932773109244,176.033571435L284.03361344537814,175.88678570999997L284.87394957983196,173.451428565L285.7142857142857,169.461428565L286.5546218487395,172.778571435L287.39495798319325,173.705357145L288.2352941176471,174.792857145L289.07563025210084,175.266428565L289.9159663865546,176.683928565L290.75630252100837,178.651071435L291.5966386554622,179.145L292.43697478991595,174.6525L293.2773109243697,172.87071429L294.11764705882354,172.31571429L294.9579831932773,173.38821428999998L295.7983193277311,173.66678571L296.6386554621849,174.5175L297.47899159663865,175.07892856499998L298.31932773109247,171.46071428999997L299.15966386554624,170.31428570999998L300,168.650357145L300.84033613445376,169.224642855L301.68067226890753,169.491428565L302.52100840336135,169.873928565L303.3613445378151,169.82785714499997L304.2016806722689,169.61035714500002L305.0420168067227,169.951071435L305.88235294117646,170.57464285499998L306.7226890756303,170.769642855L307.56302521008405,172.02428571L308.4033613445378,172.31142856499997L309.24369747899163,173.105357145L310.0840336134454,174.2775L310.92436974789916,174.93428571L311.7647058823529,176.03571429L312.60504201680675,180.67285714500002L313.4453781512605,183.05249999999998L314.2857142857143,183.163928565L315.12605042016804,182.86928570999999L315.96638655462186,182.32500000000002L316.8067226890756,181.19678571L317.6470588235294,182.604642855L318.48739495798316,182.66250000000002L319.327731092437,182.28857143500002L320.1680672268908,181.96392856499997L321.00840336134456,181.99928570999998L321.8487394957983,180.45428571L322.6890756302521,179.76642856499998L323.5294117647059,178.00928571000003L324.3697478991597,174.30214285500003L325.21008403361344,171.59678570999998L326.0504201680672,170.53821429L326.890756302521,173.41178570999998L327.7310924369748,175.47857143500002L328.57142857142856,176.018571435L329.4117647058823,173.821071435L330.25210084033614,174.16178571L331.0924369747899,173.390357145L331.9327731092437,172.27178571000002L332.7731092436975,170.59285714499998L333.61344537815125,169.906071435L334.4537815126051,168.93428571L335.29411764705884,169.53535714499998L336.1344537815126,168.013928565L336.97478991596637,167.80928570999998L337.8151260504202,167.07214285499998L338.65546218487395,163.54500000000002L339.4957983193277,160.87178571L340.3361344537815,160.07785714499997L341.1764705882353,159.23999999999998L342.01680672268907,157.695L342.85714285714283,156.07821429L343.6974789915966,155.69678571L344.5378151260504,154.78178571L345.37815126050424,166.00071429L346.218487394958,164.79107143500002L347.05882352941177,163.85250000000002L347.89915966386553,163.82035714499997L348.73949579831935,163.66821429000004L349.5798319327731,163.58678571000002L350.4201680672269,164.105357145L351.26050420168065,163.648928565L352.10084033613447,160.809642855L352.94117647058823,158.85321428999998L353.781512605042,157.778571435L354.62184873949576,157.580357145L355.4621848739496,158.40428570999998L356.3025210084034,158.13107143500002L357.14285714285717,144.71892855L357.98319327731093,143.46107145000002L358.8235294117647,143.91857144999997L359.6638655462185,142.50535710000003L360.5042016806723,139.96607145L361.34453781512605,139.4925L362.1848739495798,137.75571435L363.02521008403363,137.47928564999998L363.8655462184874,138.54964289999995L364.70588235294116,139.97678565L365.5462184873949,139.37892855L366.38655462184875,138.51321435L367.2268907563025,136.1775L368.0672268907563,135.20464289999998L368.9075630252101,135.36642855L369.74789915966386,134.63892855L370.5882352941177,134.2853571L371.42857142857144,134.76964289999998L372.2689075630252,134.72357144999998L373.109243697479,134.02928565000002L373.9495798319328,134.81892855L374.78991596638656,133.94571435L375.6302521008403,132.54214289999996L376.4705882352941,130.86642855L377.3109243697479,130.75392855L378.1512605042017,130.10785710000002L378.99159663865544,131.55642855000002L379.8319327731092,132.82928565L380.672268907563,132.2378571L381.51260504201684,131.89821435L382.3529411764706,130.66178564999998L383.1932773109244,129.49714289999997L384.03361344537814,129.87642855L384.87394957983196,128.72571435L385.7142857142857,127.44107144999998L386.5546218487395,126.35785710000003L387.39495798319325,124.95428565L388.2352941176471,124.19464289999998L389.07563025210084,124.22678565000001L389.9159663865546,124.50428564999999L390.75630252100837,123.89035710000002L391.5966386554622,122.20821435L392.43697478991595,121.40892855000003L393.2773109243697,122.10642855L394.11764705882354,122.04321434999999L394.9579831932773,121.77107145000001L395.7983193277311,121.03285710000002L396.6386554621849,120.92249999999999L397.47899159663865,118.85357145L398.31932773109247,117.30428565000001L399.15966386554624,116.28857144999999L400,116.04964289999997" stroke="#e45756" stroke-width="2"/></g></g><path class="foreground" aria-hidden="true" d="" display="none"/></g></g><g class="mark-group role-legend" role="graphics-symbol" aria-roledescription="legend" aria-label="Symbol legend titled 'Mode of Transportation' for stroke color with 3 values: Driving, Transit, Walking"><g transform="translate(420,0)"><path class="background" aria-hidden="true" d="M0,0h123v53h-123Z" pointer-events="none"/><g><g class="mark-group role-legend-entry"><g transform="translate(0,16)"><path class="background" aria-hidden="true" d="M0,0h0v0h0Z" pointer-events="none"/><g><g class="mark-group role-scope" role="graphics-object" aria-roledescription="group mark container"><g transform="translate(0,0)"><path class="background" aria-hidden="true" d="M0,0h51.2001953125v11h-51.2001953125Z" pointer-events="none" opacity="1"/><g><g class="mark-symbol role-legend-symbol" pointer-events="none"><path transform="translate(6,6)" d="M-5,0L5,0" stroke="#4c78a8" stroke-width="1.5" opacity="1"/></g><g class="mark-text role-legend-label" pointer-events="none"><text text-anchor="start" transform="translate(16,9)" font-family="sans-serif" font-size="10px" fill="#000" opacity="1">Driving</text></g></g><path class="foreground" aria-hidden="true" d="" pointer-events="none" display="none"/></g><g transform="translate(0,13)"><path class="background" aria-hidden="true" d="M0,0h51.2001953125v11h-51.2001953125Z" pointer-events="none" opacity="1"/><g><g class="mark-symbol role-legend-symbol" pointer-events="none"><path transform="translate(6,6)" d="M-5,0L5,0" stroke="#f58518" stroke-width="1.5" opacity="1"/></g><g class="mark-text role-legend-label" pointer-events="none"><text text-anchor="start" transform="translate(16,9)" font-family="sans-serif" font-size="10px" fill="#000" opacity="1">Transit</text></g></g><path class="foreground" aria-hidden="true" d="" pointer-events="none" display="none"/></g><g transform="translate(0,26)"><path class="background" aria-hidden="true" d="M0,0h51.2001953125v11h-51.2001953125Z" pointer-events="none" opacity="1"/><g><g class="mark-symbol role-legend-symbol" pointer-events="none"><path transform="translate(6,6)" d="M-5,0L5,0" stroke="#e45756" stroke-width="1.5" opacity="1"/></g><g class="mark-text role-legend-label" pointer-events="none"><text text-anchor="start" transform="translate(16,9)" font-family="sans-serif" font-size="10px" fill="#000" opacity="1">Walking</text></g></g><path class="foreground" aria-hidden="true" d="" pointer-events="none" display="none"/></g></g></g><path class="foreground" aria-hidden="true" d="" pointer-events="none" display="none"/></g></g><g class="mark-text role-legend-title" pointer-events="none"><text text-anchor="start" transform="translate(0,9)" font-family="sans-serif" font-size="11px" font-weight="bold" fill="#000" opacity="1">Mode of Transportation</text></g></g><path class="foreground" aria-hidden="true" d="" pointer-events="none" display="none"/></g></g><g class="mark-group role-title"><g transform="translate(200,-29)"><path class="background" aria-hidden="true" d="M0,0h0v0h0Z" pointer-events="none"/><g><g class="mark-text role-title-text" role="graphics-symbol" aria-roledescription="title" aria-label="Title text 'Queens'" pointer-events="none"><text text-anchor="middle" transform="translate(0,16)" font-family="Helvetica" font-size="20px" font-weight="bold" fill="black" opacity="1">Queens</text></g></g><path class="foreground" aria-hidden="true" d="" pointer-events="none" display="none"/></g></g></g><path class="foreground" aria-hidden="true" d="" display="none"/></g></g></g></svg>