<svg xmlns="http://www.w3.org/2000/svg" xmlns:xlink="http://www.w3.org/1999/xlink" version="1.1" class="marks" width="607" height="371" viewBox="0 0 607 371"><rect width="607" height="371" fill="white"/><g fill="none" stroke-miterlimit="10" transform="translate(59,34)"><g class="mark-group role-frame root" role="graphics-object" aria-roledescription="group mark container"><g transform="translate(0,0)"><path class="background" aria-hidden="true" d="M0.5,0.5h400v300h-400Z" stroke="#ddd"/><g><g class="mark-group role-axis" role="graphics-symbol" aria-roledescription="axis" aria-label="X-axis for a time scale with values from Saturday, 25 January 2020, 7:00:00 PM to Saturday, 15 May 2021, 8:00:00 PM"><g transform="translate(0.5,300.5)"><path class="background" aria-hidden="true" d="M0,0h0v0h0Z" pointer-events="none"/><g><g class="mark-rule role-axis-grid" pointer-events="none"><line transform="translate(5,-300)" x2="0" y2="300" stroke="#ddd" stroke-width="1" opacity="1"/><line transform="translate(30,-300)" x2="0" y2="300" stroke="#ddd" stroke-width="1" opacity="1"/><line transform="translate(56,-300)" x2="0" y2="300" stroke="#ddd" stroke-width="1" opacity="1"/><line transform="translate(81,-300)" x2="0" y2="300" stroke="#ddd" stroke-width="1" opacity="1"/><line transform="translate(107,-300)" x2="0" y2="300" stroke="#ddd" stroke-width="1" opacity="1"/><line transform="translate(132,-300)" x2="0" y2="300" stroke="#ddd" stroke-width="1" opacity="1"/><line transform="translate(158,-300)" x2="0" y2="300" stroke="#ddd" stroke-width="1" opacity="1"/><line transform="translate(184,-300)" x2="0" y2="300" stroke="#ddd" stroke-width="1" opacity="1"/><line transform="translate(209,-300)" x2="0" y2="300" stroke="#ddd" stroke-width="1" opacity="1"/><line transform="translate(235,-300)" x2="0" y2="300" stroke="#ddd" stroke-width="1" opacity="1"/><line transform="translate(261,-300)" x2="0" y2="300" stroke="#ddd" stroke-width="1" opacity="1"/><line transform="translate(287,-300)" x2="0" y2="300" stroke="#ddd" stroke-width="1" opacity="1"/><line transform="translate(313,-300)" x2="0" y2="300" stroke="#ddd" stroke-width="1" opacity="1"/><line transform="translate(336,-300)" x2="0" y2="300" stroke="#ddd" stroke-width="1" opacity="1"/><line transform="translate(362,-300)" x2="0" y2="300" stroke="#ddd" stroke-width="1" opacity="1"/><line transform="translate(388,-300)" x2="0" y2="300" stroke="#ddd" stroke-width="1" opacity="1"/></g></g><path class="foreground" aria-hidden="true" d="" pointer-events="none" display="none"/></g></g><g class="mark-group role-axis" role="graphics-symbol" aria-roledescription="axis" aria-label="Y-axis for a linear scale with values from −1.0 to 1.0"><g transform="translate(0.5,0.5)"><path class="background" aria-hidden="true" d="M0,0h0v0h0Z" pointer-events="none"/><g><g class="mark-rule role-axis-grid" pointer-events="none"><line transform="translate(0,300)" x2="400" y2="0" stroke="#ddd" stroke-width="1" opacity="1"/><line transform="translate(0,270)" x2="400" y2="0" stroke="#ddd" stroke-width="1" opacity="1"/><line transform="translate(0,240)" x2="400" y2="0" stroke="#ddd" stroke-width="1" opacity="1"/><line transform="translate(0,210)" x2="400" y2="0" stroke="#ddd" stroke-width="1" opacity="1"/><line transform="translate(0,180)" x2="400" y2="0" stroke="#ddd" stroke-width="1" opacity="1"/><line transform="translate(0,150)" x2="400" y2="0" stroke="#ddd" stroke-width="1" opacity="1"/><line transform="translate(0,120)" x2="400" y2="0" stroke="#ddd" stroke-width="1" opacity="1"/><line transform="translate(0,90)" x2="400" y2="0" stroke="#ddd" stroke-width="1" opacity="1"/><line transform="translate(0,60)" x2="400" y2="0" stroke="#ddd" stroke-width="1" opacity="1"/><line transform="translate(0,30)" x2="400" y2="0" stroke="#ddd" stroke-width="1" opacity="1"/><line transform="translate(0,0)" x2="400" y2="0" stroke="#ddd" stroke-width="1" opacity="1"/></g></g><path class="foreground" aria-hidden="true" d="" pointer-events="none" display="none"/></g></g><g class="mark-group role-axis" role="graphics-symbol" aria-roledescription="axis" aria-label="X-axis titled 'Month' for a time scale with values from Saturday, 25 January 2020, 7:00:00 PM to Saturday, 15 May 2021, 8:00:00 PM"><g transform="translate(0.5,300.5)"><path class="background" aria-hidden="true" d="M0,0h0v0h0Z" pointer-events="none"/><g><g class="mark-rule role-axis-tick" pointer-events="none"><line transform="translate(5,0)" x2="0" y2="5" stroke="#888" stroke-width="1" opacity="1"/><line transform="translate(30,0)" x2="0" y2="5" stroke="#888" stroke-width="1" opacity="1"/><line transform="translate(56,0)" x2="0" y2="5" stroke="#888" stroke-width="1" opacity="1"/><line transform="translate(81,0)" x2="0" y2="5" stroke="#888" stroke-width="1" opacity="1"/><line transform="translate(107,0)" x2="0" y2="5" stroke="#888" stroke-width="1" opacity="1"/><line transform="translate(132,0)" x2="0" y2="5" stroke="#888" stroke-width="1" opacity="1"/><line transform="translate(158,0)" x2="0" y2="5" stroke="#888" stroke-width="1" opacity="1"/><line transform="translate(184,0)" x2="0" y2="5" stroke="#888" stroke-width="1" opacity="1"/><line transform="translate(209,0)" x2="0" y2="5" stroke="#888" stroke-width="1" opacity="1"/><line transform="translate(235,0)" x2="0" y2="5" stroke="#888" stroke-width="1" opacity="1"/><line transform="translate(261,0)" x2="0" y2="5" stroke="#888" stroke-width="1" opacity="1"/><line transform="translate(287,0)" x2="0" y2="5" stroke="#888" stroke-width="1" opacity="1"/><line transform="translate(313,0)" x2="0" y2="5" stroke="#888" stroke-width="1" opacity="1"/><line transform="translate(336,0)" x2="0" y2="5" stroke="#888" stroke-width="1" opacity="1"/><line transform="translate(362,0)" x2="0" y2="5" stroke="#888" stroke-width="1" opacity="1"/><line transform="translate(388,0)" x2="0" y2="5" stroke="#888" stroke-width="1" opacity="1"/></g><g class="mark-text role-axis-label" pointer-events="none"><text text-anchor="middle" transform="translate(5.217086834733894,15)" font-family="sans-serif" font-size="10px" fill="#000" opacity="1">February</text><text text-anchor="middle" transform="translate(29.586834733893557,15)" font-family="sans-serif" font-size="10px" fill="#000" opacity="0">March</text><text text-anchor="middle" transform="translate(55.602240896358545,15)" font-family="sans-serif" font-size="10px" fill="#000" opacity="1">April</text><text text-anchor="middle" transform="translate(80.812324929972,15)" font-family="sans-serif" font-size="10px" fill="#000" opacity="0">May</text><text text-anchor="middle" transform="translate(106.86274509803921,15)" font-family="sans-serif" font-size="10px" fill="#000" opacity="1">June</text><text text-anchor="middle" transform="translate(132.07282913165267,15)" font-family="sans-serif" font-size="10px" fill="#000" opacity="0">July</text><text text-anchor="middle" transform="translate(158.12324929971987,15)" font-family="sans-serif" font-size="10px" fill="#000" opacity="1">August</text><text text-anchor="middle" transform="translate(184.1736694677871,15)" font-family="sans-serif" font-size="10px" fill="#000" opacity="0">September</text><text text-anchor="middle" transform="translate(209.38375350140058,15)" font-family="sans-serif" font-size="10px" fill="#000" opacity="1">October</text><text text-anchor="middle" transform="translate(235.43417366946778,15)" font-family="sans-serif" font-size="10px" fill="#000" opacity="0">November</text><text text-anchor="middle" transform="translate(260.6792717086835,15)" font-family="sans-serif" font-size="10px" fill="#000" opacity="1">December</text><text text-anchor="middle" transform="translate(286.7296918767507,15)" font-family="sans-serif" font-size="10px" fill="#000" opacity="0">2021</text><text text-anchor="middle" transform="translate(312.78011204481794,15)" font-family="sans-serif" font-size="10px" fill="#000" opacity="1">February</text><text text-anchor="middle" transform="translate(336.3095238095238,15)" font-family="sans-serif" font-size="10px" fill="#000" opacity="0">March</text><text text-anchor="middle" transform="translate(362.3249299719888,15)" font-family="sans-serif" font-size="10px" fill="#000" opacity="1">April</text><text text-anchor="middle" transform="translate(387.53501400560225,15)" font-family="sans-serif" font-size="10px" fill="#000" opacity="0">May</text></g><g class="mark-rule role-axis-domain" pointer-events="none"><line transform="translate(0,0)" x2="400" y2="0" stroke="#888" stroke-width="1" opacity="1"/></g><g class="mark-text role-axis-title" pointer-events="none"><text text-anchor="middle" transform="translate(200,30)" font-family="sans-serif" font-size="11px" font-weight="bold" fill="#000" opacity="1">Month</text></g></g><path class="foreground" aria-hidden="true" d="" pointer-events="none" display="none"/></g></g><g class="mark-group role-axis" role="graphics-symbol" aria-roledescription="axis" aria-label="Y-axis titled 'Change compared to baseline' for a linear scale with values from −100% to 100%"><g transform="translate(0.5,0.5)"><path class="background" aria-hidden="true" d="M0,0h0v0h0Z" pointer-events="none"/><g><g class="mark-rule role-axis-tick" pointer-events="none"><line transform="translate(0,300)" x2="-5" y2="0" stroke="#888" stroke-width="1" opacity="1"/><line transform="translate(0,270)" x2="-5" y2="0" stroke="#888" stroke-width="1" opacity="1"/><line transform="translate(0,240)" x2="-5" y2="0" stroke="#888" stroke-width="1" opacity="1"/><line transform="translate(0,210)" x2="-5" y2="0" stroke="#888" stroke-width="1" opacity="1"/><line transform="translate(0,180)" x2="-5" y2="0" stroke="#888" stroke-width="1" opacity="1"/><line transform="translate(0,150)" x2="-5" y2="0" stroke="#888" stroke-width="1" opacity="1"/><line transform="translate(0,120)" x2="-5" y2="0" stroke="#888" stroke-width="1" opacity="1"/><line transform="translate(0,90)" x2="-5" y2="0" stroke="#888" stroke-width="1" opacity="1"/><line transform="translate(0,60)" x2="-5" y2="0" stroke="#888" stroke-width="1" opacity="1"/><line transform="translate(0,30)" x2="-5" y2="0" stroke="#888" stroke-width="1" opacity="1"/><line transform="translate(0,0)" x2="-5" y2="0" stroke="#888" stroke-width="1" opacity="1"/></g><g class="mark-text role-axis-label" pointer-events="none"><text text-anchor="end" transform="translate(-7,303)" font-family="sans-serif" font-size="10px" fill="#000" opacity="1">−100%</text><text text-anchor="end" transform="translate(-7,273)" font-family="sans-serif" font-size="10px" fill="#000" opacity="1">−80%</text><text text-anchor="end" transform="translate(-7,243)" font-family="sans-serif" font-size="10px" fill="#000" opacity="1">−60%</text><text text-anchor="end" transform="translate(-7,213)" font-family="sans-serif" font-size="10px" fill="#000" opacity="1">−40%</text><text text-anchor="end" transform="translate(-7,183)" font-family="sans-serif" font-size="10px" fill="#000" opacity="1">−20%</text><text text-anchor="end" transform="translate(-7,153)" font-family="sans-serif" font-size="10px" fill="#000" opacity="1">0%</text><text text-anchor="end" transform="translate(-7,123)" font-family="sans-serif" font-size="10px" fill="#000" opacity="1">20%</text><text text-anchor="end" transform="translate(-7,93.00000000000001)" font-family="sans-serif" font-size="10px" fill="#000" opacity="1">40%</text><text text-anchor="end" transform="translate(-7,62.999999999999986)" font-family="sans-serif" font-size="10px" fill="#000" opacity="1">60%</text><text text-anchor="end" transform="translate(-7,32.99999999999999)" font-family="sans-serif" font-size="10px" fill="#000" opacity="1">80%</text><text text-anchor="end" transform="translate(-7,3)" font-family="sans-serif" font-size="10px" fill="#000" opacity="1">100%</text></g><g class="mark-rule role-axis-domain" pointer-events="none"><line transform="translate(0,300)" x2="0" y2="-300" stroke="#888" stroke-width="1" opacity="1"/></g><g class="mark-text role-axis-title" pointer-events="none"><text text-anchor="middle" transform="translate(-42.416015625,150) rotate(-90) translate(0,-2)" font-family="sans-serif" font-size="11px" font-weight="bold" fill="#000" opacity="1">Change compared to baseline</text></g></g><path class="foreground" aria-hidden="true" d="" pointer-events="none" display="none"/></g></g><g class="mark-group role-scope pathgroup" role="graphics-object" aria-roledescription="group mark container"><g transform="translate(0,0)"><path class="background" aria-hidden="true" d="M0,0h400v300h-400Z"/><g><g class="mark-line role-mark marks" role="graphics-symbol" aria-roledescription="line mark container"><path d="M0,136.10142854999998L0.8403361344537815,136.13785710000005L1.680672268907563,135.98464289999998L2.5210084033613445,136.14642855L3.361344537815126,136.68321435000001L4.201680672268908,137.59607144999998L5.042016806722689,136.08L5.88235294117647,136.66071434999998L6.722689075630252,136.71857145L7.563025210084033,137.07428565L8.403361344537815,136.815L9.243697478991598,141.18214289999997L10.084033613445378,142.21607145L10.92436974789916,141.56357145L11.76470588235294,141.50357144999998L12.605042016806722,141.00642855L13.445378151260504,140.27464289999998L14.285714285714285,140.0228571L15.126050420168067,139.09285710000003L15.966386554621847,137.43428565L16.80672268907563,137.31214289999997L17.647058823529413,136.3403571L18.487394957983195,135.91607145L19.327731092436977,135.20142855000003L20.168067226890756,135.08785710000004L21.008403361344538,134.7621429L21.84873949579832,134.41607145L22.689075630252102,133.99714289999997L23.52941176470588,133.72178565L24.369747899159663,133.96928565000002L25.210084033613445,134.30142855000003L26.05042016806723,133.62428565L26.89075630252101,133.8771429L27.73109243697479,134.03785710000002L28.57142857142857,133.05857145000002L29.411764705882355,132.13285710000002L30.252100840336134,132.07928565L31.092436974789916,132.0621429L31.932773109243694,131.78035710000003L32.773109243697476,131.55428565000003L33.61344537815126,131.04857145L34.45378151260504,130.50000000000003L35.294117647058826,129.98142855L36.134453781512605,129.32571435L36.97478991596639,129.41785710000002L37.81512605042017,130.2525L38.655462184873954,131.92821435L39.49579831932773,134.91107144999998L40.33613445378151,138.59035710000003L41.17647058823529,142.71857144999998L42.016806722689076,145.73142855L42.857142857142854,149.65392855000002L43.69747899159664,154.408928565L44.537815126050425,159.486428565L45.378151260504204,165.931071435L46.21848739495798,173.431071435L47.05882352941176,179.72678571000003L47.89915966386555,186.762857145L48.739495798319325,192.69642856500002L49.57983193277311,198.87428571L50.42016806722689,203.68607143499997L51.26050420168067,208.85142856500002L52.10084033613446,213.97071429L52.94117647058824,217.22142856500002L53.78151260504202,220.2375L54.621848739495796,222.602142855L55.46218487394958,224.627142855L56.30252100840336,226.30928571L57.14285714285714,227.945357145L57.98319327731093,228.61607143499998L58.82352941176471,228.49499999999998L59.66386554621849,227.667857145L60.50420168067227,227.52642856499997L61.34453781512605,227.02178571000002L62.18487394957983,227.165357145L63.02521008403361,227.093571435L63.86554621848739,226.07571429L64.70588235294117,226.11321429L65.54621848739495,226.245L66.38655462184873,225.365357145L67.22689075630252,224.466428565L68.0672268907563,223.42714285499997L68.90756302521008,222.186428565L69.74789915966386,221.743928565L70.58823529411765,220.670357145L71.42857142857143,219.893571435L72.26890756302521,219.34178570999998L73.10924369747899,218.20821429L73.94957983193278,217.191428565L74.78991596638656,216.560357145L75.63025210084034,215.17178571000002L76.47058823529412,213.99428570999999L77.31092436974791,212.81571429L78.15126050420169,211.528928565L78.99159663865547,210.830357145L79.83193277310924,210.6L80.67226890756302,209.60999999999999L81.5126050420168,207.45642856499998L82.35294117647058,206.09035714499998L83.19327731092437,204.837857145L84.03361344537815,203.00249999999997L84.87394957983193,202.37892856499997L85.71428571428571,200.40750000000003L86.5546218487395,199.17214285500003L87.39495798319328,198.27L88.23529411764706,195.85821429L89.07563025210085,201.79821428999998L89.91596638655463,209.016428565L90.75630252100841,207.07071428999998L91.59663865546219,204.78000000000003L92.43697478991596,202.00821429L93.27731092436974,199.87285714499998L94.11764705882352,198.58928571000004L94.9579831932773,197.21678571L95.7983193277311,195.68035714500002L96.63865546218487,193.01142856500002L97.47899159663865,191.139642855L98.31932773109243,187.94357143500002L99.15966386554622,186.722142855L100,185.07L100.84033613445378,176.63250000000002L101.68067226890756,165.83357143499998L102.52100840336134,163.637142855L103.36134453781514,161.697857145L104.20168067226892,160.39928570999996L105.0420168067227,158.95178571000002L105.88235294117648,157.51285714500003L106.72268907563026,155.773928565L107.56302521008404,155.31L108.40336134453781,155.168571435L109.24369747899159,154.048928565L110.08403361344538,153.59571429L110.92436974789916,150.849642855L111.76470588235294,149.54035710000002L112.60504201680672,146.29607144999997L113.4453781512605,144.97178565L114.28571428571428,143.5478571L115.12605042016806,142.89857145L115.96638655462186,140.54142855L116.80672268907564,138.76071435L117.64705882352942,137.58749999999998L118.4873949579832,136.26964289999998L119.32773109243698,133.27071435L120.16806722689076,130.30178565L121.00840336134453,128.75464289999996L121.84873949579831,125.565L122.6890756302521,123.84642855000001L123.52941176470588,123.36107145L124.36974789915966,121.61142855000003L125.21008403361344,119.6625L126.05042016806722,117.63642855000003L126.890756302521,114.38250000000001L127.73109243697478,112.60499999999999L128.57142857142858,111.76178564999998L129.41176470588235,110.10321435L130.25210084033614,108.00214289999998L131.0924369747899,107.15571435000001L131.9327731092437,106.27392855L132.77310924369746,103.46678564999999L133.61344537815125,103.42178565L134.45378151260505,105.44357144999998L135.29411764705884,104.76964289999998L136.1344537815126,104.76535709999999L136.9747899159664,104.86178565L137.81512605042016,105.33857144999999L138.65546218487395,104.99142855000002L139.49579831932772,107.69142855000003L140.3361344537815,107.38821435L141.1764705882353,106.68428565000002L142.01680672268907,107.06250000000001L142.85714285714286,105.70928565L143.69747899159663,104.74392855000004L144.53781512605042,105.33428565L145.37815126050418,104.53285710000003L146.21848739495798,100.86749999999999L147.05882352941177,99.46714289999996L147.89915966386556,99.11571435000003L148.73949579831933,98.37428565L149.57983193277312,98.30464289999999L150.42016806722688,98.38285710000001L151.26050420168067,96.21321435000003L152.10084033613444,94.69178565L152.94117647058823,94.51285710000003L153.78151260504202,93.69857145000002L154.62184873949582,93.97928565000002L155.46218487394958,93.54107145000002L156.30252100840337,93.30750000000003L157.14285714285714,93.24964289999998L157.98319327731093,92.32500000000002L158.8235294117647,92.89392854999997L159.6638655462185,92.24892854999997L160.50420168067228,93.44678565L161.34453781512605,91.01357145000001L162.18487394957984,89.95499999999998L163.0252100840336,89.03249999999997L163.8655462184874,88.71214289999998L164.70588235294116,88.40678565000002L165.54621848739495,87.78107145000001L166.38655462184875,87.08464289999996L167.22689075630254,87.51535709999999L168.0672268907563,87.28928565L168.9075630252101,85.605L169.74789915966386,86.20821435L170.58823529411765,87.04928564999999L171.42857142857142,86.75142854999997L172.2689075630252,84.80892854999999L173.109243697479,86.81785710000005L173.94957983193277,86.88535710000002L174.78991596638656,85.96714289999997L175.63025210084032,85.85678565000003L176.47058823529412,85.96178565000002L177.31092436974788,86.73535710000004L178.1512605042017,87.12750000000001L178.99159663865547,86.78678565L179.83193277310926,87.63535710000001L180.67226890756302,88.78392854999996L181.51260504201682,90.63428565L182.35294117647058,88.4378571L183.19327731092437,89.47714289999995L184.03361344537814,90.61821434999999L184.87394957983193,90.90535710000002L185.71428571428572,91.76571435000001L186.5546218487395,91.94357145000001L187.39495798319328,92.83392854999998L188.23529411764704,93.11142855L189.07563025210084,95.04321435000003L189.9159663865546,95.76964290000001L190.75630252100842,96.45642854999996L191.5966386554622,96.90428565L192.43697478991598,95.58857145000003L193.27731092436974,92.72678565000001L194.11764705882354,93.87535710000002L194.9579831932773,93.26892854999997L195.7983193277311,92.74714289999996L196.63865546218486,92.65714289999997L197.47899159663865,93.3471429L198.31932773109244,94.09178564999999L199.15966386554624,93.14785710000005L200,93.47357145000004L200.84033613445376,92.74285710000004L201.68067226890756,93.54642854999999L202.52100840336135,94.32535710000003L203.3613445378151,94.76357145000003L204.20168067226888,95.7675L205.04201680672267,96.28928565L205.88235294117646,96.32464289999994L206.72268907563029,97.8921429L207.56302521008405,100.06392855000001L208.40336134453784,101.05714289999997L209.2436974789916,101.02714289999997L210.0840336134454,101.56178565L210.92436974789916,101.56178565L211.76470588235296,101.81464290000001L212.60504201680672,101.41928565000003L213.4453781512605,101.39142854999999L214.28571428571428,101.49321434999999L215.12605042016807,101.27357144999998L215.96638655462183,101.26392855000002L216.80672268907563,100.81392855L217.6470588235294,101.31107144999999L218.48739495798318,102.67285710000003L219.327731092437,103.24500000000002L220.16806722689077,103.22250000000001L221.00840336134456,103.98749999999998L221.84873949579833,105.22607144999999L222.68907563025212,105.84107144999999L223.52941176470588,105.98035710000002L224.36974789915968,105.97821434999999L225.21008403361344,106.37571435L226.05042016806723,106.63714289999996L226.890756302521,106.98964289999996L227.7310924369748,107.42035710000003L228.57142857142856,108.14035710000002L229.41176470588235,108.30857145L230.2521008403361,107.5275L231.0924369747899,106.94035710000001L231.93277310924373,106.9725L232.7731092436975,108.31285710000002L233.61344537815128,108.2496429L234.45378151260505,109.18071435000002L235.29411764705884,111.09857145L236.1344537815126,113.07857144999997L236.9747899159664,114.24000000000001L237.81512605042016,116.15571434999998L238.65546218487395,117.66857145L239.49579831932772,119.42785710000003L240.3361344537815,121.51178565000001L241.17647058823528,122.50285710000001L242.01680672268907,123.32142855000001L242.85714285714283,123.91714289999999L243.69747899159663,125.32607145000001L244.53781512605045,126.42964289999996L245.3781512605042,128.07857145L246.218487394958,130.13678564999998L247.05882352941177,131.22642855L247.89915966386556,131.98071435L248.73949579831933,132.96107145L249.57983193277312,133.12392855000002L250.42016806722688,133.89000000000001L251.26050420168067,134.66892855L252.10084033613444,135.795L252.94117647058823,137.34642855L253.781512605042,137.64642855L254.6218487394958,137.57571435L255.46218487394955,136.17428565L256.3025210084034,140.34L257.14285714285717,142.43249999999998L257.98319327731093,144.04607144999997L258.8235294117647,144.07821435000002L259.6638655462185,143.31107145L260.5042016806723,143.11392855L261.34453781512605,143.23499999999999L262.1848739495798,143.06571434999998L263.02521008403363,144.345L263.8655462184874,145.84071435L264.70588235294116,145.66928564999998L265.5462184873949,145.96178564999997L266.38655462184875,147.05357145L267.2268907563025,149.30785710000004L268.0672268907563,144.88392855L268.9075630252101,142.56642855L269.74789915966386,141.69535710000002L270.5882352941177,140.9978571L271.42857142857144,141.79178565L272.2689075630252,140.9496429L273.109243697479,142.85678564999998L273.9495798319328,147.35999999999999L274.78991596638656,147.79607144999997L275.6302521008403,146.81464289999997L276.4705882352941,146.84464289999997L277.3109243697479,145.15285709999998L278.1512605042017,143.0025L278.99159663865544,139.5375L279.8319327731092,139.335L280.672268907563,146.4653571L281.51260504201684,148.49571435L282.3529411764706,149.00571435L283.1932773109244,148.18714290000003L284.03361344537814,148.36392855000003L284.87394957983196,145.23964289999998L285.7142857142857,140.97321435L286.5546218487395,145.3028571L287.39495798319325,146.655L288.2352941176471,147.63750000000002L289.07563025210084,149.32392855L289.9159663865546,151.34035714499998L290.75630252100837,154.9875L291.5966386554622,155.71071429L292.43697478991595,149.88535710000002L293.2773109243697,148.5696429L294.11764705882354,148.92964289999998L294.9579831932773,150.058928565L295.7983193277311,150.80571429000003L296.6386554621849,152.121428565L297.47899159663865,152.300357145L298.31932773109247,146.9378571L299.15966386554624,145.995L300,144.82392855L300.84033613445376,144.4725L301.68067226890753,145.14107145L302.52100840336135,145.21071435000002L303.3613445378151,145.2246429L304.2016806722689,144.88178564999998L305.0420168067227,144.56250000000003L305.88235294117646,144.73499999999999L306.7226890756303,144.61928565L307.56302521008405,145.93928565L308.4033613445378,146.25L309.24369747899163,146.10857144999997L310.0840336134454,146.91321435L310.92436974789916,147.05678565L311.7647058823529,148.05964289999997L312.60504201680675,155.60571429000004L313.4453781512605,159.70821429L314.2857142857143,160.542857145L315.12605042016804,160.425L315.96638655462186,160.269642855L316.8067226890756,159.7425L317.6470588235294,162.098571435L318.48739495798316,162.6675L319.327731092437,162.20785714500002L320.1680672268908,162.009642855L321.00840336134456,162.20035714500003L321.8487394957983,161.537142855L322.6890756302521,161.427857145L323.5294117647059,160.05321429L324.3697478991597,154.291071435L325.21008403361344,150.496071435L326.0504201680672,148.96178564999997L326.890756302521,153.21535714499998L327.7310924369748,155.51142856500002L328.57142857142856,156.152142855L329.4117647058823,153.346071435L330.25210084033614,153.51749999999998L331.0924369747899,152.948571435L331.9327731092437,152.274642855L332.7731092436975,151.314642855L333.61344537815125,150.718928565L334.4537815126051,150.398571435L335.29411764705884,150.6225L336.1344537815126,149.26071435L336.97478991596637,147.92892855L337.8151260504202,147.31714289999996L338.65546218487395,142.04357144999997L339.4957983193277,138.09428565L340.3361344537815,136.80321435L341.1764705882353,135.93535710000003L342.01680672268907,134.63571435L342.85714285714283,133.5675L343.6974789915966,133.0928571L344.5378151260504,131.97857145L345.37815126050424,145.52892855L346.218487394958,144.03107144999998L347.05882352941177,141.0203571L347.89915966386553,140.28857144999998L348.73949579831935,140.14392855L349.5798319327731,140.06892855L350.4201680672269,140.16214289999996L351.26050420168065,139.75607144999998L352.10084033613447,138.13928565000003L352.94117647058823,136.78714289999996L353.781512605042,135.55714289999997L354.62184873949576,134.89071435000002L355.4621848739496,134.39142855L356.3025210084034,134.28L357.14285714285717,117.66857145L357.98319327731093,116.07642855L358.8235294117647,118.57821435L359.6638655462185,117.28928564999998L360.5042016806723,115.37785710000004L361.34453781512605,113.90142855L362.1848739495798,112.05321434999999L363.02521008403363,111.13392855L363.8655462184874,111.18964289999997L364.70588235294116,112.70357144999998L365.5462184873949,111.99964289999998L366.38655462184875,110.78464289999998L367.2268907563025,109.28142855000002L368.0672268907563,107.03142855000003L368.9075630252101,106.81178565000002L369.74789915966386,106.52678565L370.5882352941177,105.585L371.42857142857144,105.77035710000001L372.2689075630252,106.21607145000002L373.109243697479,106.37999999999998L373.9495798319328,107.1878571L374.78991596638656,106.64464290000001L375.6302521008403,105.71249999999999L376.4705882352941,103.48392855L377.3109243697479,104.02821434999997L378.1512605042017,104.00464289999996L378.99159663865544,105.29035710000004L379.8319327731092,107.19535710000002L380.672268907563,107.25107145L381.51260504201684,105.96L382.3529411764706,105.75428564999999L383.1932773109244,105.19714289999999L384.03361344537814,104.61642855L384.87394957983196,103.64464290000001L385.7142857142857,102.76178565000001L386.5546218487395,102.10392854999999L387.39495798319325,101.2725L388.2352941176471,100.29321435000001L389.07563025210084,99.73071435000003L389.9159663865546,99.56678564999999L390.75630252100837,98.94214289999998L391.5966386554622,97.63607144999999L392.43697478991595,97.22678564999998L393.2773109243697,97.77642854999995L394.11764705882354,96.10607145000003L394.9579831932773,96.01821434999998L395.7983193277311,95.66035710000003L396.6386554621849,95.24250000000002L397.47899159663865,93.48107145000002L398.31932773109247,92.72571435L399.15966386554624,91.5525L400,91.14107145000001" stroke="#4c78a8" stroke-width="2"/></g></g><path class="foreground" aria-hidden="true" d="" display="none"/></g><g transform="translate(0,0)"><path class="background" aria-hidden="true" d="M0,0h400v300h-400Z"/><g><g class="mark-line role-mark marks" role="graphics-symbol" aria-roledescription="line mark container"><path d="M0,146.61107145L0.8403361344537815,144.82071435L1.680672268907563,143.8071429L2.5210084033613445,143.49857145L3.361344537815126,143.385L4.201680672268908,142.61035710000002L5.042016806722689,141.14035710000002L5.88235294117647,141.76821435000002L6.722689075630252,140.61214289999998L7.563025210084033,141.55928565000002L8.403361344537815,143.5028571L9.243697478991598,147.06857144999995L10.084033613445378,148.69178565L10.92436974789916,147.26142855000003L11.76470588235294,147.27107145L12.605042016806722,148.64464289999998L13.445378151260504,149.54785710000002L14.285714285714285,150.13928571L15.126050420168067,149.91642855L15.966386554621847,149.73428564999998L16.80672268907563,149.81142855000002L17.647058823529413,148.29642855L18.487394957983195,148.29964289999998L19.327731092436977,146.56821435L20.168067226890756,144.89785709999998L21.008403361344538,143.90249999999997L21.84873949579832,143.25535710000003L22.689075630252102,142.49571435000001L23.52941176470588,142.15392855000002L24.369747899159663,142.31571435L25.210084033613445,142.425L26.05042016806723,142.22678564999998L26.89075630252101,142.47321435L27.73109243697479,142.48178565L28.57142857142857,141.79392855L29.411764705882355,141.86892855L30.252100840336134,141.67714289999995L31.092436974789916,143.13428565L31.932773109243694,143.58L32.773109243697476,144.11142855L33.61344537815126,144.69428565L34.45378151260504,145.02L35.294117647058826,145.08857145L36.134453781512605,144.40178565000002L36.97478991596639,145.0575L37.81512605042017,145.90071435000002L38.655462184873954,148.34142855000002L39.49579831932773,151.60071429L40.33613445378151,155.85750000000002L41.17647058823529,159.897857145L42.016806722689076,165.49607143499998L42.857142857142854,171.89464285499997L43.69747899159664,179.69785714500003L44.537815126050425,186.77678570999998L45.378151260504204,194.288571435L46.21848739495798,202.34249999999997L47.05882352941176,208.68428571L47.89915966386555,217.592142855L48.739495798319325,225.03107143499997L49.57983193277311,232.64357143499998L50.42016806722689,238.418571435L51.26050420168067,244.287857145L52.10084033613446,249.32464285499998L52.94117647058824,252.64821429000003L53.78151260504202,255.72428571L54.621848739495796,258.261428565L55.46218487394958,260.288571435L56.30252100840336,262.425L57.14285714285714,264.12L57.98319327731093,265.08321429L58.82352941176471,265.910357145L59.66386554621849,266.187857145L60.50420168067227,266.852142855L61.34453781512605,267.260357145L62.18487394957983,267.86892856500003L63.02521008403361,268.419642855L63.86554621848739,268.392857145L64.70588235294117,268.632857145L65.54621848739495,268.78071429L66.38655462184873,268.636071435L67.22689075630252,268.536428565L68.0672268907563,268.41428571L68.90756302521008,268.50428571L69.74789915966386,268.47214285499996L70.58823529411765,268.396071435L71.42857142857143,268.573928565L72.26890756302521,268.388571435L73.10924369747899,268.38428571000003L73.94957983193278,268.25678571L74.78991596638656,268.24071428999997L75.63025210084034,268.048928565L76.47058823529412,267.96L77.31092436974791,267.8775L78.15126050420169,267.79178571L78.99159663865547,267.759642855L79.83193277310924,267.658928565L80.67226890756302,267.31071429L81.5126050420168,267.111428565L82.35294117647058,266.30142856500004L83.19327731092437,265.69392856499996L84.03361344537815,265.21821429L84.87394957983193,264.287142855L85.71428571428571,263.62928571L86.5546218487395,263.243571435L87.39495798319328,263.235L88.23529411764706,262.62857143499997L89.07563025210085,262.647857145L89.91596638655463,263.266071435L90.75630252100841,262.90178571L91.59663865546219,262.536428565L92.43697478991596,262.06928571L93.27731092436974,261.609642855L94.11764705882352,261.698571435L94.9579831932773,261.282857145L95.7983193277311,260.89178571L96.63865546218487,261.027857145L97.47899159663865,260.65928571L98.31932773109243,260.17821428999997L99.15966386554622,259.719642855L100,259.422857145L100.84033613445378,258.572142855L101.68067226890756,257.07107143499996L102.52100840336134,256.25464285500004L103.36134453781514,255.533571435L104.20168067226892,255.21L105.0420168067227,254.604642855L105.88235294117648,253.704642855L106.72268907563026,253.09071429L107.56302521008404,252.668571435L108.40336134453781,251.987142855L109.24369747899159,251.42142856499999L110.08403361344538,250.805357145L110.92436974789916,249.68892856500003L111.76470588235294,248.806071435L112.60504201680672,247.27928571L113.4453781512605,245.94321429L114.28571428571428,245.11392856499998L115.12605042016806,244.71321429L115.96638655462186,243.369642855L116.80672268907564,242.468571435L117.64705882352942,241.598571435L118.4873949579832,240.54428571L119.32773109243698,239.0625L120.16806722689076,237.73499999999999L121.00840336134453,236.73535714500002L121.84873949579831,235.378928565L122.6890756302521,234.44785714500003L123.52941176470588,233.781428565L124.36974789915966,232.72178571L125.21008403361344,231.621428565L126.05042016806722,230.08178571000002L126.890756302521,228.10071429L127.73109243697478,226.61571429L128.57142857142858,225.79178571000003L129.41176470588235,224.9775L130.25210084033614,223.30821429L131.0924369747899,222.696428565L131.9327731092437,221.79000000000002L132.77310924369746,220.04892856499998L133.61344537815125,219.481071435L134.45378151260505,218.78357143500003L135.29411764705884,217.598571435L136.1344537815126,217.498928565L136.9747899159664,216.9075L137.81512605042016,216.53678571L138.65546218487395,215.438571435L139.49579831932772,216.81750000000002L140.3361344537815,216.22392856500002L141.1764705882353,215.52321429L142.01680672268907,215.724642855L142.85714285714286,214.61571429L143.69747899159663,213.586071435L144.53781512605042,213.51L145.37815126050418,212.83071429L146.21848739495798,211.63500000000002L147.05882352941177,211.17642856499998L147.89915966386556,210.61285714500002L148.73949579831933,210.29571429L149.57983193277312,210.31821429000001L150.42016806722688,210.875357145L151.26050420168067,209.637857145L152.10084033613444,208.70357143500001L152.94117647058823,208.42607143499998L153.78151260504202,207.85178571000003L154.62184873949582,207.605357145L155.46218487394958,207.76392856500001L156.30252100840337,207.965357145L157.14285714285714,207.93L157.98319327731093,207.83142856499998L158.8235294117647,208.3125L159.6638655462185,207.872142855L160.50420168067228,208.587857145L161.34453781512605,207.503571435L162.18487394957984,207.07821428999998L163.0252100840336,206.00785714499997L163.8655462184874,206.09357143500003L164.70588235294116,205.87071429L165.54621848739495,205.471071435L166.38655462184875,205.52571429L167.22689075630254,205.373571435L168.0672268907563,205.296428565L168.9075630252101,203.956071435L169.74789915966386,203.82428571000003L170.58823529411765,203.75571429L171.42857142857142,203.33464285499997L172.2689075630252,201.77785714499998L173.109243697479,202.15821429L173.94957983193277,201.10285714500003L174.78991596638656,200.45892856499998L175.63025210084032,199.625357145L176.47058823529412,199.40142856499997L177.31092436974788,199.00821428999998L178.1512605042017,198.158571435L178.99159663865547,197.48464285500003L179.83193277310926,196.62107143499998L180.67226890756302,196.78928571L181.51260504201682,197.25428571L182.35294117647058,196.070357145L183.19327731092437,196.325357145L184.03361344537814,197.18571429000002L184.87394957983193,196.922142855L185.71428571428572,197.73428571L186.5546218487395,197.600357145L187.39495798319328,197.98928571L188.23529411764704,198.66428571L189.07563025210084,199.65L189.9159663865546,200.05821429000002L190.75630252100842,199.824642855L191.5966386554622,199.978928565L192.43697478991598,199.45071429L193.27731092436974,198.795L194.11764705882354,199.442142855L194.9579831932773,198.91821429L195.7983193277311,198.19928571L196.63865546218486,197.98928571L197.47899159663865,197.82214285499998L198.31932773109244,197.941071435L199.15966386554624,197.867142855L200,197.533928565L200.84033613445376,197.01107143500002L201.68067226890756,197.055L202.52100840336135,197.47071429L203.3613445378151,197.682857145L204.20168067226888,198.039642855L205.04201680672267,197.70321429L205.88235294117646,197.600357145L206.72268907563029,198.19071429000002L207.56302521008405,198.96321429000002L208.40336134453784,198.98678571L209.2436974789916,198.31928571L210.0840336134454,197.736428565L210.92436974789916,196.958571435L211.76470588235296,196.26535714499997L212.60504201680672,195.591428565L213.4453781512605,195.201428565L214.28571428571428,194.723571435L215.12605042016807,194.367857145L215.96638655462183,193.506428565L216.80672268907563,192.63535714499997L217.6470588235294,192.549642855L218.48739495798318,193.35107143500002L219.327731092437,193.100357145L220.16806722689077,192.871071435L221.00840336134456,193.02428571000002L221.84873949579833,194.23178571L222.68907563025212,194.015357145L223.52941176470588,194.41392856500002L224.36974789915968,194.78678570999998L225.21008403361344,194.49321429L226.05042016806723,194.27678571L226.890756302521,193.83428571L227.7310924369748,194.00464285500001L228.57142857142856,193.87178570999995L229.41176470588235,193.49571429L230.2521008403361,192.2475L231.0924369747899,191.901428565L231.93277310924373,191.89821428999997L232.7731092436975,192.79714285500003L233.61344537815128,192.327857145L234.45378151260505,192.51214285500004L235.29411764705884,193.358571435L236.1344537815126,193.71428571L236.9747899159664,195.06214285500002L237.81512605042016,196.322142855L238.65546218487395,196.44535714500003L239.49579831932772,196.61142856499998L240.3361344537815,197.153571435L241.17647058823528,197.23499999999999L242.01680672268907,197.27464285499997L242.85714285714283,197.26178571L243.69747899159663,197.96678571L244.53781512605045,198.37821429L245.3781512605042,199.058571435L246.218487394958,199.69178571L247.05882352941177,200.124642855L247.89915966386556,200.948571435L248.73949579831933,200.896071435L249.57983193277312,201.33214285499997L250.42016806722688,202.494642855L251.26050420168067,203.44714285499998L252.10084033613444,204.40285714499998L252.94117647058823,205.75285714499998L253.781512605042,206.877857145L254.6218487394958,207.79392856500002L255.46218487394955,208.57714285500003L256.3025210084034,210.88928571L257.14285714285717,211.45499999999998L257.98319327731093,212.89392856499998L258.8235294117647,212.95178571L259.6638655462185,213.36321428999997L260.5042016806723,213.67928571L261.34453781512605,213.945L262.1848739495798,214.52464285500002L263.02521008403363,215.202857145L263.8655462184874,216.687857145L264.70588235294116,216.42535714500002L265.5462184873949,216.541071435L266.38655462184875,216.825L267.2268907563025,217.16464285499998L268.0672268907563,214.82999999999998L268.9075630252101,214.61142856499998L269.74789915966386,214.42928571000002L270.5882352941177,214.43678571L271.42857142857144,214.577142855L272.2689075630252,214.846071435L273.109243697479,215.72571429L273.9495798319328,216.42857143499998L274.78991596638656,216.52821429L275.6302521008403,215.79535714500003L276.4705882352941,215.72785714499997L277.3109243697479,215.128928565L278.1512605042017,214.63178571L278.99159663865544,213.771428565L279.8319327731092,215.54892856499998L280.672268907563,218.86178571000002L281.51260504201684,219.81428570999998L282.3529411764706,220.08214285499997L283.1932773109244,219.55821429L284.03361344537814,219.19714285499998L284.87394957983196,218.034642855L285.7142857142857,218.34321429L286.5546218487395,220.719642855L287.39495798319325,221.037857145L288.2352941176471,221.68607143499997L289.07563025210084,222.18214285500002L289.9159663865546,222.353571435L290.75630252100837,223.005L291.5966386554622,221.532857145L292.43697478991595,218.46107143499998L293.2773109243697,217.55571429L294.11764705882354,216.9975L294.9579831932773,217.14214285499997L295.7983193277311,217.43678571L296.6386554621849,217.54178571000003L297.47899159663865,215.993571435L298.31932773109247,213.623571435L299.15966386554624,213.436071435L300,213.09428571L300.84033613445376,213.06321429000002L301.68067226890753,213.102857145L302.52100840336135,212.80714285500002L303.3613445378151,212.82000000000002L304.2016806722689,212.48035714500003L305.0420168067227,212.547857145L305.88235294117646,213.21750000000003L306.7226890756303,213.275357145L307.56302521008405,213.73928571L308.4033613445378,213.86464285500003L309.24369747899163,214.20642856499998L310.0840336134454,214.82464285499998L310.92436974789916,215.10428571L311.7647058823529,215.421428565L312.60504201680675,217.82250000000002L313.4453781512605,218.6775L314.2857142857143,218.045357145L315.12605042016804,217.41321429L315.96638655462186,217.55678570999999L316.8067226890756,217.26L317.6470588235294,217.76571428999998L318.48739495798316,217.598571435L319.327731092437,217.17321429L320.1680672268908,216.92142856499999L321.00840336134456,216.70285714499997L321.8487394957983,216.04178571L322.6890756302521,215.364642855L323.5294117647059,214.81071429L324.3697478991597,212.746071435L325.21008403361344,211.50321429L326.0504201680672,211.57714285500003L326.890756302521,213.17249999999999L327.7310924369748,213.78107143500003L328.57142857142856,213.50785714500003L329.4117647058823,212.39357143499998L330.25210084033614,212.46214285500002L331.0924369747899,211.52357143499998L331.9327731092437,210.53142856500003L332.7731092436975,209.83607143499998L333.61344537815125,209.09035714499998L334.4537815126051,209.13321428999998L335.29411764705884,208.8525L336.1344537815126,207.89142856499998L336.97478991596637,207.587142855L337.8151260504202,207.441428565L338.65546218487395,205.35642856500002L339.4957983193277,203.71178571000002L340.3361344537815,203.22428570999998L341.1764705882353,202.70999999999998L342.01680672268907,202.30178571L342.85714285714283,202.215L343.6974789915966,202.32107143500002L344.5378151260504,201.507857145L345.37815126050424,208.87178570999998L346.218487394958,207.81L347.05882352941177,207.01178571L347.89915966386553,207.13928571000002L348.73949579831935,207.34178571L349.5798319327731,207.605357145L350.4201680672269,208.348928565L351.26050420168065,208.321071435L352.10084033613447,207.13392856500002L352.94117647058823,206.34107143499998L353.781512605042,205.268571435L354.62184873949576,205.209642855L355.4621848739496,205.2975L356.3025210084034,205.528928565L357.14285714285717,196.62428571L357.98319327731093,195.87428571L358.8235294117647,196.31571429000002L359.6638655462185,195.084642855L360.5042016806723,193.156071435L361.34453781512605,191.648571435L362.1848739495798,190.05642856499998L363.02521008403363,189.503571435L363.8655462184874,189.632142855L364.70588235294116,189.73607143499999L365.5462184873949,189.1425L366.38655462184875,187.452857145L367.2268907563025,186.133928565L368.0672268907563,184.62964285500001L368.9075630252101,184.149642855L369.74789915966386,183.7275L370.5882352941177,183.44678571000003L371.42857142857144,183.525L372.2689075630252,183.650357145L373.109243697479,184.017857145L373.9495798319328,184.56L374.78991596638656,183.96428571L375.6302521008403,183.519642855L376.4705882352941,182.79L377.3109243697479,182.604642855L378.1512605042017,182.76L378.99159663865544,183.6825L379.8319327731092,184.56428571L380.672268907563,184.190357145L381.51260504201684,183.471428565L382.3529411764706,183.10928571L383.1932773109244,182.48785714499996L384.03361344537814,182.31428570999998L384.87394957983196,181.167857145L385.7142857142857,180.65785714499998L386.5546218487395,179.705357145L387.39495798319325,178.70892856499998L388.2352941176471,178.104642855L389.07563025210084,177.429642855L389.9159663865546,177.471428565L390.75630252100837,177.02785714499998L391.5966386554622,175.793571435L392.43697478991595,176.03571429L393.2773109243697,176.73321429L394.11764705882354,176.746071435L394.9579831932773,176.74821429L395.7983193277311,176.63785714500003L396.6386554621849,176.47821429L397.47899159663865,174.81107143499997L398.31932773109247,173.89607143499998L399.15966386554624,172.49678570999998L400,172.558928565" stroke="#f58518" stroke-width="2"/></g></g><path class="foreground" aria-hidden="true" d="" display="none"/></g><g transform="translate(0,0)"><path class="background" aria-hidden="true" d="M0,0h400v300h-400Z"/><g><g class="mark-line role-mark marks" role="graphics-symbol" aria-roledescription="line mark container"><path d="M0,146.65285709999998L0.8403361344537815,146.11607145L1.680672268907563,145.07035710000002L2.5210084033613445,145.9371429L3.361344537815126,146.51357145L4.201680672268908,145.71642855000005L5.042016806722689,143.2125L5.88235294117647,142.66607145L6.722689075630252,141.98785710000004L7.563025210084033,141.78857144999998L8.403361344537815,142.50535710000003L9.243697478991598,144.83678565L10.084033613445378,146.7471429L10.92436974789916,146.03357144999998L11.76470588235294,145.61035710000002L12.605042016806722,146.5328571L13.445378151260504,146.88642855L14.285714285714285,145.82678564999998L15.126050420168067,144.52392855000002L15.966386554621847,143.1353571L16.80672268907563,144.17249999999999L17.647058823529413,144.05142855000003L18.487394957983195,144.48321435L19.327731092436977,144.23678565L20.168067226890756,142.98321435L21.008403361344538,141.32571435L21.84873949579832,140.0978571L22.689075630252102,139.14642855L23.52941176470588,138.93214289999997L24.369747899159663,137.97642854999998L25.210084033613445,137.75892854999998L26.05042016806723,138.60321435L26.89075630252101,139.61249999999998L27.73109243697479,140.07964289999998L28.57142857142857,138.84107145L29.411764705882355,131.79321434999997L30.252100840336134,130.81607145L31.092436974789916,130.91250000000002L31.932773109243694,131.25428565L32.773109243697476,130.62857144999998L33.61344537815126,131.05821435L34.45378151260504,131.1503571L35.294117647058826,130.35428565L36.134453781512605,129.46821435L36.97478991596639,128.685L37.81512605042017,128.31000000000003L38.655462184873954,128.62714289999997L39.49579831932773,129.8175L40.33613445378151,131.62821435L41.17647058823529,140.11714289999998L42.016806722689076,143.36892855000002L42.857142857142854,146.63892855L43.69747899159664,150.51857143499998L44.537815126050425,155.667857145L45.378151260504204,158.972142855L46.21848739495798,164.833928565L47.05882352941176,170.094642855L47.89915966386555,176.79428571L48.739495798319325,181.27499999999998L49.57983193277311,186.52928570999998L50.42016806722689,189.31071429000002L51.26050420168067,192.983571435L52.10084033613446,198.19821429L52.94117647058824,201.42L53.78151260504202,203.955L54.621848739495796,205.37571429000002L55.46218487394958,206.36464285499997L56.30252100840336,206.83821429L57.14285714285714,209.54892856499998L57.98319327731093,209.97428571L58.82352941176471,209.98928570999996L59.66386554621849,208.41428570999997L60.50420168067227,207.77785714499998L61.34453781512605,206.32178571L62.18487394957983,206.95285714499997L63.02521008403361,208.183928565L63.86554621848739,206.991428565L64.70588235294117,207.15750000000003L65.54621848739495,207.646071435L66.38655462184873,207.05035714500002L67.22689075630252,207.042857145L68.0672268907563,206.75571429L68.90756302521008,205.838571435L69.74789915966386,206.15892856500002L70.58823529411765,205.44000000000003L71.42857142857143,205.725L72.26890756302521,206.77821429L73.10924369747899,207.31714285500001L73.94957983193278,206.47071429L74.78991596638656,206.821071435L75.63025210084034,205.66928571L76.47058823529412,205.76785714500002L77.31092436974791,204.645L78.15126050420169,202.80428571L78.99159663865547,202.03071429000002L79.83193277310924,201.94071429000002L80.67226890756302,200.507142855L81.5126050420168,196.27714285499997L82.35294117647058,193.83642856500003L83.19327731092437,191.88L84.03361344537815,189.55714285500002L84.87394957983193,188.446071435L85.71428571428571,185.29928571000002L86.5546218487395,183.73178571000003L87.39495798319328,183.91178571L88.23529411764706,180.44571428999998L89.07563025210085,179.55321428999997L89.91596638655463,181.56L90.75630252100841,178.85892856500004L91.59663865546219,175.89428571L92.43697478991596,171.842142855L93.27731092436974,169.90071429000002L94.11764705882352,169.00821428999996L94.9579831932773,167.727857145L95.7983193277311,165.392142855L96.63865546218487,162.65250000000003L97.47899159663865,161.32821429L98.31932773109243,156.99428570999999L99.15966386554622,155.037857145L100,152.91000000000003L100.84033613445378,150.07285714499997L101.68067226890756,144.40607145L102.52100840336134,142.05428565L103.36134453781514,140.80607144999996L104.20168067226892,141.13500000000002L105.0420168067227,139.47535710000002L105.88235294117648,137.4428571L106.72268907563026,136.0853571L107.56302521008404,136.57714289999996L108.40336134453781,136.16785710000002L109.24369747899159,135.0975L110.08403361344538,134.26714289999998L110.92436974789916,130.49142855000002L111.76470588235294,128.01857145L112.60504201680672,124.83642855L113.4453781512605,123.89785710000002L114.28571428571428,122.69678565000001L115.12605042016806,122.50821435L115.96638655462186,119.78678565L116.80672268907564,119.67107144999997L117.64705882352942,119.23178564999999L118.4873949579832,117.56571435L119.32773109243698,113.10964289999997L120.16806722689076,109.72392855000001L121.00840336134453,108.75535710000001L121.84873949579831,106.56214289999997L122.6890756302521,105.8753571L123.52941176470588,107.49321434999999L124.36974789915966,105.8025L125.21008403361344,102.24428565000001L126.05042016806722,99.2753571L126.890756302521,95.42892854999995L127.73109243697478,92.93357145000003L128.57142857142858,92.05821434999999L129.41176470588235,91.30392854999998L130.25210084033614,89.30357145000004L131.0924369747899,90.12214289999999L131.9327731092437,90.85607145000004L132.77310924369746,88.52464289999998L133.61344537815125,89.69571435000003L134.45378151260505,91.53642854999997L135.29411764705884,91.03178565L136.1344537815126,92.48571435L136.9747899159664,93.71357145000005L137.81512605042016,96.83999999999999L138.65546218487395,96.88928565L139.49579831932772,101.67750000000001L140.3361344537815,102.11357144999998L141.1764705882353,101.18142855L142.01680672268907,102.38999999999999L142.85714285714286,100.94892855000002L143.69747899159663,99.73607144999997L144.53781512605042,100.09607145L145.37815126050418,99.04178565000001L146.21848739495798,95.65392854999996L147.05882352941177,95.55321435L147.89915966386556,95.17607145000004L148.73949579831933,94.86428565000003L149.57983193277312,94.44321434999999L150.42016806722688,94.98857145000004L151.26050420168067,92.49321434999997L152.10084033613444,90.75214290000001L152.94117647058823,91.89964289999996L153.78151260504202,91.22035710000004L154.62184873949582,91.34035710000003L155.46218487394958,90.58821435000002L156.30252100840337,91.18607145000004L157.14285714285714,91.14857145000002L157.98319327731093,90.91392855L158.8235294117647,90.07392854999998L159.6638655462185,89.02821434999998L160.50420168067228,92.60464289999999L161.34453781512605,90.07714289999998L162.18487394957984,87.74357145L163.0252100840336,86.9978571L163.8655462184874,86.54678564999999L164.70588235294116,85.57285710000002L165.54621848739495,85.24392854999998L166.38655462184875,84.82821435000002L167.22689075630254,85.30714289999995L168.0672268907563,85.64999999999999L168.9075630252101,83.40214289999999L169.74789915966386,82.95428565L170.58823529411765,83.96999999999998L171.42857142857142,83.83392854999997L172.2689075630252,79.25785710000002L173.109243697479,80.91321434999999L173.94957983193277,80.16428565000001L174.78991596638656,78.92785710000003L175.63025210084032,79.45607145000004L176.47058823529412,79.24821435L177.31092436974788,79.35321434999999L178.1512605042017,78.23892854999998L178.99159663865547,76.15714289999995L179.83193277310926,74.90249999999999L180.67226890756302,76.6521429L181.51260504201682,78.37821435L182.35294117647058,76.95107145000001L183.19327731092437,76.71642854999997L184.03361344537814,77.8125L184.87394957983193,77.60142854999998L185.71428571428572,79.78500000000001L186.5546218487395,79.53750000000002L187.39495798319328,79.44535710000001L188.23529411764704,80.0025L189.07563025210084,81.22392854999995L189.9159663865546,82.86857145L190.75630252100842,84.16500000000002L191.5966386554622,85.26107144999999L192.43697478991598,83.20714290000001L193.27731092436974,81.17892854999997L194.11764705882354,81.62142854999999L194.9579831932773,80.97857145000002L195.7983193277311,81.42428565L196.63865546218486,81.29999999999997L197.47899159663865,81.02357145L198.31932773109244,81.82392854999999L199.15966386554624,80.16107145000002L200,79.86642854999995L200.84033613445376,79.39714289999996L201.68067226890756,80.46321435L202.52100840336135,81.31178565000003L203.3613445378151,82.11214289999997L204.20168067226888,83.13535710000001L205.04201680672267,84.01607145000003L205.88235294117646,83.44392854999998L206.72268907563029,85.29107145000002L207.56302521008405,87.25178564999997L208.40336134453784,88.75607145000001L209.2436974789916,89.98178565L210.0840336134454,91.14642854999998L210.92436974789916,92.73857145000002L211.76470588235296,94.13571434999997L212.60504201680672,94.68321435L213.4453781512605,95.57571434999998L214.28571428571428,96.78642854999995L215.12605042016807,97.67250000000001L215.96638655462183,98.78678564999997L216.80672268907563,98.33999999999999L217.6470588235294,100.23642855000001L218.48739495798318,103.14107144999998L219.327731092437,103.75714289999998L220.16806722689077,103.47428564999997L221.00840336134456,104.37107144999999L221.84873949579833,105.15107145L222.68907563025212,105.28285710000004L223.52941176470588,105.67499999999998L224.36974789915968,106.00714289999996L225.21008403361344,105.84428565000002L226.05042016806723,105.95142855000002L226.890756302521,105.09214289999996L227.7310924369748,105.07500000000002L228.57142857142856,104.7675L229.41176470588235,105.25928564999998L230.2521008403361,104.32607144999996L231.0924369747899,102.78857145L231.93277310924373,103.25357145000002L232.7731092436975,104.42035710000003L233.61344537815128,103.38107145L234.45378151260505,101.75892855L235.29411764705884,103.3596429L236.1344537815126,103.82678565000002L236.9747899159664,102.14892854999998L237.81512605042016,103.66607144999996L238.65546218487395,104.02071434999999L239.49579831932772,105.12964289999998L240.3361344537815,106.69178565L241.17647058823528,105.66535710000002L242.01680672268907,105.28607144999998L242.85714285714283,105.94392855L243.69747899159663,107.06357145000001L244.53781512605045,108.2153571L245.3781512605042,110.54464289999999L246.218487394958,115.09178564999998L247.05882352941177,115.94357145L247.89915966386556,116.91642855L248.73949579831933,120.29571435L249.57983193277312,120.80464289999998L250.42016806722688,122.26285710000005L251.26050420168067,122.36571435L252.10084033613444,123.39107144999998L252.94117647058823,125.25428565000001L253.781512605042,126.22714289999996L254.6218487394958,126.92892855000002L255.46218487394955,125.08928565L256.3025210084034,129.03214289999997L257.14285714285717,130.51607144999997L257.98319327731093,131.8628571L258.8235294117647,131.41285710000002L259.6638655462185,131.38071435L260.5042016806723,130.74321435000002L261.34453781512605,129.14035710000005L262.1848739495798,128.91L263.02521008403363,129.94285710000003L263.8655462184874,132.32035710000002L264.70588235294116,132.35142855L265.5462184873949,131.80178565L266.38655462184875,132.135L267.2268907563025,133.68535710000003L268.0672268907563,127.79892854999999L268.9075630252101,125.18571434999998L269.74789915966386,124.36392855L270.5882352941177,123.85071435L271.42857142857144,123.72107144999998L272.2689075630252,122.88535710000002L273.109243697479,124.83749999999999L273.9495798319328,127.94785710000002L274.78991596638656,128.08821435L275.6302521008403,126.82071435L276.4705882352941,126.85607144999997L277.3109243697479,125.63892854999999L278.1512605042017,123.65035710000004L278.99159663865544,121.1175L279.8319327731092,123.12214289999997L280.672268907563,132.1478571L281.51260504201684,135.12107145L282.3529411764706,136.41964289999999L283.1932773109244,135.20035710000005L284.03361344537814,136.27071435L284.87394957983196,134.68714289999997L285.7142857142857,132.14357145L286.5546218487395,137.97750000000002L287.39495798319325,139.17428565L288.2352941176471,140.84464289999997L289.07563025210084,141.89035710000002L289.9159663865546,144.2603571L290.75630252100837,148.52571435L291.5966386554622,148.39821435000002L292.43697478991595,141.89357145L293.2773109243697,140.65714289999997L294.11764705882354,140.14607144999997L294.9579831932773,143.38714290000001L295.7983193277311,144.14142855L296.6386554621849,145.94142855L297.47899159663865,146.21892855L298.31932773109247,141.71892855000002L299.15966386554624,142.45178565L300,140.47178565L300.84033613445376,141.93642855000002L301.68067226890753,143.63357144999998L302.52100840336135,143.5371429L303.3613445378151,144.3771429L304.2016806722689,144.8046429L305.0420168067227,144.47785710000002L305.88235294117646,145.76678565L306.7226890756303,145.21607145L307.56302521008405,146.93249999999998L308.4033613445378,147.49392855000002L309.24369747899163,147.73178565L310.0840336134454,147.54749999999999L310.92436974789916,147.34607144999998L311.7647058823529,148.995L312.60504201680675,154.3875L313.4453781512605,155.837142855L314.2857142857143,155.45785714500002L315.12605042016804,153.894642855L315.96638655462186,152.963571435L316.8067226890756,152.06678571L317.6470588235294,152.198571435L318.48739495798316,152.52321429000003L319.327731092437,151.53428570999998L320.1680672268908,149.93357145L321.00840336134456,150.24428570999999L321.8487394957983,149.3753571L322.6890756302521,149.19535710000002L323.5294117647059,147.4725L324.3697478991597,143.50500000000002L325.21008403361344,141.11249999999998L326.0504201680672,140.94107144999998L326.890756302521,145.11214289999998L327.7310924369748,146.58535709999998L328.57142857142856,147.44678565L329.4117647058823,145.16357144999998L330.25210084033614,144.66535710000002L331.0924369747899,143.7728571L331.9327731092437,143.37857145L332.7731092436975,141.66857145L333.61344537815125,141.17142855L334.4537815126051,140.77178565000003L335.29411764705884,141.87642855L336.1344537815126,139.62964289999996L336.97478991596637,138.94071435L337.8151260504202,138.01178564999998L338.65546218487395,133.6671429L339.4957983193277,130.44321435L340.3361344537815,128.71928565L341.1764705882353,127.86857144999998L342.01680672268907,127.02428564999998L342.85714285714283,125.69785710000004L343.6974789915966,125.72785710000002L344.5378151260504,123.8571429L345.37815126050424,137.9175L346.218487394958,136.14L347.05882352941177,133.57500000000002L347.89915966386553,133.995L348.73949579831935,134.91428565L349.5798319327731,136.12821435L350.4201680672269,136.8525L351.26050420168065,136.75821435L352.10084033613447,134.89714289999998L352.94117647058823,133.30285710000004L353.781512605042,131.01857145L354.62184873949576,130.9575L355.4621848739496,131.11607145L356.3025210084034,131.83714289999998L357.14285714285717,115.61035710000003L357.98319327731093,113.94964289999997L358.8235294117647,114.89035710000005L359.6638655462185,112.55357145L360.5042016806723,109.13464289999996L361.34453781512605,107.09785710000001L362.1848739495798,104.59499999999997L363.02521008403363,104.84571435L363.8655462184874,105.73607144999997L364.70588235294116,108.68999999999998L365.5462184873949,108.39428565L366.38655462184875,106.67678565L367.2268907563025,104.66571435000002L368.0672268907563,103.04357144999999L368.9075630252101,103.7871429L369.74789915966386,103.77428565000001L370.5882352941177,103.76678565000003L371.42857142857144,104.87357144999999L372.2689075630252,104.94214289999998L373.109243697479,105.04499999999999L373.9495798319328,106.99285710000002L374.78991596638656,106.84392855000003L375.6302521008403,106.55142854999998L376.4705882352941,103.8825L377.3109243697479,104.53928565L378.1512605042017,104.98071435000001L378.99159663865544,106.65428564999999L379.8319327731092,109.21285710000002L380.672268907563,108.39642855000001L381.51260504201684,106.97785710000002L382.3529411764706,106.86214289999997L383.1932773109244,106.15392855L384.03361344537814,106.16678565L384.87394957983196,104.40214289999997L385.7142857142857,103.09928564999998L386.5546218487395,101.36249999999998L387.39495798319325,99.19392855000001L388.2352941176471,98.29071434999999L389.07563025210084,98.43642854999995L389.9159663865546,98.18785710000003L390.75630252100837,97.85571435L391.5966386554622,95.61964289999996L392.43697478991595,94.42285710000004L393.2773109243697,96.12857145000001L394.11764705882354,95.61964289999996L394.9579831932773,95.86821435L395.7983193277311,96.4296429L396.6386554621849,96.80892855L397.47899159663865,94.20428565000003L398.31932773109247,92.66464289999995L399.15966386554624,91.26107145L400,90.86035710000002" stroke="#e45756" stroke-width="2"/></g></g><path class="foreground" aria-hidden="true" d="" display="none"/></g></g><g class="mark-group role-legend" role="graphics-symbol" aria-roledescription="legend" aria-label="Symbol legend titled 'Mode of Transportation' for stroke color with 3 values: Driving, Transit, Walking"><g transform="translate(420,0)"><path class="background" aria-hidden="true" d="M0,0h123v53h-123Z" pointer-events="none"/><g><g class="mark-group role-legend-entry"><g transform="translate(0,16)"><path class="background" aria-hidden="true" d="M0,0h0v0h0Z" pointer-events="none"/><g><g class="mark-group role-scope" role="graphics-object" aria-roledescription="group mark container"><g transform="translate(0,0)"><path class="background" aria-hidden="true" d="M0,0h51.2001953125v11h-51.2001953125Z" pointer-events="none" opacity="1"/><g><g class="mark-symbol role-legend-symbol" pointer-events="none"><path transform="translate(6,6)" d="M-5,0L5,0" stroke="#4c78a8" stroke-width="1.5" opacity="1"/></g><g class="mark-text role-legend-label" pointer-events="none"><text text-anchor="start" transform="translate(16,9)" font-family="sans-serif" font-size="10px" fill="#000" opacity="1">Driving</text></g></g><path class="foreground" aria-hidden="true" d="" pointer-events="none" display="none"/></g><g transform="translate(0,13)"><path class="background" aria-hidden="true" d="M0,0h51.2001953125v11h-51.2001953125Z" pointer-events="none" opacity="1"/><g><g class="mark-symbol role-legend-symbol" pointer-events="none"><path transform="translate(6,6)" d="M-5,0L5,0" stroke="#f58518" stroke-width="1.5" opacity="1"/></g><g class="mark-text role-legend-label" pointer-events="none"><text text-anchor="start" transform="translate(16,9)" font-family="sans-serif" font-size="10px" fill="#000" opacity="1">Transit</text></g></g><path class="foreground" aria-hidden="true" d="" pointer-events="none" display="none"/></g><g transform="translate(0,26)"><path class="background" aria-hidden="true" d="M0,0h51.2001953125v11h-51.2001953125Z" pointer-events="none" opacity="1"/><g><g class="mark-symbol role-legend-symbol" pointer-events="none"><path transform="translate(6,6)" d="M-5,0L5,0" stroke="#e45756" stroke-width="1.5" opacity="1"/></g><g class="mark-text role-legend-label" pointer-events="none"><text text-anchor="start" transform="translate(16,9)" font-family="sans-serif" font-size="10px" fill="#000" opacity="1">Walking</text></g></g><path class="foreground" aria-hidden="true" d="" pointer-events="none" display="none"/></g></g></g><path class="foreground" aria-hidden="true" d="" pointer-events="none" display="none"/></g></g><g class="mark-text role-legend-title" pointer-events="none"><text text-anchor="start" transform="translate(0,9)" font-family="sans-serif" font-size="11px" font-weight="bold" fill="#000" opacity="1">Mode of Transportation</text></g></g><path class="foreground" aria-hidden="true" d="" pointer-events="none" display="none"/></g></g><g class="mark-group role-title"><g transform="translate(200,-29)"><path class="background" aria-hidden="true" d="M0,0h0v0h0Z" pointer-events="none"/><g><g class="mark-text role-title-text" role="graphics-symbol" aria-roledescription="title" aria-label="Title text 'Staten Island'" pointer-events="none"><text text-anchor="middle" transform="translate(0,16)" font-family="Helvetica" font-size="20px" font-weight="bold" fill="black" opacity="1">Staten Island</text></g></g><path class="foreground" aria-hidden="true" d="" pointer-events="none" display="none"/></g></g></g><path class="foreground" aria-hidden="true" d="" display="none"/></g></g></g></svg>