<svg xmlns="http://www.w3.org/2000/svg" xmlns:xlink="http://www.w3.org/1999/xlink" version="1.1" class="marks" width="607" height="371" viewBox="0 0 607 371"><rect width="607" height="371" fill="white"/><g fill="none" stroke-miterlimit="10" transform="translate(59,34)"><g class="mark-group role-frame root" role="graphics-object" aria-roledescription="group mark container"><g transform="translate(0,0)"><path class="background" aria-hidden="true" d="M0.5,0.5h400v300h-400Z" stroke="#ddd"/><g><g class="mark-group role-axis" role="graphics-symbol" aria-roledescription="axis" aria-label="X-axis for a time scale with values from Saturday, 25 January 2020, 7:00:00 PM to Saturday, 15 May 2021, 8:00:00 PM"><g transform="translate(0.5,300.5)"><path class="background" aria-hidden="true" d="M0,0h0v0h0Z" pointer-events="none"/><g><g class="mark-rule role-axis-grid" pointer-events="none"><line transform="translate(5,-300)" x2="0" y2="300" stroke="#ddd" stroke-width="1" opacity="1"/><line transform="translate(30,-300)" x2="0" y2="300" stroke="#ddd" stroke-width="1" opacity="1"/><line transform="translate(56,-300)" x2="0" y2="300" stroke="#ddd" stroke-width="1" opacity="1"/><line transform="translate(81,-300)" x2="0" y2="300" stroke="#ddd" stroke-width="1" opacity="1"/><line transform="translate(107,-300)" x2="0" y2="300" stroke="#ddd" stroke-width="1" opacity="1"/><line transform="translate(132,-300)" x2="0" y2="300" stroke="#ddd" stroke-width="1" opacity="1"/><line transform="translate(158,-300)" x2="0" y2="300" stroke="#ddd" stroke-width="1" opacity="1"/><line transform="translate(184,-300)" x2="0" y2="300" stroke="#ddd" stroke-width="1" opacity="1"/><line transform="translate(209,-300)" x2="0" y2="300" stroke="#ddd" stroke-width="1" opacity="1"/><line transform="translate(235,-300)" x2="0" y2="300" stroke="#ddd" stroke-width="1" opacity="1"/><line transform="translate(261,-300)" x2="0" y2="300" stroke="#ddd" stroke-width="1" opacity="1"/><line transform="translate(287,-300)" x2="0" y2="300" stroke="#ddd" stroke-width="1" opacity="1"/><line transform="translate(313,-300)" x2="0" y2="300" stroke="#ddd" stroke-width="1" opacity="1"/><line transform="translate(336,-300)" x2="0" y2="300" stroke="#ddd" stroke-width="1" opacity="1"/><line transform="translate(362,-300)" x2="0" y2="300" stroke="#ddd" stroke-width="1" opacity="1"/><line transform="translate(388,-300)" x2="0" y2="300" stroke="#ddd" stroke-width="1" opacity="1"/></g></g><path class="foreground" aria-hidden="true" d="" pointer-events="none" display="none"/></g></g><g class="mark-group role-axis" role="graphics-symbol" aria-roledescription="axis" aria-label="Y-axis for a linear scale with values from −1.0 to 1.0"><g transform="translate(0.5,0.5)"><path class="background" aria-hidden="true" d="M0,0h0v0h0Z" pointer-events="none"/><g><g class="mark-rule role-axis-grid" pointer-events="none"><line transform="translate(0,300)" x2="400" y2="0" stroke="#ddd" stroke-width="1" opacity="1"/><line transform="translate(0,270)" x2="400" y2="0" stroke="#ddd" stroke-width="1" opacity="1"/><line transform="translate(0,240)" x2="400" y2="0" stroke="#ddd" stroke-width="1" opacity="1"/><line transform="translate(0,210)" x2="400" y2="0" stroke="#ddd" stroke-width="1" opacity="1"/><line transform="translate(0,180)" x2="400" y2="0" stroke="#ddd" stroke-width="1" opacity="1"/><line transform="translate(0,150)" x2="400" y2="0" stroke="#ddd" stroke-width="1" opacity="1"/><line transform="translate(0,120)" x2="400" y2="0" stroke="#ddd" stroke-width="1" opacity="1"/><line transform="translate(0,90)" x2="400" y2="0" stroke="#ddd" stroke-width="1" opacity="1"/><line transform="translate(0,60)" x2="400" y2="0" stroke="#ddd" stroke-width="1" opacity="1"/><line transform="translate(0,30)" x2="400" y2="0" stroke="#ddd" stroke-width="1" opacity="1"/><line transform="translate(0,0)" x2="400" y2="0" stroke="#ddd" stroke-width="1" opacity="1"/></g></g><path class="foreground" aria-hidden="true" d="" pointer-events="none" display="none"/></g></g><g class="mark-group role-axis" role="graphics-symbol" aria-roledescription="axis" aria-label="X-axis titled 'Month' for a time scale with values from Saturday, 25 January 2020, 7:00:00 PM to Saturday, 15 May 2021, 8:00:00 PM"><g transform="translate(0.5,300.5)"><path class="background" aria-hidden="true" d="M0,0h0v0h0Z" pointer-events="none"/><g><g class="mark-rule role-axis-tick" pointer-events="none"><line transform="translate(5,0)" x2="0" y2="5" stroke="#888" stroke-width="1" opacity="1"/><line transform="translate(30,0)" x2="0" y2="5" stroke="#888" stroke-width="1" opacity="1"/><line transform="translate(56,0)" x2="0" y2="5" stroke="#888" stroke-width="1" opacity="1"/><line transform="translate(81,0)" x2="0" y2="5" stroke="#888" stroke-width="1" opacity="1"/><line transform="translate(107,0)" x2="0" y2="5" stroke="#888" stroke-width="1" opacity="1"/><line transform="translate(132,0)" x2="0" y2="5" stroke="#888" stroke-width="1" opacity="1"/><line transform="translate(158,0)" x2="0" y2="5" stroke="#888" stroke-width="1" opacity="1"/><line transform="translate(184,0)" x2="0" y2="5" stroke="#888" stroke-width="1" opacity="1"/><line transform="translate(209,0)" x2="0" y2="5" stroke="#888" stroke-width="1" opacity="1"/><line transform="translate(235,0)" x2="0" y2="5" stroke="#888" stroke-width="1" opacity="1"/><line transform="translate(261,0)" x2="0" y2="5" stroke="#888" stroke-width="1" opacity="1"/><line transform="translate(287,0)" x2="0" y2="5" stroke="#888" stroke-width="1" opacity="1"/><line transform="translate(313,0)" x2="0" y2="5" stroke="#888" stroke-width="1" opacity="1"/><line transform="translate(336,0)" x2="0" y2="5" stroke="#888" stroke-width="1" opacity="1"/><line transform="translate(362,0)" x2="0" y2="5" stroke="#888" stroke-width="1" opacity="1"/><line transform="translate(388,0)" x2="0" y2="5" stroke="#888" stroke-width="1" opacity="1"/></g><g class="mark-text role-axis-label" pointer-events="none"><text text-anchor="middle" transform="translate(5.217086834733894,15)" font-family="sans-serif" font-size="10px" fill="#000" opacity="1">February</text><text text-anchor="middle" transform="translate(29.586834733893557,15)" font-family="sans-serif" font-size="10px" fill="#000" opacity="0">March</text><text text-anchor="middle" transform="translate(55.602240896358545,15)" font-family="sans-serif" font-size="10px" fill="#000" opacity="1">April</text><text text-anchor="middle" transform="translate(80.812324929972,15)" font-family="sans-serif" font-size="10px" fill="#000" opacity="0">May</text><text text-anchor="middle" transform="translate(106.86274509803921,15)" font-family="sans-serif" font-size="10px" fill="#000" opacity="1">June</text><text text-anchor="middle" transform="translate(132.07282913165267,15)" font-family="sans-serif" font-size="10px" fill="#000" opacity="0">July</text><text text-anchor="middle" transform="translate(158.12324929971987,15)" font-family="sans-serif" font-size="10px" fill="#000" opacity="1">August</text><text text-anchor="middle" transform="translate(184.1736694677871,15)" font-family="sans-serif" font-size="10px" fill="#000" opacity="0">September</text><text text-anchor="middle" transform="translate(209.38375350140058,15)" font-family="sans-serif" font-size="10px" fill="#000" opacity="1">October</text><text text-anchor="middle" transform="translate(235.43417366946778,15)" font-family="sans-serif" font-size="10px" fill="#000" opacity="0">November</text><text text-anchor="middle" transform="translate(260.6792717086835,15)" font-family="sans-serif" font-size="10px" fill="#000" opacity="1">December</text><text text-anchor="middle" transform="translate(286.7296918767507,15)" font-family="sans-serif" font-size="10px" fill="#000" opacity="0">2021</text><text text-anchor="middle" transform="translate(312.78011204481794,15)" font-family="sans-serif" font-size="10px" fill="#000" opacity="1">February</text><text text-anchor="middle" transform="translate(336.3095238095238,15)" font-family="sans-serif" font-size="10px" fill="#000" opacity="0">March</text><text text-anchor="middle" transform="translate(362.3249299719888,15)" font-family="sans-serif" font-size="10px" fill="#000" opacity="1">April</text><text text-anchor="middle" transform="translate(387.53501400560225,15)" font-family="sans-serif" font-size="10px" fill="#000" opacity="0">May</text></g><g class="mark-rule role-axis-domain" pointer-events="none"><line transform="translate(0,0)" x2="400" y2="0" stroke="#888" stroke-width="1" opacity="1"/></g><g class="mark-text role-axis-title" pointer-events="none"><text text-anchor="middle" transform="translate(200,30)" font-family="sans-serif" font-size="11px" font-weight="bold" fill="#000" opacity="1">Month</text></g></g><path class="foreground" aria-hidden="true" d="" pointer-events="none" display="none"/></g></g><g class="mark-group role-axis" role="graphics-symbol" aria-roledescription="axis" aria-label="Y-axis titled 'Change compared to baseline' for a linear scale with values from −100% to 100%"><g transform="translate(0.5,0.5)"><path class="background" aria-hidden="true" d="M0,0h0v0h0Z" pointer-events="none"/><g><g class="mark-rule role-axis-tick" pointer-events="none"><line transform="translate(0,300)" x2="-5" y2="0" stroke="#888" stroke-width="1" opacity="1"/><line transform="translate(0,270)" x2="-5" y2="0" stroke="#888" stroke-width="1" opacity="1"/><line transform="translate(0,240)" x2="-5" y2="0" stroke="#888" stroke-width="1" opacity="1"/><line transform="translate(0,210)" x2="-5" y2="0" stroke="#888" stroke-width="1" opacity="1"/><line transform="translate(0,180)" x2="-5" y2="0" stroke="#888" stroke-width="1" opacity="1"/><line transform="translate(0,150)" x2="-5" y2="0" stroke="#888" stroke-width="1" opacity="1"/><line transform="translate(0,120)" x2="-5" y2="0" stroke="#888" stroke-width="1" opacity="1"/><line transform="translate(0,90)" x2="-5" y2="0" stroke="#888" stroke-width="1" opacity="1"/><line transform="translate(0,60)" x2="-5" y2="0" stroke="#888" stroke-width="1" opacity="1"/><line transform="translate(0,30)" x2="-5" y2="0" stroke="#888" stroke-width="1" opacity="1"/><line transform="translate(0,0)" x2="-5" y2="0" stroke="#888" stroke-width="1" opacity="1"/></g><g class="mark-text role-axis-label" pointer-events="none"><text text-anchor="end" transform="translate(-7,303)" font-family="sans-serif" font-size="10px" fill="#000" opacity="1">−100%</text><text text-anchor="end" transform="translate(-7,273)" font-family="sans-serif" font-size="10px" fill="#000" opacity="1">−80%</text><text text-anchor="end" transform="translate(-7,243)" font-family="sans-serif" font-size="10px" fill="#000" opacity="1">−60%</text><text text-anchor="end" transform="translate(-7,213)" font-family="sans-serif" font-size="10px" fill="#000" opacity="1">−40%</text><text text-anchor="end" transform="translate(-7,183)" font-family="sans-serif" font-size="10px" fill="#000" opacity="1">−20%</text><text text-anchor="end" transform="translate(-7,153)" font-family="sans-serif" font-size="10px" fill="#000" opacity="1">0%</text><text text-anchor="end" transform="translate(-7,123)" font-family="sans-serif" font-size="10px" fill="#000" opacity="1">20%</text><text text-anchor="end" transform="translate(-7,93.00000000000001)" font-family="sans-serif" font-size="10px" fill="#000" opacity="1">40%</text><text text-anchor="end" transform="translate(-7,62.999999999999986)" font-family="sans-serif" font-size="10px" fill="#000" opacity="1">60%</text><text text-anchor="end" transform="translate(-7,32.99999999999999)" font-family="sans-serif" font-size="10px" fill="#000" opacity="1">80%</text><text text-anchor="end" transform="translate(-7,3)" font-family="sans-serif" font-size="10px" fill="#000" opacity="1">100%</text></g><g class="mark-rule role-axis-domain" pointer-events="none"><line transform="translate(0,300)" x2="0" y2="-300" stroke="#888" stroke-width="1" opacity="1"/></g><g class="mark-text role-axis-title" pointer-events="none"><text text-anchor="middle" transform="translate(-42.416015625,150) rotate(-90) translate(0,-2)" font-family="sans-serif" font-size="11px" font-weight="bold" fill="#000" opacity="1">Change compared to baseline</text></g></g><path class="foreground" aria-hidden="true" d="" pointer-events="none" display="none"/></g></g><g class="mark-group role-scope pathgroup" role="graphics-object" aria-roledescription="group mark container"><g transform="translate(0,0)"><path class="background" aria-hidden="true" d="M0,0h400v300h-400Z"/><g><g class="mark-line role-mark marks" role="graphics-symbol" aria-roledescription="line mark container"><path d="M0,143.43107145L0.8403361344537815,144.0278571L1.680672268907563,144.46071435L2.5210084033613445,145.00928565L3.361344537815126,145.5921429L4.201680672268908,145.94464290000002L5.042016806722689,144.16178565L5.88235294117647,145.04892855000003L6.722689075630252,145.2353571L7.563025210084033,145.41107145L8.403361344537815,145.6875L9.243697478991598,145.8975L10.084033613445378,146.32821435L10.92436974789916,145.60607144999997L11.76470588235294,145.26964289999998L12.605042016806722,144.7628571L13.445378151260504,144.2046429L14.285714285714285,143.69571434999997L15.126050420168067,142.78714290000002L15.966386554621847,140.93464289999997L16.80672268907563,140.42892855L17.647058823529413,138.96321435L18.487394957983195,138.1371429L19.327731092436977,137.57357144999997L20.168067226890756,136.71107145L21.008403361344538,136.26749999999998L21.84873949579832,135.5646429L22.689075630252102,135.00535710000003L23.52941176470588,134.57250000000002L24.369747899159663,134.50928564999998L25.210084033613445,134.47071435L26.05042016806723,134.34535710000003L26.89075630252101,134.66035710000003L27.73109243697479,135.58178565000003L28.57142857142857,135.0171429L29.411764705882355,135.25071435L30.252100840336134,135.35678565L31.092436974789916,135.15857144999998L31.932773109243694,135.07714289999996L32.773109243697476,134.6828571L33.61344537815126,134.43107144999996L34.45378151260504,134.32928565L35.294117647058826,134.37321434999998L36.134453781512605,133.8525L36.97478991596639,134.02607145L37.81512605042017,134.56607144999998L38.655462184873954,136.16571435L39.49579831932773,139.11L40.33613445378151,143.14714289999998L41.17647058823529,146.61L42.016806722689076,150.33535714500002L42.857142857142854,155.15571429000002L43.69747899159664,160.356428565L44.537815126050425,166.61357143499998L45.378151260504204,173.829642855L46.21848739495798,182.04642856499999L47.05882352941176,188.72785714500003L47.89915966386555,196.05107143499998L48.739495798319325,202.36071428999998L49.57983193277311,208.883571435L50.42016806722689,214.29428571L51.26050420168067,219.88821429000004L52.10084033613446,225.402857145L52.94117647058824,229.02642856499997L53.78151260504202,232.071428565L54.621848739495796,234.308571435L55.46218487394958,236.256428565L56.30252100840336,237.67392856499998L57.14285714285714,239.3325L57.98319327731093,240.167142855L58.82352941176471,240.19285714499998L59.66386554621849,239.528571435L60.50420168067227,239.53285714499998L61.34453781512605,239.31321429L62.18487394957983,239.679642855L63.02521008403361,239.92071429L63.86554621848739,239.131071435L64.70588235294117,239.057142855L65.54621848739495,239.371071435L66.38655462184873,238.695L67.22689075630252,238.12178570999998L68.0672268907563,237.455357145L68.90756302521008,236.60999999999999L69.74789915966386,236.15785714499998L70.58823529411765,235.21821429L71.42857142857143,234.67928571L72.26890756302521,234.443571435L73.10924369747899,233.49749999999997L73.94957983193278,232.497857145L74.78991596638656,231.81535714499998L75.63025210084034,230.42571428999997L76.47058823529412,229.65642856500003L77.31092436974791,228.407142855L78.15126050420169,227.293928565L78.99159663865547,226.73142856500002L79.83193277310924,226.295357145L80.67226890756302,225.27428571L81.5126050420168,223.022142855L82.35294117647058,221.65928571L83.19327731092437,220.50214285500002L84.03361344537815,218.633571435L84.87394957983193,217.873928565L85.71428571428571,216.33L86.5546218487395,215.04321429L87.39495798319328,214.17642856499998L88.23529411764706,212.17178571000002L89.07563025210085,217.3275L89.91596638655463,223.35857143500002L90.75630252100841,221.57142856500002L91.59663865546219,219.45000000000002L92.43697478991596,217.014642855L93.27731092436974,215.30678571L94.11764705882352,214.239642855L94.9579831932773,212.952857145L95.7983193277311,211.666071435L96.63865546218487,209.53285714500004L97.47899159663865,207.617142855L98.31932773109243,204.91178571L99.15966386554622,204.159642855L100,202.277142855L100.84033613445378,194.825357145L101.68067226890756,185.96357143499998L102.52100840336134,184.16464285499998L103.36134453781514,183.00750000000002L104.20168067226892,182.165357145L105.0420168067227,180.70178571000002L105.88235294117648,179.30249999999998L106.72268907563026,177.94607143500002L107.56302521008404,177.21428571L108.40336134453781,176.93571429000002L109.24369747899159,175.93392856499997L110.08403361344538,175.50321429000002L110.92436974789916,172.47857143500002L111.76470588235294,171.20678571L112.60504201680672,168.78214285499996L113.4453781512605,166.85571428999998L114.28571428571428,165.42L115.12605042016806,164.383928565L115.96638655462186,161.581071435L116.80672268907564,159.88821428999998L117.64705882352942,158.593928565L118.4873949579832,156.980357145L119.32773109243698,154.56964285499998L120.16806722689076,151.952142855L121.00840336134453,150.312857145L121.84873949579831,146.76642855000003L122.6890756302521,145.0425L123.52941176470588,144.69428565L124.36974789915966,142.83321435L125.21008403361344,141.45214289999996L126.05042016806722,139.74214289999998L126.890756302521,136.89000000000001L127.73109243697478,135.01607144999997L128.57142857142858,134.55321435000002L129.41176470588235,133.45821435L130.25210084033614,131.56392855L131.0924369747899,130.4046429L131.9327731092437,129.07821435L132.77310924369746,126.03428564999999L133.61344537815125,126.49285710000001L134.45378151260505,127.84285710000003L135.29411764705884,126.73928564999997L136.1344537815126,126.56035710000002L136.9747899159664,126.33535710000001L137.81512605042016,126.16821435L138.65546218487395,125.22642855L139.49579831932772,127.54071435L140.3361344537815,126.93107145L141.1764705882353,125.06464289999998L142.01680672268907,124.86750000000002L142.85714285714286,123.83142855000001L143.69747899159663,122.96678564999998L144.53781512605042,123.78428565L145.37815126050418,122.41714289999999L146.21848739495798,118.81928564999998L147.05882352941177,117.35035710000004L147.89915966386556,116.60357144999999L148.73949579831933,115.80749999999999L149.57983193277312,115.46357144999998L150.42016806722688,115.84928565000001L151.26050420168067,113.50714289999996L152.10084033613444,111.44999999999999L152.94117647058823,111.7671429L153.78151260504202,111.21321434999997L154.62184873949582,111.26249999999999L155.46218487394958,110.75785710000005L156.30252100840337,110.5628571L157.14285714285714,110.52000000000002L157.98319327731093,110.09035710000003L158.8235294117647,111.06321435L159.6638655462185,110.46857145L160.50420168067228,112.59321435L161.34453781512605,109.92321434999998L162.18487394957984,108.30107144999998L163.0252100840336,107.58964289999997L163.8655462184874,107.55964289999997L164.70588235294116,106.86107144999998L165.54621848739495,106.19892855L166.38655462184875,105.40928565000003L167.22689075630254,105.71999999999998L168.0672268907563,105.8753571L168.9075630252101,104.44821434999999L169.74789915966386,104.49214289999999L170.58823529411765,105.10928564999999L171.42857142857142,105.1575L172.2689075630252,102.25928564999998L173.109243697479,104.45142855000005L173.94957983193277,104.76107145L174.78991596638656,103.9628571L175.63025210084032,103.70464289999997L176.47058823529412,104.56500000000001L177.31092436974788,105.30964289999996L178.1512605042017,106.05535710000001L178.99159663865547,105.91392855000004L179.83193277310926,106.12392855000002L180.67226890756302,106.99607144999996L181.51260504201682,109.32964289999998L182.35294117647058,107.02392854999998L183.19327731092437,107.64857144999998L184.03361344537814,108.65678564999999L184.87394957983193,109.04464289999997L185.71428571428572,109.82142855000002L186.5546218487395,109.59535710000003L187.39495798319328,110.10428565000001L188.23529411764704,109.60821434999998L189.07563025210084,111.23142855L189.9159663865546,111.7125L190.75630252100842,112.5578571L191.5966386554622,113.41178565L192.43697478991598,113.04214289999999L193.27731092436974,110.42678565L194.11764705882354,111.75107145000001L194.9579831932773,112.04035710000002L195.7983193277311,112.33285710000004L196.63865546218486,112.55464289999996L197.47899159663865,113.08821435L198.31932773109244,114.15535710000002L199.15966386554624,113.82321435000003L200,114.99857145L200.84033613445376,114.77464289999998L201.68067226890756,115.52785710000002L202.52100840336135,115.87392855L203.3613445378151,115.70142855L204.20168067226888,115.96285710000004L205.04201680672267,116.29071435L205.88235294117646,116.32500000000002L206.72268907563029,117.05678565L207.56302521008405,118.29857145L208.40336134453784,118.89535710000003L209.2436974789916,119.34428564999999L210.0840336134454,120.23357144999999L210.92436974789916,120.61714289999999L211.76470588235296,120.91821435000001L212.60504201680672,121.23L213.4453781512605,121.50321434999998L214.28571428571428,122.22107144999998L215.12605042016807,122.61107144999997L215.96638655462183,122.98392855000002L216.80672268907563,123.05357144999998L217.6470588235294,123.65035710000004L218.48739495798318,125.15892855000001L219.327731092437,125.72571434999999L220.16806722689077,125.83285710000001L221.00840336134456,125.98714289999997L221.84873949579833,127.25678565L222.68907563025212,127.38857145L223.52941176470588,127.23642855L224.36974789915968,127.39392855L225.21008403361344,127.77642855L226.05042016806723,127.905L226.890756302521,128.13321434999997L227.7310924369748,128.63357145L228.57142857142856,129.17464289999995L229.41176470588235,129.32035710000002L230.2521008403361,128.5425L231.0924369747899,128.03892855L231.93277310924373,128.64321435L232.7731092436975,130.2075L233.61344537815128,130.00607145L234.45378151260505,131.28857144999998L235.29411764705884,133.20642855L236.1344537815126,133.93821435L236.9747899159664,134.95928565L237.81512605042016,136.4496429L238.65546218487395,137.46214289999998L239.49579831932772,138.84750000000003L240.3361344537815,140.2521429L241.17647058823528,140.83392855L242.01680672268907,141.39000000000001L242.85714285714283,141.945L243.69747899159663,143.07L244.53781512605045,144.22071435000004L245.3781512605042,145.42071435L246.218487394958,146.52107144999997L247.05882352941177,147.18321435000001L247.89915966386556,147.73928565L248.73949579831933,148.09392855000002L249.57983193277312,148.10892855000003L250.42016806722688,148.77642855L251.26050420168067,149.08928565000002L252.10084033613444,150.012857145L252.94117647058823,151.389642855L253.781512605042,151.43999999999997L254.6218487394958,151.07571429L255.46218487394955,149.48250000000002L256.3025210084034,153.350357145L257.14285714285717,155.23071429L257.98319327731093,156.93321429L258.8235294117647,156.912857145L259.6638655462185,157.78178571L260.5042016806723,157.77428571L261.34453781512605,157.996071435L262.1848739495798,158.22750000000002L263.02521008403363,159.429642855L263.8655462184874,161.18035714500002L264.70588235294116,161.228571435L265.5462184873949,161.88964285499998L266.38655462184875,163.33821429L267.2268907563025,165.29999999999998L268.0672268907563,160.851428565L268.9075630252101,158.88642856500002L269.74789915966386,157.99071429L270.5882352941177,157.39178571L271.42857142857144,156.88821428999998L272.2689075630252,155.92607143499998L273.109243697479,157.43999999999997L273.9495798319328,161.90571429L274.78991596638656,162.222857145L275.6302521008403,161.424642855L276.4705882352941,161.61964285500002L277.3109243697479,159.99642856500003L278.1512605042017,157.86428571000002L278.99159663865544,154.67571429L279.8319327731092,155.11714285499997L280.672268907563,161.94L281.51260504201684,163.921071435L282.3529411764706,164.746071435L283.1932773109244,163.734642855L284.03361344537814,163.85142856499996L284.87394957983196,161.02928571L285.7142857142857,156.497142855L286.5546218487395,160.57714285499998L287.39495798319325,161.53928570999997L288.2352941176471,162.74571428999997L289.07563025210084,164.54464285499998L289.9159663865546,166.64571429L290.75630252100837,170.121428565L291.5966386554622,170.41928571L292.43697478991595,164.90571429L293.2773109243697,163.7475L294.11764705882354,163.85571428999998L294.9579831932773,165.185357145L295.7983193277311,166.34142856500003L296.6386554621849,167.95071428999998L297.47899159663865,168.331071435L298.31932773109247,164.098928565L299.15966386554624,163.509642855L300,161.98392856499999L300.84033613445376,161.585357145L301.68067226890753,161.87571429000002L302.52100840336135,162.167142855L303.3613445378151,162.10178571L304.2016806722689,161.7525L305.0420168067227,161.63571429L305.88235294117646,161.77071428999997L306.7226890756303,161.81678571L307.56302521008405,163.037142855L308.4033613445378,163.212857145L309.24369747899163,163.3875L310.0840336134454,163.7925L310.92436974789916,163.730357145L311.7647058823529,164.79428571L312.60504201680675,171.45L313.4453781512605,175.343571435L314.2857142857143,175.812857145L315.12605042016804,175.700357145L315.96638655462186,175.79678571L316.8067226890756,175.3125L317.6470588235294,178.077857145L318.48739495798316,178.31142856499997L319.327731092437,177.78L320.1680672268908,177.418928565L321.00840336134456,177.42107143500004L321.8487394957983,176.44178571000003L322.6890756302521,176.01964285500003L323.5294117647059,174.478928565L324.3697478991597,169.10678571L325.21008403361344,165.395357145L326.0504201680672,163.7925L326.890756302521,167.859642855L327.7310924369748,169.93392856499997L328.57142857142856,170.30464285500003L329.4117647058823,167.19321429000001L330.25210084033614,167.48357143500002L331.0924369747899,166.749642855L331.9327731092437,166.07357143499996L332.7731092436975,165.054642855L333.61344537815125,164.49857143499997L334.4537815126051,164.34642856500002L335.29411764705884,164.94428570999997L336.1344537815126,163.73785714499996L336.97478991596637,162.97178571L337.8151260504202,162.6975L338.65546218487395,157.92L339.4957983193277,154.572857145L340.3361344537815,153.418928565L341.1764705882353,152.64642856499998L342.01680672268907,151.365L342.85714285714283,150.43821429000002L343.6974789915966,150.09321429L344.5378151260504,149.30678565L345.37815126050424,161.682857145L346.218487394958,160.251428565L347.05882352941177,159.08785714500002L347.89915966386553,158.52214285499997L348.73949579831935,158.079642855L349.5798319327731,157.745357145L350.4201680672269,157.57392856500002L351.26050420168065,156.86249999999998L352.10084033613447,155.29928571L352.94117647058823,153.76928570999996L353.781512605042,152.765357145L354.62184873949576,152.098928565L355.4621848739496,151.92428571L356.3025210084034,151.47321429000002L357.14285714285717,137.35071435L357.98319327731093,136.04035710000002L358.8235294117647,136.74642855000002L359.6638655462185,135.68999999999997L360.5042016806723,133.65107145L361.34453781512605,132.81107145L362.1848739495798,131.3678571L363.02521008403363,131.00035710000003L363.8655462184874,131.14071435L364.70588235294116,132.68571434999998L365.5462184873949,131.60035710000002L366.38655462184875,130.65750000000003L367.2268907563025,129.23464289999998L368.0672268907563,128.2853571L368.9075630252101,128.1621429L369.74789915966386,127.88571435000003L370.5882352941177,127.11964289999999L371.42857142857144,127.38857145L372.2689075630252,127.80749999999999L373.109243697479,127.47321434999999L373.9495798319328,128.04107145L374.78991596638656,126.98249999999999L375.6302521008403,125.74928564999999L376.4705882352941,123.38785710000002L377.3109243697479,123.74357144999996L378.1512605042017,123.18964289999998L378.99159663865544,124.02107145L379.8319327731092,124.56214289999998L380.672268907563,123.67178565L381.51260504201684,122.53392855L382.3529411764706,121.90178565L383.1932773109244,121.11214289999997L384.03361344537814,120.94392855000001L384.87394957983196,119.89607144999998L385.7142857142857,119.08500000000001L386.5546218487395,118.44535710000001L387.39495798319325,117.63107145L388.2352941176471,116.97642855L389.07563025210084,116.8425L389.9159663865546,117.1296429L390.75630252100837,116.38178565L391.5966386554622,115.15285710000003L392.43697478991595,114.67178564999999L393.2773109243697,115.22249999999998L394.11764705882354,114.07714289999997L394.9579831932773,113.685L395.7983193277311,113.00357144999998L396.6386554621849,112.87499999999999L397.47899159663865,111.08464289999999L398.31932773109247,109.85999999999999L399.15966386554624,108.75214289999995L400,108.43500000000002" stroke="#4c78a8" stroke-width="2"/></g></g><path class="foreground" aria-hidden="true" d="" display="none"/></g><g transform="translate(0,0)"><path class="background" aria-hidden="true" d="M0,0h400v300h-400Z"/><g><g class="mark-line role-mark marks" role="graphics-symbol" aria-roledescription="line mark container"><path d="M0,152.796428565L0.8403361344537815,153.699642855L1.680672268907563,153.792857145L2.5210084033613445,154.018928565L3.361344537815126,153.8475L4.201680672268908,153.53035714499998L5.042016806722689,152.67107143500002L5.88235294117647,153.74464285500002L6.722689075630252,153.380357145L7.563025210084033,153.58607143500004L8.403361344537815,154.035L9.243697478991598,154.45821429L10.084033613445378,154.70571429L10.92436974789916,153.40071429L11.76470588235294,152.976428565L12.605042016806722,152.96249999999998L13.445378151260504,152.543571435L14.285714285714285,152.061428565L15.126050420168067,151.491428565L15.966386554621847,150.61821429L16.80672268907563,150.16714285499998L17.647058823529413,148.8353571L18.487394957983195,147.79821434999997L19.327731092436977,147.045L20.168067226890756,146.11392855L21.008403361344538,145.4003571L21.84873949579832,144.97500000000002L22.689075630252102,144.97500000000002L23.52941176470588,145.1796429L24.369747899159663,145.20214289999998L25.210084033613445,145.58357145L26.05042016806723,145.91035710000003L26.89075630252101,146.53821435L27.73109243697479,146.98071435L28.57142857142857,146.7921429L29.411764705882355,147.73607145L30.252100840336134,148.60607144999997L31.092436974789916,149.24678565000002L31.932773109243694,149.66678565L32.773109243697476,150.06214285499996L33.61344537815126,150.84321429L34.45378151260504,151.149642855L35.294117647058826,151.34678571L36.134453781512605,151.27071429L36.97478991596639,152.025L37.81512605042017,153.41571429L38.655462184873954,156.456428565L39.49579831932773,161.62071429L40.33613445378151,167.73214285499998L41.17647058823529,172.69928571000003L42.016806722689076,178.731428565L42.857142857142854,185.56071429000002L43.69747899159664,193.19999999999996L44.537815126050425,201.272142855L45.378151260504204,210.30428571000002L46.21848739495798,220.562142855L47.05882352941176,228.186428565L47.89915966386555,236.40857143500003L48.739495798319325,243.756428565L49.57983193277311,250.86321429L50.42016806722689,256.547142855L51.26050420168067,261.812142855L52.10084033613446,266.608928565L52.94117647058824,269.588571435L53.78151260504202,271.853571435L54.621848739495796,273.52500000000003L55.46218487394958,274.913571435L56.30252100840336,276.13071428999996L57.14285714285714,277.24178571L57.98319327731093,277.887857145L58.82352941176471,278.202857145L59.66386554621849,278.331428565L60.50420168067227,278.65071429L61.34453781512605,278.865L62.18487394957983,279.22071429L63.02521008403361,279.624642855L63.86554621848739,279.718928565L64.70588235294117,279.88928571L65.54621848739495,280.176428565L66.38655462184873,280.221428565L67.22689075630252,280.325357145L68.0672268907563,280.378928565L68.90756302521008,280.411071435L69.74789915966386,280.476428565L70.58823529411765,280.41428571L71.42857142857143,280.38L72.26890756302521,280.385357145L73.10924369747899,280.306071435L73.94957983193278,280.16678571L74.78991596638656,280.1175L75.63025210084034,279.950357145L76.47058823529412,279.84964285499996L77.31092436974791,279.61071429L78.15126050420169,279.40928571L78.99159663865547,279.19821429L79.83193277310924,279.031071435L80.67226890756302,278.70428571L81.5126050420168,278.24678571L82.35294117647058,277.922142855L83.19327731092437,277.55357143500004L84.03361344537815,277.074642855L84.87394957983193,276.75642856499996L85.71428571428571,276.369642855L86.5546218487395,276.122142855L87.39495798319328,275.979642855L88.23529411764706,275.71821429L89.07563025210085,277.32321429L89.91596638655463,279.038571435L90.75630252100841,278.71071429L91.59663865546219,278.32071429L92.43697478991596,277.93178571L93.27731092436974,277.63178571L94.11764705882352,277.441071435L94.9579831932773,277.223571435L95.7983193277311,277.002857145L96.63865546218487,276.665357145L97.47899159663865,276.32571429L98.31932773109243,275.784642855L99.15966386554622,275.50178571L100,274.99071429L100.84033613445378,272.7675L101.68067226890756,270.267857145L102.52100840336134,269.75678571L103.36134453781514,269.364642855L104.20168067226892,269.022857145L105.0420168067227,268.48178571L105.88235294117648,268.071428565L106.72268907563026,267.612857145L107.56302521008404,267.14142856499996L108.40336134453781,266.90678571L109.24369747899159,266.476071435L110.08403361344538,266.16428571L110.92436974789916,265.2675L111.76470588235294,264.6375L112.60504201680672,263.679642855L113.4453781512605,262.92321429L114.28571428571428,262.24392856500003L115.12605042016806,261.68678571L115.96638655462186,260.672142855L116.80672268907564,259.9875L117.64705882352942,259.275L118.4873949579832,258.523928565L119.32773109243698,257.675357145L120.16806722689076,256.63821429L121.00840336134453,255.83678571000002L121.84873949579831,254.40321429L122.6890756302521,253.70892856499998L123.52941176470588,253.32642856500001L124.36974789915966,252.54321429L125.21008403361344,251.747142855L126.05042016806722,250.869642855L126.890756302521,249.710357145L127.73109243697478,248.776071435L128.57142857142858,248.25857143500002L129.41176470588235,247.57928571L130.25210084033614,246.59678570999998L131.0924369747899,245.912142855L131.9327731092437,245.169642855L132.77310924369746,243.92357143499999L133.61344537815125,243.853928565L134.45378151260505,243.29142856500002L135.29411764705884,242.6775L136.1344537815126,242.44821429L136.9747899159664,242.068928565L137.81512605042016,241.66928571000003L138.65546218487395,240.90214285500002L139.49579831932772,241.57392856500002L140.3361344537815,241.123928565L141.1764705882353,240.331071435L142.01680672268907,240.04178571L142.85714285714286,239.322857145L143.69747899159663,238.685357145L144.53781512605042,238.607142855L145.37815126050418,237.823928565L146.21848739495798,236.691428565L147.05882352941177,235.93178570999999L147.89915966386556,235.35107143500002L148.73949579831933,234.808928565L149.57983193277312,234.64928571L150.42016806722688,234.864642855L151.26050420168067,233.68821429000002L152.10084033613444,232.40571429L152.94117647058823,232.23L153.78151260504202,231.80999999999997L154.62184873949582,231.661071435L155.46218487394958,231.20999999999998L156.30252100840337,230.900357145L157.14285714285714,230.555357145L157.98319327731093,230.3475L158.8235294117647,230.54678571000002L159.6638655462185,230.120357145L160.50420168067228,230.58964285500002L161.34453781512605,229.49249999999998L162.18487394957984,228.8025L163.0252100840336,228.37285714499998L163.8655462184874,228.36321429L164.70588235294116,227.92928571L165.54621848739495,227.555357145L166.38655462184875,227.14821429L167.22689075630254,227.308928565L168.0672268907563,227.398928565L168.9075630252101,226.63928571L169.74789915966386,226.21714285500002L170.58823529411765,226.389642855L171.42857142857142,226.05321429000003L172.2689075630252,224.80071429L173.109243697479,225.171428565L173.94957983193277,224.58428571L174.78991596638656,223.68321428999997L175.63025210084032,223.22571428999998L176.47058823529412,223.22678571L177.31092436974788,223.047857145L178.1512605042017,222.87750000000003L178.99159663865547,222.279642855L179.83193277310926,221.949642855L180.67226890756302,222.02571428999997L181.51260504201682,222.77678571L182.35294117647058,221.49428571L183.19327731092437,221.77178571000002L184.03361344537814,222.25392856500002L184.87394957983193,222.32250000000002L185.71428571428572,222.6975L186.5546218487395,222.616071435L187.39495798319328,222.46071429L188.23529411764704,222.28071429L189.07563025210084,222.617142855L189.9159663865546,222.67178571L190.75630252100842,222.852857145L191.5966386554622,223.04892856499998L192.43697478991598,222.51857143499998L193.27731092436974,221.150357145L194.11764705882354,221.468571435L194.9579831932773,221.31857143499997L195.7983193277311,221.198571435L196.63865546218486,220.978928565L197.47899159663865,220.84178570999998L198.31932773109244,220.93392856500003L199.15966386554624,220.47964285499998L200,220.326428565L200.84033613445376,220.32321429L201.68067226890756,220.54928571000002L202.52100840336135,220.49035714500002L203.3613445378151,220.01678571L204.20168067226888,219.87642856500003L205.04201680672267,219.51321429L205.88235294117646,219.2325L206.72268907563029,219.24535714499999L207.56302521008405,219.602142855L208.40336134453784,219.6525L209.2436974789916,219.503571435L210.0840336134454,219.384642855L210.92436974789916,219.233571435L211.76470588235296,219.451071435L212.60504201680672,219.402857145L213.4453781512605,219.29892856499998L214.28571428571428,219.48321429L215.12605042016807,219.35785714499997L215.96638655462183,219.336428565L216.80672268907563,219.14571429L217.6470588235294,219.28821428999998L218.48739495798318,220.13892856500001L219.327731092437,220.12714285500002L220.16806722689077,219.91071429000002L221.00840336134456,219.905357145L221.84873949579833,220.78607143500003L222.68907563025212,220.56964285499998L223.52941176470588,220.34571429000002L224.36974789915968,220.250357145L225.21008403361344,220.277142855L226.05042016806723,220.14214285499997L226.890756302521,220.17428571000002L227.7310924369748,220.11321429L228.57142857142856,220.253571435L229.41176470588235,220.3125L230.2521008403361,219.688928565L231.0924369747899,219.35678571L231.93277310924373,219.684642855L232.7731092436975,220.54928571000002L233.61344537815128,220.07250000000002L234.45378151260505,220.31678571L235.29411764705884,221.108571435L236.1344537815126,221.45464285499997L236.9747899159664,222.17249999999999L237.81512605042016,222.9675L238.65546218487395,223.2975L239.49579831932772,223.67571429L240.3361344537815,223.850357145L241.17647058823528,223.6275L242.01680672268907,223.47750000000002L242.85714285714283,223.36392856499998L243.69747899159663,223.69928571L244.53781512605045,223.71857143499997L245.3781512605042,223.81178571L246.218487394958,224.01321429L247.05882352941177,223.918928565L247.89915966386556,223.925357145L248.73949579831933,223.59321429L249.57983193277312,223.39821428999997L250.42016806722688,223.723928565L251.26050420168067,224.00678571L252.10084033613444,224.5575L252.94117647058823,225.3L253.781512605042,225.735L254.6218487394958,226.20428571000002L255.46218487394955,226.36178571L256.3025210084034,228.125357145L257.14285714285717,229.31678571L257.98319327731093,230.82428571L258.8235294117647,231.14357143499998L259.6638655462185,231.94821429L260.5042016806723,232.138928565L261.34453781512605,232.33821429L262.1848739495798,232.48714285499997L263.02521008403363,233.27678570999998L263.8655462184874,234.24428570999999L264.70588235294116,234.080357145L265.5462184873949,234.19928571L266.38655462184875,234.53035714499998L267.2268907563025,234.66321429L268.0672268907563,232.84285714499998L268.9075630252101,231.83357143499998L269.74789915966386,231.14571429L270.5882352941177,230.58428571000002L271.42857142857144,230.3175L272.2689075630252,230.24785714499998L273.109243697479,231.016071435L273.9495798319328,231.93428570999998L274.78991596638656,231.725357145L275.6302521008403,231.38678571L276.4705882352941,231.736071435L277.3109243697479,231.22714285499998L278.1512605042017,230.657142855L278.99159663865544,230.06678571L279.8319327731092,231.17571429L280.672268907563,234.19178570999998L281.51260504201684,235.71428571L282.3529411764706,236.49428571L283.1932773109244,235.816071435L284.03361344537814,235.61142856499998L284.87394957983196,234.437142855L285.7142857142857,233.94321429000001L286.5546218487395,235.941428565L287.39495798319325,236.597142855L288.2352941176471,237.241071435L289.07563025210084,237.70071429L289.9159663865546,238.23321429L290.75630252100837,238.943571435L291.5966386554622,238.16678570999997L292.43697478991595,235.824642855L293.2773109243697,234.782142855L294.11764705882354,234.51000000000002L294.9579831932773,235.02535714500002L295.7983193277311,235.23535714500002L296.6386554621849,235.57071428999998L297.47899159663865,235.078928565L298.31932773109247,233.24464285500002L299.15966386554624,232.63928571000002L300,231.653571435L300.84033613445376,231.519642855L301.68067226890753,231.43607143499997L302.52100840336135,231.41250000000002L303.3613445378151,231.133928565L304.2016806722689,230.731071435L305.0420168067227,230.58964285500002L305.88235294117646,230.592857145L306.7226890756303,230.537142855L307.56302521008405,230.94321429000001L308.4033613445378,230.93571429L309.24369747899163,231.12964285500001L310.0840336134454,231.53464285500002L310.92436974789916,231.818571435L311.7647058823529,232.57178571L312.60504201680675,234.14678571L313.4453781512605,234.788571435L314.2857142857143,234.24857143499997L315.12605042016804,233.90464285500002L315.96638655462186,233.64321429L316.8067226890756,232.93928571L317.6470588235294,233.435357145L318.48739495798316,233.22107143500003L319.327731092437,232.84928570999998L320.1680672268908,232.479642855L321.00840336134456,232.067142855L321.8487394957983,230.8125L322.6890756302521,229.787142855L323.5294117647059,228.406071435L324.3697478991597,226.798928565L325.21008403361344,225.84L326.0504201680672,225.677142855L326.890756302521,226.700357145L327.7310924369748,227.00464285500001L328.57142857142856,226.978928565L329.4117647058823,225.96321429L330.25210084033614,226.14535714500002L331.0924369747899,225.72L331.9327731092437,225.19500000000002L332.7731092436975,224.66464285499998L333.61344537815125,224.405357145L334.4537815126051,224.49535714499999L335.29411764705884,225.02571429000002L336.1344537815126,224.67535714500002L336.97478991596637,224.51035714500003L337.8151260504202,224.001428565L338.65546218487395,222.64821429L339.4957983193277,221.637857145L340.3361344537815,221.17499999999998L341.1764705882353,220.84821429L342.01680672268907,220.245L342.85714285714283,219.605357145L343.6974789915966,219.402857145L344.5378151260504,218.75571429000001L345.37815126050424,225.10928571L346.218487394958,224.16428570999997L347.05882352941177,223.545L347.89915966386553,223.335L348.73949579831935,223.06928571L349.5798319327731,222.927857145L350.4201680672269,222.94821429L351.26050420168065,222.471428565L352.10084033613447,221.38178571L352.94117647058823,220.44L353.781512605042,219.668571435L354.62184873949576,219.336428565L355.4621848739496,219.41035714499998L356.3025210084034,219.20678571000002L357.14285714285717,211.5225L357.98319327731093,210.23678571L358.8235294117647,210.44035714499998L359.6638655462185,209.56071429L360.5042016806723,208.231071435L361.34453781512605,207.795L362.1848739495798,206.731071435L363.02521008403363,206.36357143499998L363.8655462184874,206.42571429L364.70588235294116,206.80607143500004L365.5462184873949,206.289642855L366.38655462184875,205.400357145L367.2268907563025,204.09964285499998L368.0672268907563,203.28964285499998L368.9075630252101,202.93714285499996L369.74789915966386,202.80321429L370.5882352941177,202.29321429L371.42857142857144,202.34785714499998L372.2689075630252,202.18928571L373.109243697479,201.615L373.9495798319328,201.67821428999997L374.78991596638656,200.74821429L375.6302521008403,199.281428565L376.4705882352941,197.926071435L377.3109243697479,197.69892856500002L378.1512605042017,197.237142855L378.99159663865544,197.81785714499998L379.8319327731092,198.155357145L380.672268907563,197.475L381.51260504201684,196.3725L382.3529411764706,195.71678571L383.1932773109244,195.15321429L384.03361344537814,195.133928565L384.87394957983196,194.31107143499997L385.7142857142857,193.776428565L386.5546218487395,193.231071435L387.39495798319325,192.74571429L388.2352941176471,192.32571428999998L389.07563025210084,192.170357145L389.9159663865546,192.238928565L390.75630252100837,191.555357145L391.5966386554622,190.531071435L392.43697478991595,190.07035714500003L393.2773109243697,191.01214285499998L394.11764705882354,190.90607143499997L394.9579831932773,190.48821429L395.7983193277311,189.707142855L396.6386554621849,189.42749999999998L397.47899159663865,187.755L398.31932773109247,186.481071435L399.15966386554624,185.09785714500003L400,184.599642855" stroke="#f58518" stroke-width="2"/></g></g><path class="foreground" aria-hidden="true" d="" display="none"/></g><g transform="translate(0,0)"><path class="background" aria-hidden="true" d="M0,0h400v300h-400Z"/><g><g class="mark-line role-mark marks" role="graphics-symbol" aria-roledescription="line mark container"><path d="M0,141.14357145L0.8403361344537815,142.00500000000002L1.680672268907563,142.28357144999998L2.5210084033613445,143.3496429L3.361344537815126,143.4921429L4.201680672268908,142.51178564999998L5.042016806722689,140.22535710000002L5.88235294117647,142.4978571L6.722689075630252,141.53571434999998L7.563025210084033,140.70535710000001L8.403361344537815,140.6528571L9.243697478991598,141.16500000000002L10.084033613445378,142.16250000000002L10.92436974789916,139.91892854999998L11.76470588235294,139.44214289999996L12.605042016806722,139.69178564999999L13.445378151260504,139.16892855L14.285714285714285,138.34714289999997L15.126050420168067,137.65071435L15.966386554621847,136.01464289999998L16.80672268907563,135.15857144999998L17.647058823529413,131.42678564999997L18.487394957983195,129.495L19.327731092436977,128.6946429L20.168067226890756,127.23321435000001L21.008403361344538,126.09321435000001L21.84873949579832,124.98750000000001L22.689075630252102,123.89678565000001L23.52941176470588,123.30321435000002L24.369747899159663,122.35821435000001L25.210084033613445,122.79964289999997L26.05042016806723,123.02035710000001L26.89075630252101,123.49392855000004L27.73109243697479,124.71L28.57142857142857,125.33892854999999L29.411764705882355,127.54928564999999L30.252100840336134,128.91749999999996L31.092436974789916,129.66214289999996L31.932773109243694,129.91071435L32.773109243697476,129.54642855L33.61344537815126,130.76892855L34.45378151260504,131.37857144999998L35.294117647058826,131.13964289999998L36.134453781512605,129.4146429L36.97478991596639,128.57357144999997L37.81512605042017,129.03964289999996L38.655462184873954,131.12464289999997L39.49579831932773,135.75642855000004L40.33613445378151,141.9675L41.17647058823529,147.345L42.016806722689076,153.53357143500003L42.857142857142854,160.052142855L43.69747899159664,167.796428565L44.537815126050425,176.57678571L45.378151260504204,185.446071435L46.21848739495798,197.84571429000002L47.05882352941176,207.285L47.89915966386555,217.52464285500002L48.739495798319325,225.564642855L49.57983193277311,233.616428565L50.42016806722689,239.60785714500003L51.26050420168067,245.63250000000002L52.10084033613446,252.08785714500002L52.94117647058824,255.83678571000002L53.78151260504202,258.148928565L54.621848739495796,259.81607143499997L55.46218487394958,261.2025L56.30252100840336,262.15928571L57.14285714285714,263.75142856499997L57.98319327731093,264.39107143499996L58.82352941176471,264.418928565L59.66386554621849,263.52428571L60.50420168067227,263.593928565L61.34453781512605,263.28321429L62.18487394957983,263.881071435L63.02521008403361,264.597857145L63.86554621848739,263.934642855L64.70588235294117,263.6925L65.54621848739495,264.14678570999996L66.38655462184873,263.754642855L67.22689075630252,263.672142855L68.0672268907563,263.5725L68.90756302521008,263.206071435L69.74789915966386,263.465357145L70.58823529411765,262.918928565L71.42857142857143,262.96714285499996L72.26890756302521,263.308928565L73.10924369747899,263.102142855L73.94957983193278,262.667142855L74.78991596638656,262.476428565L75.63025210084034,261.61821428999997L76.47058823529412,261.73821429000003L77.31092436974791,261.083571435L78.15126050420169,260.38928571L78.99159663865547,260.22321429L79.83193277310924,260.124642855L80.67226890756302,259.531071435L81.5126050420168,257.50928571000003L82.35294117647058,256.52678571L83.19327731092437,255.85071429L84.03361344537815,254.562857145L84.87394957983193,254.30571429000003L85.71428571428571,253.104642855L86.5546218487395,252.500357145L87.39495798319328,252.65464285500002L88.23529411764706,251.21035714500002L89.07563025210085,253.92428571L89.91596638655463,257.47071429L90.75630252100841,256.27928571L91.59663865546219,254.81678571L92.43697478991596,253.12285714499998L93.27731092436974,252.29785714500002L94.11764705882352,251.903571435L94.9579831932773,251.232857145L95.7983193277311,250.584642855L96.63865546218487,249.102857145L97.47899159663865,248.13L98.31932773109243,246.223928565L99.15966386554622,245.758928565L100,244.39607143499998L100.84033613445378,239.78892856500002L101.68067226890756,234.632142855L102.52100840336134,233.52107143499998L103.36134453781514,232.9725L104.20168067226892,232.72178571L105.0420168067227,231.70928571000002L105.88235294117648,230.77821429L106.72268907563026,229.605L107.56302521008404,228.81321429000002L108.40336134453781,228.78857143500002L109.24369747899159,228.16071429L110.08403361344538,228.203571435L110.92436974789916,225.961071435L111.76470588235294,225.286071435L112.60504201680672,224.1525L113.4453781512605,223.155L114.28571428571428,222.48535714500002L115.12605042016806,222.141428565L115.96638655462186,220.329642855L116.80672268907564,219.43714285500002L117.64705882352942,218.84892856500002L118.4873949579832,218.27678570999998L119.32773109243698,217.065L120.16806722689076,215.34428571L121.00840336134453,214.517142855L121.84873949579831,211.566428565L122.6890756302521,210.492857145L123.52941176470588,210.62035714499999L124.36974789915966,209.713928565L125.21008403361344,208.69392856499996L126.05042016806722,207.52500000000003L126.890756302521,205.34249999999997L127.73109243697478,204.091071435L128.57142857142858,204.19178571000003L129.41176470588235,203.633571435L130.25210084033614,202.45928571000002L131.0924369747899,201.88714285500004L131.9327731092437,201.30535714500002L132.77310924369746,199.54928571L133.61344537815125,200.39999999999998L134.45378151260505,200.23928571L135.29411764705884,199.51928571L136.1344537815126,199.648928565L136.9747899159664,199.430357145L137.81512605042016,199.37142856499997L138.65546218487395,198.52928571L139.49579831932772,200.82964285500003L140.3361344537815,200.26821429L141.1764705882353,198.94928571L142.01680672268907,198.67928571000002L142.85714285714286,197.694642855L143.69747899159663,196.60071429L144.53781512605042,196.575L145.37815126050418,195.36214285499997L146.21848739495798,193.63500000000002L147.05882352941177,192.800357145L147.89915966386556,192.136071435L148.73949579831933,191.780357145L149.57983193277312,191.832857145L150.42016806722688,192.4425L151.26050420168067,190.2075L152.10084033613444,188.274642855L152.94117647058823,188.72035714499998L153.78151260504202,188.58535714500002L154.62184873949582,188.8575L155.46218487394958,188.709642855L156.30252100840337,188.86928571L157.14285714285714,188.68928570999998L157.98319327731093,188.113928565L158.8235294117647,188.36571429L159.6638655462185,187.64571429000003L160.50420168067228,189.3975L161.34453781512605,187.558928565L162.18487394957984,186.42321428999998L163.0252100840336,186.00321429L163.8655462184874,185.60571428999998L164.70588235294116,184.59321429L165.54621848739495,183.93321429L166.38655462184875,183.21428571L167.22689075630254,183.60107143500002L168.0672268907563,183.782142855L168.9075630252101,182.64000000000001L169.74789915966386,182.21999999999997L170.58823529411765,182.889642855L171.42857142857142,182.52321428999997L172.2689075630252,179.53178571L173.109243697479,180.290357145L173.94957983193277,179.58857143499998L174.78991596638656,178.12285714499998L175.63025210084032,177.838928565L176.47058823529412,178.04035714500003L177.31092436974788,178.02428571L178.1512605042017,178.18928571L178.99159663865547,177.13500000000002L179.83193277310926,176.799642855L180.67226890756302,177.06428570999998L181.51260504201682,178.58571429L182.35294117647058,175.790357145L183.19327731092437,175.812857145L184.03361344537814,176.218928565L184.87394957983193,176.03892856500002L185.71428571428572,176.68500000000003L186.5546218487395,176.14928570999996L187.39495798319328,175.21499999999997L188.23529411764704,173.88857143500002L189.07563025210084,174.013928565L189.9159663865546,173.83714285499997L190.75630252100842,174.242142855L191.5966386554622,174.721071435L192.43697478991598,173.518928565L193.27731092436974,170.450357145L194.11764705882354,171.096428565L194.9579831932773,171.25928571L195.7983193277311,171.47678571L196.63865546218486,171.342857145L197.47899159663865,171.28928571L198.31932773109244,171.73071429L199.15966386554624,171.293571435L200,172.38428571000003L200.84033613445376,172.771071435L201.68067226890756,173.12571429L202.52100840336135,173.03142856500003L203.3613445378151,172.0875L204.20168067226888,172.052142855L205.04201680672267,171.755357145L205.88235294117646,171.57107143500002L206.72268907563029,171.73607143499999L207.56302521008405,172.96071429000003L208.40336134453784,173.3625L209.2436974789916,173.438571435L210.0840336134454,173.754642855L210.92436974789916,173.69678571000003L211.76470588235296,173.8425L212.60504201680672,173.95178571000002L213.4453781512605,174.02464285500002L214.28571428571428,174.71678570999998L215.12605042016807,174.996428565L215.96638655462183,175.374642855L216.80672268907563,175.562142855L217.6470588235294,175.876071435L218.48739495798318,177.8325L219.327731092437,178.06178571L220.16806722689077,177.85071429L221.00840336134456,177.863571435L221.84873949579833,179.92071428999998L222.68907563025212,179.76428571L223.52941176470588,179.62714285500002L224.36974789915968,179.67428571000002L225.21008403361344,179.99785714499998L226.05042016806723,179.818928565L226.890756302521,179.84571429000002L227.7310924369748,179.85214285499998L228.57142857142856,179.9925L229.41176470588235,180.38678571000003L230.2521008403361,179.21357143499998L231.0924369747899,178.296428565L231.93277310924373,178.95428571L232.7731092436975,180.93964285500002L233.61344537815128,180.051428565L234.45378151260505,180.73178571000003L235.29411764705884,182.56821429000001L236.1344537815126,183.23678571L236.9747899159664,183.62785714499998L237.81512605042016,184.84607143499997L238.65546218487395,185.46000000000004L239.49579831932772,186.33749999999998L240.3361344537815,186.59678571L241.17647058823528,186.028928565L242.01680672268907,185.74928570999998L242.85714285714283,185.72571429L243.69747899159663,186.46928571000004L244.53781512605045,186.643928565L245.3781512605042,187.0575L246.218487394958,188.00892856500002L247.05882352941177,187.89107143500001L247.89915966386556,188.02071429000003L248.73949579831933,188.68714285500002L249.57983193277312,188.99035714500002L250.42016806722688,189.69964285499998L251.26050420168067,190.27714285499997L252.10084033613444,192.07928571000002L252.94117647058823,193.99178571000002L253.781512605042,194.84142856500003L254.6218487394958,195.46821429L255.46218487394955,194.66035714499998L256.3025210084034,197.121428565L257.14285714285717,198.23678571L257.98319327731093,200.55428571000002L258.8235294117647,200.72571428999998L259.6638655462185,201.88928571L260.5042016806723,201.876428565L261.34453781512605,201.76285714500003L262.1848739495798,201.582857145L263.02521008403363,202.636071435L263.8655462184874,204.372857145L264.70588235294116,204.07500000000002L265.5462184873949,204.117857145L266.38655462184875,204.88607143500002L267.2268907563025,206.12357143500003L268.0672268907563,202.895357145L268.9075630252101,201.137142855L269.74789915966386,199.57071428999998L270.5882352941177,198.201428565L271.42857142857144,197.6775L272.2689075630252,197.14821429L273.109243697479,198.33428571000002L273.9495798319328,201.08357143499998L274.78991596638656,201.391071435L275.6302521008403,200.97107143499997L276.4705882352941,201.515357145L277.3109243697479,200.582142855L278.1512605042017,199.24178571000002L278.99159663865544,197.34321429000002L279.8319327731092,198.128571435L280.672268907563,203.64964285499997L281.51260504201684,206.746071435L282.3529411764706,208.42499999999998L283.1932773109244,206.83821429L284.03361344537814,206.611071435L284.87394957983196,204.165L285.7142857142857,200.90571428999996L286.5546218487395,203.278928565L287.39495798319325,203.47714285499998L288.2352941176471,204.72107143500003L289.07563025210084,205.65107143499998L289.9159663865546,207.00321429000002L290.75630252100837,208.992857145L291.5966386554622,209.03785714499998L292.43697478991595,205.43464285500002L293.2773109243697,204.156428565L294.11764705882354,204.14678571L294.9579831932773,205.782857145L295.7983193277311,206.6925L296.6386554621849,208.10571428999998L297.47899159663865,209.003571435L298.31932773109247,206.672142855L299.15966386554624,206.53714285499998L300,204.54642856499999L300.84033613445376,204.248571435L301.68067226890753,204.51321429000004L302.52100840336135,204.822857145L303.3613445378151,204.79928571000002L304.2016806722689,204.29571429L305.0420168067227,204.33535714500002L305.88235294117646,204.73178571L306.7226890756303,204.78428570999998L307.56302521008405,205.733571435L308.4033613445378,205.917857145L309.24369747899163,206.472857145L310.0840336134454,207.41035714499998L310.92436974789916,208.11749999999998L311.7647058823529,209.787857145L312.60504201680675,213.803571435L313.4453781512605,215.72571429L314.2857142857143,215.71285714500002L315.12605042016804,215.39999999999998L315.96638655462186,215.24892856500003L316.8067226890756,214.175357145L317.6470588235294,215.513571435L318.48739495798316,215.64642856500004L319.327731092437,215.28321429L320.1680672268908,215.08928571L321.00840336134456,214.89321429L321.8487394957983,213.19285714500003L322.6890756302521,211.581428565L323.5294117647059,208.39821429L324.3697478991597,205.17428571L325.21008403361344,202.92321429L326.0504201680672,202.112142855L326.890756302521,204.57428571L327.7310924369748,205.94464285500004L328.57142857142856,206.20928571L329.4117647058823,204.061071435L330.25210084033614,204.43392856499997L331.0924369747899,203.80071429000003L331.9327731092437,202.82142856500002L332.7731092436975,201.78964285499998L333.61344537815125,201.225L334.4537815126051,201.35250000000002L335.29411764705884,203.466428565L336.1344537815126,202.92321429L336.97478991596637,202.8525L337.8151260504202,202.16142856500002L338.65546218487395,199.32107143500002L339.4957983193277,197.195357145L340.3361344537815,196.2675L341.1764705882353,195.51428571L342.01680672268907,194.25L342.85714285714283,192.76178571000003L343.6974789915966,192.39321429L344.5378151260504,190.941428565L345.37815126050424,199.86535714500002L346.218487394958,197.88428571L347.05882352941177,196.45071429L347.89915966386553,196.137857145L348.73949579831935,195.73607143499999L349.5798319327731,195.40714285500002L350.4201680672269,195.585L351.26050420168065,194.604642855L352.10084033613447,191.59928571L352.94117647058823,189.25607143500002L353.781512605042,187.9275L354.62184873949576,187.57607143500002L355.4621848739496,188.14928571L356.3025210084034,188.011071435L357.14285714285717,176.85535714499997L357.98319327731093,174.628928565L358.8235294117647,175.3575L359.6638655462185,173.85L360.5042016806723,171.373928565L361.34453781512605,170.98071429L362.1848739495798,169.18821429000002L363.02521008403363,168.762857145L363.8655462184874,169.426071435L364.70588235294116,171.103928565L365.5462184873949,170.360357145L366.38655462184875,169.4025L367.2268907563025,167.17928571000002L368.0672268907563,166.125L368.9075630252101,166.134642855L369.74789915966386,166.01678571L370.5882352941177,165.67821429L371.42857142857144,166.62321429L372.2689075630252,166.910357145L373.109243697479,166.070357145L373.9495798319328,166.997142855L374.78991596638656,165.97821429L375.6302521008403,164.173928565L376.4705882352941,161.813571435L377.3109243697479,161.85000000000002L378.1512605042017,160.81928571L378.99159663865544,162.15214285499997L379.8319327731092,163.32964285500003L380.672268907563,162.17357143499999L381.51260504201684,160.719642855L382.3529411764706,159.32892856499998L383.1932773109244,158.08392856499998L384.03361344537814,158.225357145L384.87394957983196,156.90214285500002L385.7142857142857,155.685L386.5546218487395,154.86964285500002L387.39495798319325,153.81535714499998L388.2352941176471,153.148928565L389.07563025210084,153.354642855L389.9159663865546,153.988928565L390.75630252100837,153.28821429L391.5966386554622,151.47535714499998L392.43697478991595,151.06178571L393.2773109243697,153.45535714500002L394.11764705882354,153.511071435L394.9579831932773,153.10071429L395.7983193277311,152.218928565L396.6386554621849,152.16428570999997L397.47899159663865,149.42357145L398.31932773109247,146.96571435L399.15966386554624,144.7178571L400,144.1671429" stroke="#e45756" stroke-width="2"/></g></g><path class="foreground" aria-hidden="true" d="" display="none"/></g></g><g class="mark-group role-legend" role="graphics-symbol" aria-roledescription="legend" aria-label="Symbol legend titled 'Mode of Transportation' for stroke color with 3 values: Driving, Transit, Walking"><g transform="translate(420,0)"><path class="background" aria-hidden="true" d="M0,0h123v53h-123Z" pointer-events="none"/><g><g class="mark-group role-legend-entry"><g transform="translate(0,16)"><path class="background" aria-hidden="true" d="M0,0h0v0h0Z" pointer-events="none"/><g><g class="mark-group role-scope" role="graphics-object" aria-roledescription="group mark container"><g transform="translate(0,0)"><path class="background" aria-hidden="true" d="M0,0h51.2001953125v11h-51.2001953125Z" pointer-events="none" opacity="1"/><g><g class="mark-symbol role-legend-symbol" pointer-events="none"><path transform="translate(6,6)" d="M-5,0L5,0" stroke="#4c78a8" stroke-width="1.5" opacity="1"/></g><g class="mark-text role-legend-label" pointer-events="none"><text text-anchor="start" transform="translate(16,9)" font-family="sans-serif" font-size="10px" fill="#000" opacity="1">Driving</text></g></g><path class="foreground" aria-hidden="true" d="" pointer-events="none" display="none"/></g><g transform="translate(0,13)"><path class="background" aria-hidden="true" d="M0,0h51.2001953125v11h-51.2001953125Z" pointer-events="none" opacity="1"/><g><g class="mark-symbol role-legend-symbol" pointer-events="none"><path transform="translate(6,6)" d="M-5,0L5,0" stroke="#f58518" stroke-width="1.5" opacity="1"/></g><g class="mark-text role-legend-label" pointer-events="none"><text text-anchor="start" transform="translate(16,9)" font-family="sans-serif" font-size="10px" fill="#000" opacity="1">Transit</text></g></g><path class="foreground" aria-hidden="true" d="" pointer-events="none" display="none"/></g><g transform="translate(0,26)"><path class="background" aria-hidden="true" d="M0,0h51.2001953125v11h-51.2001953125Z" pointer-events="none" opacity="1"/><g><g class="mark-symbol role-legend-symbol" pointer-events="none"><path transform="translate(6,6)" d="M-5,0L5,0" stroke="#e45756" stroke-width="1.5" opacity="1"/></g><g class="mark-text role-legend-label" pointer-events="none"><text text-anchor="start" transform="translate(16,9)" font-family="sans-serif" font-size="10px" fill="#000" opacity="1">Walking</text></g></g><path class="foreground" aria-hidden="true" d="" pointer-events="none" display="none"/></g></g></g><path class="foreground" aria-hidden="true" d="" pointer-events="none" display="none"/></g></g><g class="mark-text role-legend-title" pointer-events="none"><text text-anchor="start" transform="translate(0,9)" font-family="sans-serif" font-size="11px" font-weight="bold" fill="#000" opacity="1">Mode of Transportation</text></g></g><path class="foreground" aria-hidden="true" d="" pointer-events="none" display="none"/></g></g><g class="mark-group role-title"><g transform="translate(200,-29)"><path class="background" aria-hidden="true" d="M0,0h0v0h0Z" pointer-events="none"/><g><g class="mark-text role-title-text" role="graphics-symbol" aria-roledescription="title" aria-label="Title text 'New York City, Total'" pointer-events="none"><text text-anchor="middle" transform="translate(0,16)" font-family="Helvetica" font-size="20px" font-weight="bold" fill="black" opacity="1">New York City, Total</text></g></g><path class="foreground" aria-hidden="true" d="" pointer-events="none" display="none"/></g></g></g><path class="foreground" aria-hidden="true" d="" display="none"/></g></g></g></svg>